<?xml version="1.0" standalone="no"?>
<!DOCTYPE svg PUBLIC "-//W3C//DTD SVG 1.1//EN" "http://www.w3.org/Graphics/SVG/1.1/DTD/svg11.dtd" >
<svg xmlns="http://www.w3.org/2000/svg" xmlns:xlink="http://www.w3.org/1999/xlink" version="1.1">
<metadata>
Created by FontForge 20170731 at Mon May 23 15:50:47 2022
 By Aleksey,,,
Copyright 2021 The Albert Sans Project Authors (https://github.com/usted/Albert-Sans)
</metadata>
<defs>
<font id="AlbertSans-Regular" horiz-adv-x="781" >
  <font-face 
    font-family="Albert Sans"
    font-weight="400"
    font-stretch="normal"
    units-per-em="1000"
    panose-1="0 0 0 0 0 0 0 0 0 0"
    ascent="800"
    descent="-200"
    x-height="500"
    cap-height="700"
    bbox="-48 -264 1238 958"
    underline-thickness="50"
    underline-position="-175"
    unicode-range="U+0020-FB01"
  />
<missing-glyph horiz-adv-x="660" 
d="M77 0v700h507v-700h-507zM157 70h347v560h-347v-560z" />
    <glyph glyph-name="fi" unicode="fi" horiz-adv-x="543" 
d="M412 597q-22 0 -38 15.5t-16 37.5q0 24 16 39.5t38 15.5q23 0 38.5 -15.5t15.5 -39.5q0 -22 -15.5 -37.5t-38.5 -15.5zM448 501v-501h-75v431h-339v70h414zM104 559q0 55 18 93t57.5 55.5t105.5 12.5v-67q-60 5 -83 -19.5t-23 -74.5v-559h-75v559z" />
    <glyph glyph-name=".notdef" horiz-adv-x="660" 
d="M77 0v700h507v-700h-507zM157 70h347v560h-347v-560z" />
    <glyph glyph-name=".null" horiz-adv-x="0" 
 />
    <glyph glyph-name="nonmarkingreturn" horiz-adv-x="333" 
 />
    <glyph glyph-name="space" unicode=" " horiz-adv-x="280" 
 />
    <glyph glyph-name="exclam" unicode="!" horiz-adv-x="261" 
d="M85 700h85l-9 -509h-67zM131 -4q-24 0 -39 16t-15 39t15 39t39 16q22 0 38 -16t16 -39t-16 -39t-38 -16z" />
    <glyph glyph-name="quotedbl" unicode="&#x22;" horiz-adv-x="305" 
d="M51 700h76l-10 -190h-55zM177 700h77l-10 -190h-55z" />
    <glyph glyph-name="numbersign" unicode="#" horiz-adv-x="811" 
d="M294 700h76l-36 -180h216l36 180h77l-36 -180h142v-70h-156l-36 -182h148v-70h-161l-39 -198h-77l39 198h-216l-39 -198h-76l39 198h-152v70h165l36 182h-158v70h172zM284 268h216l36 182h-216z" />
    <glyph glyph-name="dollar" unicode="$" horiz-adv-x="574" 
d="M259 775h49v-850h-49v850zM124 178q6 -27 25.5 -53.5t54 -44t88.5 -17.5q77 0 114 36t37 85q0 39 -21 64t-57 41.5t-81 29.5q-40 11 -79.5 24.5t-71.5 34t-51 53.5t-19 82q0 59 28 102.5t79 67.5t119 24q59 0 103 -17t73.5 -47.5t43.5 -70.5l-71 -27q-7 23 -27 44.5
t-52 35.5t-73 14q-40 0 -72.5 -14t-51.5 -40t-19 -63q0 -40 22.5 -63.5t60 -38t82.5 -27.5q41 -13 79.5 -28t69 -37t48.5 -55t18 -81q0 -53 -25 -98.5t-75.5 -73t-129.5 -27.5q-66 0 -116 20.5t-82 55.5t-44 80z" />
    <glyph glyph-name="percent" unicode="%" horiz-adv-x="758" 
d="M51 561q0 68 40.5 107t102.5 39q61 0 102 -39t41 -107t-41 -107.5t-102 -39.5q-62 0 -102.5 39.5t-40.5 107.5zM194 657q-36 0 -57.5 -24.5t-21.5 -71.5t21.5 -72t57.5 -25q35 0 57 25t22 72t-22 71.5t-57 24.5zM543 700h79l-408 -700h-79zM422 139q0 68 40.5 107.5
t101.5 39.5t102 -39.5t41 -107.5q0 -67 -41 -106.5t-102 -39.5t-101.5 39.5t-40.5 106.5zM564 235q-35 0 -57 -24.5t-22 -71.5q0 -46 22 -70.5t57 -24.5t57 24.5t22 70.5q0 47 -22 71.5t-57 24.5z" />
    <glyph glyph-name="ampersand" unicode="&#x26;" horiz-adv-x="704" 
d="M414 595q-20 20 -49.5 30.5t-66.5 10.5q-69 0 -102.5 -36t-33.5 -91q0 -40 20.5 -66t63 -39t107.5 -13h217v-70h-216q-100 0 -152.5 -28.5t-52.5 -101.5q0 -38 15 -67t47 -44.5t83 -15.5q77 0 109 37t32 113v128h77v-128q0 -79 -26 -127.5t-75 -71t-117 -22.5
q-75 0 -125.5 24.5t-75.5 68t-25 98.5q0 50 19 84.5t52.5 56t76.5 30.5v5q-43 8 -73 31t-46 55.5t-16 70.5q0 52 24.5 95t72.5 69t117 26q57 0 103.5 -17.5t78.5 -49.5zM477 640l-63 -45zM397 391q13 0 23 5.5t15 15.5t5 23v79h73v-123h134v-70h-134v-160q0 -49 26 -72
t69 -23q9 0 18.5 1t20.5 2v-65q-13 -3 -26.5 -5t-25.5 -2q-42 0 -78.5 17t-59.5 53.5t-23 93.5v160h-75v70h38z" />
    <glyph glyph-name="quotesingle" unicode="'" horiz-adv-x="190" 
d="M55 700h79l-12 -190h-55z" />
    <glyph glyph-name="parenleft" unicode="(" horiz-adv-x="408" 
d="M262 -100q-63 50 -108.5 119.5t-69.5 153.5t-24 176t25 175.5t73 154t117 121.5h83v-6q-75 -58 -124 -130t-73 -152t-24 -163t23 -163t69.5 -151t115.5 -128v-7h-83z" />
    <glyph glyph-name="parenright" unicode=")" horiz-adv-x="409" 
d="M147 -100h-83v7q69 57 115 128t69.5 151t23.5 163t-24 163t-73 152t-124 130v6h83q69 -51 117 -121.5t73 -154t25 -175.5t-24.5 -176t-69.5 -153.5t-108 -119.5z" />
    <glyph glyph-name="asterisk" unicode="*" horiz-adv-x="476" 
d="M258 579l126 87l32 -58l-141 -61l142 -61l-33 -59l-126 87l14 -154h-65l12 154l-125 -88l-34 61l141 61l-141 59l33 59l127 -87l-13 154h66z" />
    <glyph glyph-name="plus" unicode="+" horiz-adv-x="636" 
d="M355 605v-510h-74v510h74zM64 384h509v-68h-509v68z" />
    <glyph glyph-name="comma" unicode="," horiz-adv-x="264" 
d="M112 121h88l-108 -266h-54z" />
    <glyph glyph-name="hyphen" unicode="-" horiz-adv-x="521" 
d="M64 312h394v-68h-394v68z" />
    <glyph glyph-name="period" unicode="." horiz-adv-x="235" 
d="M118 -5q-23 0 -38.5 16t-15.5 39t15.5 39t38.5 16q22 0 38 -16t16 -39t-16 -39t-38 -16z" />
    <glyph glyph-name="slash" unicode="/" horiz-adv-x="319" 
d="M239 800h80l-241 -900h-78z" />
    <glyph glyph-name="zero" unicode="0" horiz-adv-x="629" 
d="M68 350q0 77 11 142.5t38 113.5t75.5 74.5t122.5 26.5t122 -26.5t75 -74.5t38 -113.5t11 -142.5q0 -78 -11 -143.5t-38 -113.5t-75 -74t-122 -26t-122.5 26t-75.5 74t-38 113.5t-11 143.5zM480 350q0 59 -5.5 110.5t-21.5 91t-49 62t-89 22.5q-55 0 -88.5 -22.5t-50 -62
t-22 -91t-5.5 -110.5q0 -61 5.5 -113t22 -91t50 -60.5t88.5 -21.5q56 0 89 21.5t49 60.5t21.5 91t5.5 113z" />
    <glyph glyph-name="one" unicode="1" horiz-adv-x="306" 
d="M141 630h-98v70h178v-700h-80v630z" />
    <glyph glyph-name="two" unicode="2" horiz-adv-x="601" 
d="M57 60l213 197q62 57 98 98t51.5 76t15.5 73q0 59 -35 95.5t-107 36.5q-49 0 -83 -21t-52 -58t-19 -87h-77q2 78 32.5 130.5t82.5 79.5t116 27q70 0 120 -25.5t76.5 -71t26.5 -106.5q0 -45 -17 -87t-57.5 -90.5t-110.5 -113.5l-154 -143h359v-70h-479v60z" />
    <glyph glyph-name="three" unicode="3" horiz-adv-x="599" 
d="M68 511q4 62 35 105.5t82.5 67t118.5 23.5q69 0 117 -26t72.5 -69t24.5 -95q0 -38 -16 -70.5t-46 -55.5t-73 -31v-5q43 -9 76.5 -30.5t52.5 -56t19 -84.5q0 -55 -25 -98.5t-75.5 -68t-125.5 -24.5q-73 0 -126.5 22t-84.5 68.5t-37 120.5h77q7 -69 47 -104.5t124 -35.5
q50 0 82 15.5t47.5 44.5t15.5 67q0 73 -52.5 101.5t-152.5 28.5h-23v70h24q65 0 107 13t63 39t21 66q0 55 -33.5 91t-102.5 36q-44 0 -77 -15t-53.5 -42.5t-25.5 -67.5h-77z" />
    <glyph glyph-name="four" unicode="4" horiz-adv-x="655" 
d="M417 166h-374v60l358 474h96v-464h102v-70h-102v-166h-80v166zM419 236v379l-284 -379h284z" />
    <glyph glyph-name="five" unicode="5" horiz-adv-x="624" 
d="M516 700v-70h-354v-233q23 32 67 52t99 20q64 0 108 -21t71.5 -55t40 -74.5t12.5 -79.5q0 -66 -27.5 -122t-82 -90t-135.5 -34q-70 0 -122.5 25t-84 69.5t-40.5 103.5h78q14 -62 58.5 -94.5t110.5 -32.5q56 0 92.5 22t54 61t17.5 90q0 77 -42 119t-120 42
q-57 0 -98.5 -25t-61.5 -70h-75v397h434z" />
    <glyph glyph-name="six" unicode="6" horiz-adv-x="599" 
d="M304 -7q-75 0 -130.5 32.5t-86 88t-30.5 123.5q0 52 17.5 103t56.5 105l186 255h86l-205 -279l-101 -112q21 72 78 116t138 44q71 0 124 -29.5t82 -82t29 -122.5t-31 -125t-86 -86t-127 -31zM138 236q0 -52 19.5 -91t56.5 -60t90 -21t89.5 21t55 59.5t18.5 90.5
q0 53 -18.5 89t-55 55t-89.5 19t-90 -19t-56.5 -55t-19.5 -88z" />
    <glyph glyph-name="seven" unicode="7" horiz-adv-x="556" 
d="M514 700v-60l-278 -640h-81l282 630h-394v70h471z" />
    <glyph glyph-name="eight" unicode="8" horiz-adv-x="632" 
d="M202 368q-60 20 -91 59.5t-31 97.5q0 51 27 92t79.5 65.5t129.5 24.5t129.5 -24.5t79.5 -66t27 -91.5q0 -57 -32 -97t-90 -60q65 -17 103 -61t38 -110q0 -62 -32 -108t-89 -71t-134 -25q-76 0 -133.5 25t-89.5 71t-32 108q0 67 38.5 110.5t102.5 60.5zM471 516
q0 62 -41.5 91t-113.5 29q-71 0 -113 -28.5t-42 -92.5q0 -57 42 -87t113 -30t113 30t42 88zM316 331q-49 0 -88.5 -13t-62.5 -41.5t-23 -77.5q0 -65 46 -100t128 -35q81 0 127.5 35.5t46.5 99.5q0 48 -23 77t-62 42t-89 13z" />
    <glyph glyph-name="nine" unicode="9" horiz-adv-x="599" 
d="M295 707q75 0 130.5 -32.5t86 -87.5t30.5 -124q0 -52 -17 -103t-57 -105l-186 -255h-86l205 279l101 112q-20 -72 -77 -116t-139 -44q-71 0 -123.5 29.5t-82 82.5t-29.5 122q0 71 31 125.5t86 85.5t127 31zM461 464q0 53 -19.5 91.5t-56.5 59.5t-90 21t-89.5 -21
t-55 -59.5t-18.5 -90.5t18.5 -88.5t55 -55.5t89.5 -19t90 19t56.5 55t19.5 88z" />
    <glyph glyph-name="colon" unicode=":" horiz-adv-x="244" 
d="M122 -5q-23 0 -38.5 16t-15.5 39t15.5 39t38.5 16q22 0 38 -16t16 -39t-16 -39t-38 -16zM122 427q-23 0 -38.5 16t-15.5 39t15.5 39t38.5 16q22 0 38 -16t16 -39t-16 -39t-38 -16z" />
    <glyph glyph-name="semicolon" unicode=";" horiz-adv-x="280" 
d="M158 428q-23 0 -38.5 16t-15.5 39t15.5 39t38.5 16q22 0 38 -16t16 -39t-16 -39t-38 -16zM116 121h88l-108 -266h-54z" />
    <glyph glyph-name="less" unicode="&#x3c;" horiz-adv-x="497" 
d="M412 119h-101l-247 231l247 231h101l-248 -231z" />
    <glyph glyph-name="equal" unicode="=" horiz-adv-x="667" 
d="M77 280h514v-68h-514v68zM77 489h514v-68h-514v68z" />
    <glyph glyph-name="greater" unicode="&#x3e;" horiz-adv-x="496" 
d="M332 350l-247 231h100l247 -231l-247 -231h-100z" />
    <glyph glyph-name="question" unicode="?" horiz-adv-x="548" 
d="M273 707q64 0 113.5 -25t77.5 -70.5t28 -108.5q0 -74 -32 -120t-87 -67t-126 -21l-3 -104h-68l-4 159h26q43 0 81.5 5.5t68 21.5t46.5 46.5t17 79.5q0 42 -17 72t-47.5 45.5t-73.5 15.5q-66 0 -104 -33t-38 -95h-74q-1 61 26 105.5t76 69t114 24.5zM214 -5
q-23 0 -38.5 16t-15.5 39t15.5 39t38.5 16t38.5 -16t15.5 -39t-15.5 -39t-38.5 -16z" />
    <glyph glyph-name="at" unicode="@" horiz-adv-x="983" 
d="M594 155l17 -27q-26 -61 -81.5 -97.5t-119.5 -36.5q-77 0 -119.5 46.5t-42.5 124.5q0 56 17.5 106.5t50 90t77 62.5t99.5 23q62 0 99 -32t44 -95l-22 -13l23 129h69l-51 -290q-7 -43 4 -70.5t49 -27.5q33 0 58 23.5t42 61.5t25.5 82t8.5 85q0 89 -36.5 151.5t-105 96
t-164.5 33.5q-91 0 -168 -33.5t-134 -93.5t-88 -140t-31 -172q-1 -90 36 -153t106 -96t164 -33q41 0 84 8.5t81 25.5l11 -54q-44 -19 -93 -28t-100 -9q-107 0 -187 40.5t-124.5 115.5t-44.5 176q0 106 36.5 197.5t103.5 160t158 107t200 38.5q111 0 192.5 -42t125.5 -117
t44 -174q0 -57 -14 -112.5t-41.5 -100.5t-67 -71.5t-89.5 -26.5q-59 0 -84.5 35.5t-19.5 91.5zM492 386q-53 0 -90.5 -30.5t-58 -78.5t-20.5 -101t27.5 -86.5t83.5 -33.5q44 0 81 24t60.5 66t28.5 96q4 40 -7 72.5t-37.5 52t-67.5 19.5z" />
    <glyph glyph-name="A" unicode="A" horiz-adv-x="672" 
d="M354 630h-33l-231 -630h-81l256 700h144l255 -700h-81zM134 254h408v-70h-408v70z" />
    <glyph glyph-name="B" unicode="B" horiz-adv-x="660" 
d="M508 510q0 55 -36.5 87.5t-108.5 32.5h-198v-239h201q68 0 105 32t37 87zM85 0v700h285q74 0 122 -25t71.5 -65.5t23.5 -89.5q0 -48 -17.5 -80.5t-47 -51.5t-64.5 -26v-7q42 -6 75 -26.5t52 -55.5t19 -85q0 -52 -26 -95t-76.5 -68t-123.5 -25h-293zM165 70h207
q72 0 112.5 32.5t40.5 93.5t-42.5 93t-113.5 32h-204v-251z" />
    <glyph glyph-name="C" unicode="C" horiz-adv-x="765" 
d="M43 350q0 79 26 144.5t73.5 113t110 73.5t136.5 26q108 0 189.5 -50t123.5 -142l-65 -24q-23 49 -61 80.5t-86 47.5t-101 16q-75 0 -135 -34t-94.5 -98t-34.5 -153q0 -88 34.5 -152t94.5 -98.5t135 -34.5q54 0 103 17t88.5 53t63.5 90l65 -24q-43 -103 -126 -155.5
t-194 -52.5q-74 0 -136.5 26t-110 74t-73.5 113.5t-26 143.5z" />
    <glyph glyph-name="D" unicode="D" horiz-adv-x="729" 
d="M316 700q116 0 198.5 -42.5t127 -121.5t44.5 -188q0 -108 -44.5 -186t-127 -120t-198.5 -42h-231v700h231zM316 70q143 0 216 73t73 205q0 133 -73 207.5t-216 74.5h-151v-560h151z" />
    <glyph glyph-name="E" unicode="E" horiz-adv-x="609" 
d="M544 630h-379v-239h285v-70h-285v-251h379v-70h-459v700h459v-70z" />
    <glyph glyph-name="F" unicode="F" horiz-adv-x="587" 
d="M85 700h459v-70h-379v-239h285v-70h-285v-321h-80v700z" />
    <glyph glyph-name="G" unicode="G" horiz-adv-x="770" 
d="M633 490q-38 75 -101 110.5t-140 35.5q-76 0 -137 -35t-96 -99t-35 -152q0 -87 35 -151t96 -99t137 -35q57 0 106 19.5t85 56t55 87.5v81h-240v65h321v-150q-23 -67 -70 -119t-113 -82t-144 -30q-74 0 -137.5 26t-111 73.5t-74 113t-26.5 144.5t26.5 144.5t74 113
t111 73.5t137.5 26q69 0 129.5 -22.5t107.5 -65t74 -103.5z" />
    <glyph glyph-name="H" unicode="H" horiz-adv-x="705" 
d="M85 700h80v-309h375v309h80v-700h-80v321h-375v-321h-80v700z" />
    <glyph glyph-name="I" unicode="I" horiz-adv-x="250" 
d="M85 700h80v-700h-80v700z" />
    <glyph glyph-name="J" unicode="J" horiz-adv-x="508" 
d="M347 700h80v-517q0 -55 -24 -98t-66.5 -67.5t-99.5 -24.5q-72 0 -118 36.5t-63 100.5l69 25q7 -26 20.5 -47t36 -33t55.5 -12q39 0 63 18t35.5 45.5t11.5 56.5v517z" />
    <glyph glyph-name="K" unicode="K" horiz-adv-x="607" 
d="M85 700h80v-309h34l289 309h103l-322 -344l325 -356h-106l-290 321h-33v-321h-80v700z" />
    <glyph glyph-name="L" unicode="L" horiz-adv-x="520" 
d="M165 700v-630h327v-70h-407v700h80z" />
    <glyph glyph-name="M" unicode="M" horiz-adv-x="864" 
d="M165 0h-80v700h88l260 -590l259 590h87v-700h-80v542l-238 -542h-57l-239 542v-542z" />
    <glyph glyph-name="N" unicode="N" horiz-adv-x="705" 
d="M620 700v-700h-81l-374 572v-572h-80v700h81l374 -571v571h80z" />
    <glyph glyph-name="O" unicode="O" 
d="M392 -7q-74 0 -137.5 26t-111 73.5t-74 113t-26.5 144.5t26.5 144.5t74 113t111 73.5t137.5 26q73 0 136.5 -26t110.5 -73.5t73.5 -113t26.5 -144.5t-26.5 -144.5t-73.5 -113t-110.5 -73.5t-136.5 -26zM392 63q75 0 135 35t95 99.5t35 152.5q0 89 -35 153.5t-95 99
t-135 34.5q-76 0 -136.5 -34.5t-95.5 -99t-35 -153.5q0 -88 35 -152.5t95.5 -99.5t136.5 -35z" />
    <glyph glyph-name="P" unicode="P" horiz-adv-x="612" 
d="M332 356q56 0 91 17t51.5 48t16.5 72q0 65 -37.5 101t-121.5 36h-167v-274h167zM570 493q0 -41 -13.5 -78.5t-42.5 -66.5t-74 -45.5t-108 -16.5h-167v-286h-80v700h247q82 0 134.5 -28t78 -75t25.5 -104z" />
    <glyph glyph-name="Q" unicode="Q" 
d="M353 163h80v-263h-80v263zM392 -7q-74 0 -137.5 26t-111 73.5t-74 113t-26.5 144.5t26.5 144.5t74 113t111 73.5t137.5 26q73 0 136.5 -26t110.5 -73.5t73.5 -113t26.5 -144.5t-26.5 -144.5t-73.5 -113t-110.5 -73.5t-136.5 -26zM392 63q75 0 135 35t95 99.5t35 152.5
q0 89 -35 153.5t-95 99t-135 34.5q-76 0 -136.5 -34.5t-95.5 -99t-35 -153.5q0 -88 35 -152.5t95.5 -99.5t136.5 -35z" />
    <glyph glyph-name="R" unicode="R" horiz-adv-x="625" 
d="M489 493q0 63 -37 100t-121 37h-166v-274h167q55 0 89.5 17t51 48t16.5 72zM331 700q82 0 134.5 -28t78.5 -74.5t26 -104.5q0 -41 -13.5 -78t-42.5 -66t-74 -46t-108 -17h-167v-286h-80v700h246zM389 316l194 -316h-91l-189 316h86z" />
    <glyph glyph-name="S" unicode="S" horiz-adv-x="574" 
d="M124 178q6 -27 25.5 -53.5t54 -44t88.5 -17.5q77 0 114 36t37 85q0 39 -21 64t-57 41.5t-81 29.5q-40 11 -79.5 24.5t-71.5 34t-51 53.5t-19 82q0 59 28 102.5t79 67.5t119 24q59 0 103 -17t73.5 -47.5t43.5 -70.5l-71 -27q-7 23 -27 44.5t-52 35.5t-73 14
q-40 0 -72.5 -14t-51.5 -40t-19 -63q0 -40 22.5 -63.5t60 -38t82.5 -27.5q41 -13 79.5 -28t69 -37t48.5 -55t18 -81q0 -53 -25 -98.5t-75.5 -73t-129.5 -27.5q-66 0 -116 20.5t-82 55.5t-44 80z" />
    <glyph glyph-name="T" unicode="T" horiz-adv-x="610" 
d="M43 700h525v-70h-222v-630h-80v630h-223v70z" />
    <glyph glyph-name="U" unicode="U" horiz-adv-x="697" 
d="M81 700h80v-442q0 -69 25 -112t67.5 -63t96.5 -20q53 0 95 20t67 63t25 112v442h80v-441q0 -69 -21.5 -119t-59.5 -82.5t-86 -48.5t-101 -16q-72 0 -133 28.5t-98 87.5t-37 150v441z" />
    <glyph glyph-name="V" unicode="V" horiz-adv-x="677" 
d="M563 700h85l-266 -700h-92l-262 700h85l225 -615z" />
    <glyph glyph-name="W" unicode="W" horiz-adv-x="971" 
d="M313 0h-88l-197 700h85l156 -603l172 603h89l171 -602l157 602h84l-197 -700h-88l-172 580z" />
    <glyph glyph-name="X" unicode="X" horiz-adv-x="708" 
d="M57 700h88l209 -286l209 286h89l-253 -350l253 -350h-89l-209 286l-209 -286h-88l252 350z" />
    <glyph glyph-name="Y" unicode="Y" horiz-adv-x="649" 
d="M531 700h89l-256 -431v-269h-80v268l-256 432h89l207 -355z" />
    <glyph glyph-name="Z" unicode="Z" horiz-adv-x="596" 
d="M536 637l-386 -567h390v-70h-483v63l385 567h-381v70h475v-63z" />
    <glyph glyph-name="bracketleft" unicode="[" horiz-adv-x="298" 
d="M81 800h166v-66h-91v-767h91v-67h-166v900z" />
    <glyph glyph-name="backslash" unicode="\" horiz-adv-x="320" 
d="M320 -100h-79l-241 900h79z" />
    <glyph glyph-name="bracketright" unicode="]" horiz-adv-x="298" 
d="M217 800v-900h-166v67h91v767h-91v66h166z" />
    <glyph glyph-name="asciicircum" unicode="^" horiz-adv-x="653" 
d="M326 602l-189 -352h-82l234 450h73l235 -450h-83z" />
    <glyph glyph-name="underscore" unicode="_" horiz-adv-x="515" 
d="M-2 -36h519v-74h-519v74z" />
    <glyph glyph-name="grave" unicode="`" horiz-adv-x="234" 
d="M13 775l208 -125v-60l-208 116v69z" />
    <glyph glyph-name="a" unicode="a" horiz-adv-x="528" 
d="M390 0l-6 90q-21 -46 -62 -71.5t-104 -25.5q-54 0 -92 17t-58.5 48.5t-20.5 74.5q0 63 47 103.5t136 49.5l154 17v40q0 42 -31 67.5t-84 25.5q-52 0 -86.5 -24t-47.5 -69l-68 24q20 66 73.5 103t130.5 37q89 0 138.5 -45.5t49.5 -123.5v-338h-69zM384 239l-155 -18
q-50 -6 -76 -27.5t-26 -56.5t25.5 -56t73.5 -21q55 0 90 22t51.5 59.5t16.5 81.5v16z" />
    <glyph glyph-name="b" unicode="b" horiz-adv-x="606" 
d="M144 399q22 46 69 77t119 31q69 0 120.5 -32t80 -89.5t28.5 -135.5t-29 -136t-80.5 -89.5t-119.5 -31.5t-113 29t-68 71l-5 -93h-69v720h75v-322zM480 250q0 86 -44.5 136.5t-119.5 50.5q-47 0 -84.5 -22.5t-58.5 -64t-21 -100.5t21 -101t58.5 -64t84.5 -22
q75 0 119.5 50.5t44.5 136.5z" />
    <glyph glyph-name="c" unicode="c" horiz-adv-x="556" 
d="M290 -7q-73 0 -128 32t-85.5 89.5t-30.5 133.5q0 77 30.5 135.5t85.5 91t128 32.5q77 0 135 -35.5t84 -98.5l-69 -24q-15 40 -54.5 63.5t-91.5 23.5q-51 0 -88.5 -23t-58 -65t-20.5 -99q0 -84 45 -134.5t120 -50.5q51 0 91 23t59 62l68 -24q-27 -62 -85 -97t-135 -35z
" />
    <glyph glyph-name="d" unicode="d" horiz-adv-x="606" 
d="M463 399l-8 -1v322h75v-720h-69l-5 93q-23 -42 -68.5 -71t-112.5 -29q-69 0 -120.5 31.5t-80 89.5t-28.5 136t28.5 135.5t80 89.5t120.5 32q71 0 118 -31t70 -77zM127 250q0 -86 44 -136.5t120 -50.5q47 0 84 22t58.5 64t21.5 101t-21.5 100.5t-58.5 64t-84 22.5
q-75 0 -119.5 -50.5t-44.5 -136.5z" />
    <glyph glyph-name="e" unicode="e" horiz-adv-x="564" 
d="M287 -7q-70 0 -124.5 34t-85.5 93t-31 135q0 73 31 130t85 89.5t123 32.5q68 0 121.5 -30t83.5 -83t28 -121q0 -11 -1 -23t-2 -26h-387q2 -47 23 -83t55.5 -56.5t78.5 -20.5q58 0 98.5 22t58.5 63l65 -26q-30 -63 -87 -96.5t-133 -33.5zM436 289q1 43 -18.5 76t-54.5 52
t-81 19q-40 0 -73 -19t-54.5 -52.5t-25.5 -75.5h307z" />
    <glyph glyph-name="f" unicode="f" horiz-adv-x="324" 
d="M104 559q0 55 18 93t57.5 55.5t105.5 12.5v-67q-60 5 -83 -19.5t-23 -74.5v-59h110v-70h-110v-430h-75v430h-70v70h70v59z" />
    <glyph glyph-name="g" unicode="g" horiz-adv-x="606" 
d="M461 500h69v-408q0 -92 -41 -157.5t-119 -100t-190 -34.5l-12 69q141 2 214 58.5t73 164.5v11l8 -2q-23 -44 -69 -75.5t-119 -32.5q-69 0 -120.5 31.5t-80 89.5t-28.5 136t28.5 135.5t80 89.5t120.5 32q45 0 80 -13.5t60 -36t41 -50.5zM127 250q0 -86 44.5 -136.5
t120.5 -50.5q46 0 83 22t58.5 64t21.5 101t-21.5 100.5t-58.5 64t-83 22.5q-75 0 -120 -51t-45 -136z" />
    <glyph glyph-name="h" unicode="h" horiz-adv-x="567" 
d="M77 720h75v-288q24 36 65 55.5t92 19.5q55 0 98 -25t67.5 -74t24.5 -122v-286h-80v277q0 78 -33 119.5t-96 41.5q-65 0 -101.5 -44t-36.5 -128v-266h-75v720z" />
    <glyph glyph-name="i" unicode="i" horiz-adv-x="258" 
d="M92 500h74v-500h-74v500zM130 600q-23 0 -38 15t-15 37q0 23 15 38t38 15q21 0 36.5 -15t15.5 -38q0 -22 -15.5 -37t-36.5 -15z" />
    <glyph glyph-name="j" unicode="j" horiz-adv-x="251" 
d="M88 13q0 -64 -32 -101.5t-90 -42.5l11 -69q50 2 92.5 27.5t68 72.5t25.5 112v488h-75v-487zM126 600q-22 0 -37.5 15t-15.5 37q0 23 15.5 38t37.5 15t37 -15t15 -38q0 -22 -15 -37t-37 -15z" />
    <glyph glyph-name="k" unicode="k" horiz-adv-x="518" 
d="M77 720h76v-437h46l197 217h106l-236 -250l237 -250h-107l-197 218h-46v-218h-76v720z" />
    <glyph glyph-name="l" unicode="l" horiz-adv-x="228" 
d="M77 720h75v-720h-75v720z" />
    <glyph glyph-name="m" unicode="m" horiz-adv-x="896" 
d="M77 500h69l5 -72q22 36 59.5 57.5t89.5 21.5q53 0 96.5 -25.5t67.5 -75.5q23 51 70 76t104 25q56 0 99 -24.5t67 -73t24 -121.5v-288h-75v279q0 78 -33.5 118.5t-95.5 40.5q-63 0 -100 -43.5t-37 -128.5v-266h-75v279q0 78 -32 118.5t-94 40.5q-63 0 -98.5 -43.5
t-35.5 -128.5v-266h-75v500z" />
    <glyph glyph-name="n" unicode="n" horiz-adv-x="563" 
d="M77 500h69l4 -71q24 37 63 57.5t91 20.5q57 0 100 -24.5t67 -73t24 -121.5v-288h-75v279q0 78 -33.5 118.5t-96.5 40.5q-65 0 -101.5 -43t-36.5 -127v-268h-75v500z" />
    <glyph glyph-name="o" unicode="o" horiz-adv-x="590" 
d="M293 -7q-71 0 -127 31t-88 88.5t-32 136.5q0 80 32.5 138t89 89t127.5 31t127.5 -31t89 -88.5t32.5 -136.5q0 -80 -33 -138t-90 -89t-128 -31zM292 64q44 0 83 19.5t63.5 61t24.5 105.5q0 65 -24 106t-62.5 60.5t-82.5 19.5t-82 -19.5t-61.5 -61t-23.5 -105.5
q0 -65 23 -106t60.5 -60.5t81.5 -19.5z" />
    <glyph glyph-name="p" unicode="p" horiz-adv-x="606" 
d="M144 101l8 1v-302h-75v700h69l5 -93q23 42 68 71t113 29q65 0 117 -31.5t82 -89t30 -136.5q0 -78 -28.5 -135.5t-80 -89.5t-120.5 -32q-72 0 -119 31t-69 77zM480 250q0 86 -44.5 136.5t-119.5 50.5q-47 0 -84.5 -22t-58.5 -64t-21 -101q0 -58 21 -100t58.5 -64.5
t84.5 -22.5q75 0 119.5 50.5t44.5 136.5z" />
    <glyph glyph-name="q" unicode="q" horiz-adv-x="606" 
d="M463 101q-23 -46 -70 -77t-118 -31q-69 0 -120.5 32t-80 89.5t-28.5 135.5q0 79 28.5 136.5t80 89t120.5 31.5q67 0 112.5 -29t68.5 -71l5 93h69v-700h-75v302zM127 250q0 -86 44.5 -136.5t119.5 -50.5q47 0 84 22.5t58.5 64.5t21.5 100q0 59 -21.5 101t-58.5 64t-84 22
q-76 0 -120 -50.5t-44 -136.5z" />
    <glyph glyph-name="r" unicode="r" horiz-adv-x="360" 
d="M77 500h69l4 -73q20 27 48.5 46t63 26.5t73.5 0.5v-75q-42 8 -75.5 0t-57.5 -30t-37 -55.5t-13 -77.5v-262h-75v500z" />
    <glyph glyph-name="s" unicode="s" horiz-adv-x="475" 
d="M118 153q6 -30 22 -49.5t41.5 -29.5t59.5 -10q53 0 80.5 20.5t27.5 51.5q0 26 -16.5 42t-43.5 26.5t-60 18.5q-26 6 -56 14.5t-57 23.5t-44 39t-17 63q0 43 23.5 75.5t65 50.5t95.5 18q62 0 110.5 -27t67.5 -84l-70 -24q-7 26 -25.5 40t-41 19t-44.5 5q-45 0 -72.5 -17.5
t-27.5 -52.5q0 -19 9 -31.5t25 -20.5t38 -13.5t48 -12.5q29 -7 59 -17.5t56 -27t42.5 -42t16.5 -63.5q0 -44 -24 -76.5t-66.5 -50.5t-98.5 -18q-77 0 -127.5 34.5t-67.5 101.5z" />
    <glyph glyph-name="t" unicode="t" horiz-adv-x="352" 
d="M109 500v140h75v-140h133v-70h-133v-269q0 -46 19.5 -67t50 -25t63.5 0v-65q-39 -9 -76.5 -5t-67 22.5t-47 52.5t-17.5 87v269h-75v70h75z" />
    <glyph glyph-name="u" unicode="u" horiz-adv-x="562" 
d="M486 0h-68l-5 72q-23 -38 -62 -58.5t-91 -20.5q-58 0 -101 24t-66.5 72t-23.5 121v290h74v-282q0 -77 33.5 -116.5t96.5 -39.5q64 0 101.5 41.5t37.5 125.5v271h74v-500z" />
    <glyph glyph-name="v" unicode="v" horiz-adv-x="527" 
d="M106 500l158 -416l159 416h79l-200 -500h-78l-198 500h80z" />
    <glyph glyph-name="w" unicode="w" horiz-adv-x="754" 
d="M251 0h-68l-157 500h76l115 -407l129 407h68l127 -406l114 406h74l-156 -500h-69l-126 388z" />
    <glyph glyph-name="x" unicode="x" horiz-adv-x="491" 
d="M31 500h86l128 -191l128 191h87l-173 -249l173 -251h-87l-128 193l-128 -193h-86l173 251z" />
    <glyph glyph-name="y" unicode="y" horiz-adv-x="513" 
d="M416 500h78l-286 -700h-72l85 207l-202 493h82l160 -404z" />
    <glyph glyph-name="z" unicode="z" horiz-adv-x="479" 
d="M425 435l-281 -365h284v-70h-378v65l281 365h-278v70h372v-65z" />
    <glyph glyph-name="braceleft" unicode="{" horiz-adv-x="377" 
d="M47 376q40 7 62.5 20.5t32 31.5t9.5 38q0 32 -5.5 69t-11 75.5t-5.5 72.5q0 59 41 88t106 29h54v-55h-39q-41 0 -62.5 -15.5t-21.5 -50.5q0 -32 5 -70t10.5 -75.5t5.5 -70.5q0 -41 -26 -71t-84 -41v-2q58 -10 84 -40t26 -71q0 -33 -5.5 -71t-10.5 -75.5t-5 -69.5
q0 -36 21.5 -51t62.5 -15h39v-56h-54q-65 0 -106 29.5t-41 87.5q0 35 5.5 73.5t11 76t5.5 68.5q0 20 -9.5 38t-32 31.5t-62.5 20.5v51z" />
    <glyph glyph-name="bar" unicode="|" horiz-adv-x="284" 
d="M182 800v-900h-80v900h80z" />
    <glyph glyph-name="braceright" unicode="}" horiz-adv-x="376" 
d="M330 376v-51q-40 -7 -63 -20.5t-32 -31.5t-9 -38q0 -31 5.5 -68.5t11 -76t5.5 -73.5q0 -58 -41 -87.5t-106 -29.5h-54v56h39q40 0 62 15t22 51q0 32 -5.5 69.5t-10.5 75.5t-5 71q0 41 26 71t84 40v2q-58 11 -84 41t-26 71q0 33 5 70.5t10.5 75.5t5.5 70q0 35 -22 50.5
t-62 15.5h-39v55h54q65 0 106 -29t41 -88q0 -34 -5.5 -72.5t-11 -75.5t-5.5 -69q0 -20 9 -38t32 -31.5t63 -20.5z" />
    <glyph glyph-name="asciitilde" unicode="~" horiz-adv-x="545" 
d="M60 282q12 69 46 103t86 34q27 0 49 -10t41 -23.5t38 -23.5t40 -10q26 0 44 18t22 48h60q-12 -70 -46 -103.5t-86 -33.5q-28 0 -49.5 10t-40.5 23.5t-37.5 23.5t-40.5 10q-27 0 -45 -18.5t-22 -47.5h-59z" />
    <glyph glyph-name="uni00A0" unicode="&#xa0;" horiz-adv-x="280" 
 />
    <glyph glyph-name="exclamdown" unicode="&#xa1;" horiz-adv-x="261" 
d="M131 561q22 0 38 -16t16 -39t-16 -39t-38 -16q-24 0 -39 16t-15 39t15 39t39 16zM85 -143l9 509h67l9 -509h-85z" />
    <glyph glyph-name="cent" unicode="&#xa2;" horiz-adv-x="556" 
d="M273 600h49v-128h-49v128zM273 51h49v-151h-49v151zM290 -7q-73 0 -128 32t-85.5 89.5t-30.5 133.5q0 77 30.5 135.5t85.5 91t128 32.5q77 0 135 -35.5t84 -98.5l-69 -24q-15 40 -54.5 63.5t-91.5 23.5q-51 0 -88.5 -23t-58 -65t-20.5 -99q0 -84 45 -134.5t120 -50.5
q51 0 91 23t59 62l68 -24q-27 -62 -85 -97t-135 -35z" />
    <glyph glyph-name="sterling" unicode="&#xa3;" horiz-adv-x="605" 
d="M338 707q70 0 116 -28t70.5 -74t27.5 -102h-73q-3 59 -38.5 98t-102.5 39q-37 0 -68.5 -14.5t-50 -46t-18.5 -82.5q0 -38 9 -70.5t20.5 -62.5t21 -60.5t9.5 -63.5q0 -51 -18.5 -93t-54.5 -81h366v-66h-438l-14 46q24 28 43 55.5t30 60.5t11 77q0 35 -9.5 63.5t-21.5 57
t-21 62.5t-9 79q0 63 26.5 109t74.5 71.5t112 25.5zM425 368v-57h-365v57h365z" />
    <glyph glyph-name="currency" unicode="&#xa4;" horiz-adv-x="539" 
d="M269 553q48 0 87.5 -21.5t63 -61t23.5 -93.5q0 -53 -23.5 -92.5t-63.5 -61.5t-88 -22q-50 0 -88.5 22t-60 61.5t-21.5 92.5q0 54 22.5 93.5t61 61t87.5 21.5zM269 502q-44 0 -74.5 -32.5t-30.5 -92.5t30.5 -92t73.5 -32q27 0 51.5 14.5t40 42t15.5 67.5t-15 68t-39 42.5
t-52 14.5zM151 465l-82 81l37 37l81 -81zM352 501l81 82l37 -37l-84 -84zM390 290l80 -79l-37 -38l-78 79zM189 256l-83 -83l-37 38l82 82z" />
    <glyph glyph-name="yen" unicode="&#xa5;" horiz-adv-x="649" 
d="M374 377h189v-59h-201zM84 225h479v-59h-479v59zM84 377h200l12 -59h-212v59zM531 700h89l-256 -431v-269h-80v268l-256 432h89l207 -355z" />
    <glyph glyph-name="brokenbar" unicode="&#xa6;" horiz-adv-x="283" 
d="M181 277v-377h-79v377h79zM102 425v375h79v-375h-79z" />
    <glyph glyph-name="section" unicode="&#xa7;" horiz-adv-x="460" 
d="M73 588q0 50 39.5 84.5t110.5 34.5q67 0 111 -33.5t47 -96.5h-60q-2 22 -12.5 41.5t-31.5 32t-54 12.5q-41 0 -66 -17.5t-25 -52.5q0 -21 11 -36.5t37.5 -29t73.5 -29.5q47 -15 82 -34t54 -46t19 -67q0 -34 -17 -63.5t-51.5 -49t-84.5 -24.5l5 22q32 -11 61 -26.5
t47 -38.5t18 -58q0 -50 -39 -85t-109 -35q-68 0 -112 33.5t-48 96.5h59q3 -23 14 -42.5t32 -31.5t55 -12q40 0 64 18t24 53q0 21 -10.5 36.5t-37 29.5t-73.5 29t-81.5 34t-54 46.5t-19.5 67.5q0 34 17.5 63.5t51.5 49t84 22.5l-6 -21q-32 12 -60.5 27t-46.5 38t-18 58z
M348 351q0 40 -32 67t-88 27t-86 -28.5t-30 -65.5q0 -40 31.5 -67.5t87.5 -27.5t86.5 28.5t30.5 66.5z" />
    <glyph glyph-name="dieresis" unicode="&#xa8;" horiz-adv-x="282" 
d="M62 622q-21 0 -35 14t-14 34t14 35t35 15q20 0 34.5 -15t14.5 -35t-14.5 -34t-34.5 -14zM220 622q-21 0 -35 14t-14 34t14 35t35 15q19 0 34 -15t15 -35t-15 -34t-34 -14z" />
    <glyph glyph-name="copyright" unicode="&#xa9;" horiz-adv-x="807" 
d="M404 707q103 0 180.5 -46t121 -126.5t43.5 -184.5t-43.5 -184.5t-121 -126.5t-180.5 -46t-181 46t-122 126.5t-44 184.5t44 184.5t122 126.5t181 46zM404 671q-94 0 -163 -41t-107 -113.5t-38 -166.5t38 -166.5t107 -113.5t163 -41t163 41t106 113.5t37 166.5t-37 166.5
t-106 113.5t-163 41zM400 90q-73 0 -128 32t-85.5 89.5t-30.5 134.5t30.5 135t85.5 90.5t128 32.5q77 0 135 -35.5t84 -98.5l-69 -24q-16 40 -55 63.5t-91 23.5q-51 0 -88.5 -23t-58 -65t-20.5 -98q0 -85 45 -135.5t120 -50.5q50 0 90.5 23t59.5 62l68 -24
q-27 -61 -85 -96.5t-135 -35.5z" />
    <glyph glyph-name="ordfeminine" unicode="&#xaa;" horiz-adv-x="450" 
d="M35 529q0 54 21.5 94.5t59 63t84.5 22.5q51 0 85 -21t50 -53v68h63v-350h-63v67q-15 -31 -49 -52t-84 -21q-48 0 -85.5 23.5t-59.5 64.5t-22 94zM100 529q0 -61 34.5 -96.5t81.5 -35.5q50 0 84.5 35t34.5 96q0 62 -34.5 96.5t-84.5 34.5q-47 0 -81.5 -34t-34.5 -96z" />
    <glyph glyph-name="guillemotleft" unicode="&#xab;" horiz-adv-x="446" 
d="M220 75h-79l-98 175l98 175h79l-101 -175zM395 75h-80l-97 175l97 175h80l-101 -175z" />
    <glyph glyph-name="logicalnot" unicode="&#xac;" horiz-adv-x="651" 
d="M38 431h562v-206h-78v142h-484v64z" />
    <glyph glyph-name="uni00AD" unicode="&#xad;" horiz-adv-x="504" 
d="M55 312h394v-68h-394v68z" />
    <glyph glyph-name="registered" unicode="&#xae;" horiz-adv-x="515" 
d="M57 505q0 58 26 103.5t71 72t103 26.5q59 0 104 -26.5t70.5 -72t25.5 -103.5t-25.5 -104t-70.5 -72.5t-104 -26.5q-58 0 -103 26.5t-71 72.5t-26 104zM96 505q0 -48 20 -85.5t56 -59t85 -21.5t85.5 21.5t56.5 59t20 85.5q0 49 -20 86t-56.5 58.5t-85.5 21.5t-85 -21.5
t-56 -58.5t-20 -86zM179 614v-215h47v82h47q33 0 53 18.5t20 48.5t-20 48t-53 18h-94zM298 399l56 1l-67 98h-51zM270 571q12 0 20.5 -5.5t8.5 -19.5q0 -13 -8.5 -19t-20.5 -6h-44v50h44z" />
    <glyph glyph-name="macron" unicode="&#xaf;" horiz-adv-x="371" 
d="M13 704h345v-60h-345v60z" />
    <glyph glyph-name="degree" unicode="&#xb0;" horiz-adv-x="394" 
d="M25 525q0 54 22.5 93t61 60.5t88.5 21.5t89 -21.5t60.5 -60.5t21.5 -93q0 -53 -22 -92.5t-61.5 -61t-89.5 -21.5q-75 0 -122.5 48t-47.5 127zM303 525q0 62 -31 94.5t-76 32.5t-76 -32.5t-31 -94.5t30.5 -94t75.5 -32t76.5 32t31.5 94z" />
    <glyph glyph-name="plusminus" unicode="&#xb1;" horiz-adv-x="747" 
d="M410 606v-460h-74v460h74zM119 426h509v-67h-509v67zM119 161h509v-67h-509v67z" />
    <glyph glyph-name="uni00B2" unicode="&#xb2;" horiz-adv-x="335" 
d="M38 599q3 46 34.5 77t92.5 31q37 0 64.5 -14.5t42 -39t14.5 -54.5q0 -27 -10 -48.5t-29.5 -41.5t-48.5 -44l-99 -83l-6 20h198v-52h-252v45l111 94q29 24 49 48.5t20 58.5q0 30 -16.5 45.5t-39.5 15.5q-27 0 -42 -15t-18 -43h-65z" />
    <glyph glyph-name="uni00B3" unicode="&#xb3;" horiz-adv-x="349" 
d="M41 610q3 28 20 50t45.5 34.5t67.5 12.5q35 0 64 -13.5t46.5 -36.5t17.5 -52q0 -31 -17.5 -51t-46.5 -28v-2q27 -8 46.5 -30t19.5 -55q0 -38 -36.5 -67t-97.5 -29q-57 0 -93 27t-39 78h63q4 -31 22.5 -44t46.5 -13q30 0 48 15.5t18 40.5q0 27 -19.5 42.5t-49.5 15.5h-45
v43h45q29 0 47.5 13.5t18.5 40.5q0 25 -17 40t-46 15q-30 0 -46.5 -13t-21.5 -34h-61z" />
    <glyph glyph-name="acute" unicode="&#xb4;" horiz-adv-x="234" 
d="M221 775v-70l-208 -115v60z" />
    <glyph glyph-name="uni00B5" unicode="&#xb5;" horiz-adv-x="598" 
d="M522 0h-79v82q-26 -46 -69 -68.5t-94 -22.5q-24 0 -47.5 6.5t-43.5 21t-33 39.5v-258h-79v700h79v-270q0 -85 40 -127.5t104 -42.5q63 0 103 41.5t40 126.5v272h79v-500z" />
    <glyph glyph-name="paragraph" unicode="&#xb6;" horiz-adv-x="597" 
d="M513 700v-700h-72v637h-82v-637h-71v297h-9q-81 0 -133.5 26.5t-77.5 72t-25 102.5t25 103t77.5 72.5t133.5 26.5h234z" />
    <glyph glyph-name="periodcentered" unicode="&#xb7;" horiz-adv-x="221" 
d="M111 288q-23 0 -38.5 16t-15.5 39t15.5 39t38.5 16q22 0 38 -16t16 -39t-16 -39t-38 -16z" />
    <glyph glyph-name="cedilla" unicode="&#xb8;" horiz-adv-x="252" 
d="M110 -63q38 1 67 -9.5t45.5 -32.5t16.5 -54q0 -30 -15.5 -52.5t-42.5 -35t-62 -12.5h-106v52h91q35 0 51.5 11.5t16.5 36.5q0 23 -16.5 34.5t-51.5 11.5h-49v120h55v-70z" />
    <glyph glyph-name="uni00B9" unicode="&#xb9;" horiz-adv-x="202" 
d="M82 650h-54v50h117v-350h-63v300z" />
    <glyph glyph-name="ordmasculine" unicode="&#xba;" horiz-adv-x="434" 
d="M34 527q0 56 24.5 96.5t65.5 63t93 22.5t93.5 -22.5t65 -63t23.5 -96.5q0 -54 -24 -95t-65.5 -63.5t-93.5 -22.5t-93 22.5t-65 63.5t-24 95zM333 527q0 65 -35 98t-82 33q-46 0 -81 -33t-35 -98q0 -63 34 -96.5t82 -33.5q47 0 82 33.5t35 96.5z" />
    <glyph glyph-name="guillemotright" unicode="&#xbb;" horiz-adv-x="445" 
d="M226 75l100 175l-100 175h79l98 -175l-98 -175h-79zM51 75l101 175l-101 175h79l98 -175l-98 -175h-79z" />
    <glyph glyph-name="onequarter" unicode="&#xbc;" horiz-adv-x="616" 
d="M440 700h75l-380 -700h-76zM582 113v-43h-48v-70h-64v70h-181v38l161 246h84v-241h48zM471 113v181l-117 -181h117zM82 650h-54v50h117v-350h-63v300z" />
    <glyph glyph-name="onehalf" unicode="&#xbd;" horiz-adv-x="668" 
d="M435 700h76l-380 -700h-75zM82 650h-54v50h117v-350h-63v300zM358 249q3 46 34.5 77t92.5 31q37 0 64.5 -14.5t42 -39t14.5 -54.5q0 -27 -10 -48.5t-29.5 -41.5t-48.5 -44l-99 -83l-6 20h198v-52h-252v45l111 94q29 24 49 48.5t20 58.5q0 30 -16.5 45.5t-39.5 15.5
q-27 0 -42 -15t-18 -43h-65z" />
    <glyph glyph-name="threequarters" unicode="&#xbe;" horiz-adv-x="693" 
d="M523 700h76l-380 -700h-75zM665 113v-43h-48v-70h-64v70h-181v38l161 246h84v-241h48zM554 113v181l-117 -181h117zM31 610q3 28 20 50t46 34.5t67 12.5q36 0 65 -13.5t46 -36.5t17 -52q0 -31 -17 -51t-47 -28v-2q28 -8 47 -30t19 -55q0 -38 -36 -67t-98 -29
q-57 0 -92.5 27t-39.5 78h63q5 -31 23.5 -44t45.5 -13q30 0 48 15.5t18 40.5q0 27 -19.5 42.5t-49.5 15.5h-45v43h45q30 0 48 13.5t18 40.5q0 25 -16.5 40t-46.5 15t-46 -13t-22 -34h-61z" />
    <glyph glyph-name="questiondown" unicode="&#xbf;" horiz-adv-x="548" 
d="M334 553q23 0 38.5 -16t15.5 -39t-15.5 -39t-38.5 -16t-38.5 16t-15.5 39t15.5 39t38.5 16zM276 -159q-65 0 -114.5 25t-77 71t-27.5 108q0 75 31.5 120.5t87 66.5t126.5 21l3 104h68l4 -159h-26q-44 0 -82 -5.5t-68 -21.5t-46.5 -46.5t-16.5 -79.5q0 -42 16.5 -71.5
t47.5 -45.5t74 -16q65 0 103.5 33.5t38.5 94.5h74q0 -60 -27 -105t-76 -69.5t-113 -24.5z" />
    <glyph glyph-name="Agrave" unicode="&#xc0;" horiz-adv-x="672" 
d="M223 939l208 -126v-60l-208 116v70zM354 630h-33l-231 -630h-81l256 700h144l255 -700h-81zM134 254h408v-70h-408v70z" />
    <glyph glyph-name="Aacute" unicode="&#xc1;" horiz-adv-x="672" 
d="M431 939v-71l-208 -115v60zM354 630h-33l-231 -630h-81l256 700h144l255 -700h-81zM134 254h408v-70h-408v70z" />
    <glyph glyph-name="Acircumflex" unicode="&#xc2;" horiz-adv-x="672" 
d="M473 764l-136 84l-136 -84v64l136 82l136 -82v-64zM354 630h-33l-231 -630h-81l256 700h144l255 -700h-81zM134 254h408v-70h-408v70z" />
    <glyph glyph-name="Atilde" unicode="&#xc3;" horiz-adv-x="672" 
d="M191 763q6 48 31 72t62 24q26 0 43.5 -11.5t33 -23t36.5 -11.5q16 0 28.5 10t15.5 31h47q-6 -47 -32 -71t-62 -24q-27 0 -45 11.5t-33 23t-35 11.5q-18 0 -29 -9.5t-14 -32.5h-47zM354 630h-33l-231 -630h-81l256 700h144l255 -700h-81zM134 254h408v-70h-408v70z" />
    <glyph glyph-name="Adieresis" unicode="&#xc4;" horiz-adv-x="672" 
d="M258 785q-21 0 -35 14t-14 34q0 21 14 35.5t35 14.5q20 0 34.5 -14.5t14.5 -35.5q0 -20 -14.5 -34t-34.5 -14zM416 785q-21 0 -35 14t-14 34q0 21 14 35.5t35 14.5q19 0 34 -14.5t15 -35.5q0 -20 -15 -34t-34 -14zM354 630h-33l-231 -630h-81l256 700h144l255 -700h-81z
M134 254h408v-70h-408v70z" />
    <glyph glyph-name="Aring" unicode="&#xc5;" horiz-adv-x="672" 
d="M441 854q0 -47 -31 -74.5t-73 -27.5q-43 0 -73.5 27.5t-30.5 74.5q0 48 30.5 76t73.5 28q42 0 73 -28t31 -76zM394 854q0 28 -16.5 43.5t-40.5 15.5t-40 -15.5t-16 -43.5q0 -26 16 -42t40 -16t40.5 16t16.5 42zM354 630h-33l-231 -630h-81l256 700h144l255 -700h-81z
M134 254h408v-70h-408v70z" />
    <glyph glyph-name="AE" unicode="&#xc6;" horiz-adv-x="892" 
d="M539 630v-239h198v-70h-198v-251h289v-70h-369v184h-258l-105 -184h-87l401 700h418v-70h-289zM240 254h219v382z" />
    <glyph glyph-name="Ccedilla" unicode="&#xc7;" horiz-adv-x="765" 
d="M423 -63q38 1 67 -10t45.5 -32.5t16.5 -53.5q0 -31 -15.5 -53.5t-42.5 -35t-62 -12.5h-106v53h91q35 0 51.5 11.5t16.5 36.5q0 23 -16.5 34.5t-51.5 11.5h-49v120h55v-70zM43 350q0 79 26 144.5t73.5 113t110 73.5t136.5 26q108 0 189.5 -50t123.5 -142l-65 -24
q-23 49 -61 80.5t-86 47.5t-101 16q-75 0 -135 -34t-94.5 -98t-34.5 -153q0 -88 34.5 -152t94.5 -98.5t135 -34.5q54 0 103 17t88.5 53t63.5 90l65 -24q-43 -103 -126 -155.5t-194 -52.5q-74 0 -136.5 26t-110 74t-73.5 113.5t-26 143.5z" />
    <glyph glyph-name="Egrave" unicode="&#xc8;" horiz-adv-x="609" 
d="M200 939l208 -126v-60l-208 116v70zM544 630h-379v-239h285v-70h-285v-251h379v-70h-459v700h459v-70z" />
    <glyph glyph-name="Eacute" unicode="&#xc9;" horiz-adv-x="609" 
d="M408 939v-71l-208 -115v60zM544 630h-379v-239h285v-70h-285v-251h379v-70h-459v700h459v-70z" />
    <glyph glyph-name="Ecircumflex" unicode="&#xca;" horiz-adv-x="609" 
d="M450 764l-136 84l-136 -84v64l136 82l136 -82v-64zM544 630h-379v-239h285v-70h-285v-251h379v-70h-459v700h459v-70z" />
    <glyph glyph-name="Edieresis" unicode="&#xcb;" horiz-adv-x="609" 
d="M235 785q-21 0 -35 14t-14 34q0 21 14 35.5t35 14.5q20 0 34.5 -14.5t14.5 -35.5q0 -20 -14.5 -34t-34.5 -14zM393 785q-21 0 -35 14t-14 34q0 21 14 35.5t35 14.5q20 0 34.5 -14.5t14.5 -35.5q0 -20 -14.5 -34t-34.5 -14zM544 630h-379v-239h285v-70h-285v-251h379v-70
h-459v700h459v-70z" />
    <glyph glyph-name="Igrave" unicode="&#xcc;" horiz-adv-x="250" 
d="M10 939l208 -126v-60l-208 116v70zM85 700h80v-700h-80v700z" />
    <glyph glyph-name="Iacute" unicode="&#xcd;" horiz-adv-x="250" 
d="M218 939v-71l-208 -115v60zM85 700h80v-700h-80v700z" />
    <glyph glyph-name="Icircumflex" unicode="&#xce;" horiz-adv-x="250" 
d="M260 764l-136 84l-136 -84v64l136 82l136 -82v-64zM85 700h80v-700h-80v700z" />
    <glyph glyph-name="Idieresis" unicode="&#xcf;" horiz-adv-x="250" 
d="M45 785q-21 0 -35 14t-14 34q0 21 14 35.5t35 14.5q20 0 34.5 -14.5t14.5 -35.5q0 -20 -14.5 -34t-34.5 -14zM203 785q-21 0 -35 14t-14 34q0 21 14 35.5t35 14.5q20 0 34.5 -14.5t14.5 -35.5q0 -20 -14.5 -34t-34.5 -14zM85 700h80v-700h-80v700z" />
    <glyph glyph-name="Eth" unicode="&#xd0;" horiz-adv-x="780" 
d="M65 385h90v315h213q116 0 198.5 -42.5t126.5 -121.5t44 -188q0 -108 -44 -186t-126.5 -120t-198.5 -42h-213v312h-90v73zM236 62h132q142 -1 215 76.5t73 209.5q0 133 -73 210t-215 77h-132v-250h198v-73h-198v-250z" />
    <glyph glyph-name="Ntilde" unicode="&#xd1;" horiz-adv-x="705" 
d="M215 763q7 48 31.5 72t61.5 24q27 0 44 -11.5t32.5 -23t36.5 -11.5q17 0 29 10t15 31h47q-6 -47 -31.5 -71t-62.5 -24q-27 0 -44.5 11.5t-33 23t-35.5 11.5q-17 0 -28.5 -9.5t-14.5 -32.5h-47zM620 700v-700h-81l-374 572v-572h-80v700h81l374 -571v571h80z" />
    <glyph glyph-name="Ograve" unicode="&#xd2;" 
d="M281 939l208 -126v-60l-208 116v70zM392 -7q-74 0 -137.5 26t-111 73.5t-74 113t-26.5 144.5t26.5 144.5t74 113t111 73.5t137.5 26q73 0 136.5 -26t110.5 -73.5t73.5 -113t26.5 -144.5t-26.5 -144.5t-73.5 -113t-110.5 -73.5t-136.5 -26zM392 63q75 0 135 35t95 99.5
t35 152.5q0 89 -35 153.5t-95 99t-135 34.5q-76 0 -136.5 -34.5t-95.5 -99t-35 -153.5q0 -88 35 -152.5t95.5 -99.5t136.5 -35z" />
    <glyph glyph-name="Oacute" unicode="&#xd3;" 
d="M489 939v-71l-208 -115v60zM392 -7q-74 0 -137.5 26t-111 73.5t-74 113t-26.5 144.5t26.5 144.5t74 113t111 73.5t137.5 26q73 0 136.5 -26t110.5 -73.5t73.5 -113t26.5 -144.5t-26.5 -144.5t-73.5 -113t-110.5 -73.5t-136.5 -26zM392 63q75 0 135 35t95 99.5t35 152.5
q0 89 -35 153.5t-95 99t-135 34.5q-76 0 -136.5 -34.5t-95.5 -99t-35 -153.5q0 -88 35 -152.5t95.5 -99.5t136.5 -35z" />
    <glyph glyph-name="Ocircumflex" unicode="&#xd4;" 
d="M531 764l-136 84l-136 -84v64l136 82l136 -82v-64zM392 -7q-74 0 -137.5 26t-111 73.5t-74 113t-26.5 144.5t26.5 144.5t74 113t111 73.5t137.5 26q73 0 136.5 -26t110.5 -73.5t73.5 -113t26.5 -144.5t-26.5 -144.5t-73.5 -113t-110.5 -73.5t-136.5 -26zM392 63
q75 0 135 35t95 99.5t35 152.5q0 89 -35 153.5t-95 99t-135 34.5q-76 0 -136.5 -34.5t-95.5 -99t-35 -153.5q0 -88 35 -152.5t95.5 -99.5t136.5 -35z" />
    <glyph glyph-name="Otilde" unicode="&#xd5;" 
d="M249 763q6 48 31 72t62 24q26 0 43.5 -11.5t33 -23t36.5 -11.5q16 0 28.5 10t15.5 31h47q-6 -47 -32 -71t-62 -24q-27 0 -45 11.5t-33 23t-35 11.5q-18 0 -29 -9.5t-14 -32.5h-47zM392 -7q-74 0 -137.5 26t-111 73.5t-74 113t-26.5 144.5t26.5 144.5t74 113t111 73.5
t137.5 26q73 0 136.5 -26t110.5 -73.5t73.5 -113t26.5 -144.5t-26.5 -144.5t-73.5 -113t-110.5 -73.5t-136.5 -26zM392 63q75 0 135 35t95 99.5t35 152.5q0 89 -35 153.5t-95 99t-135 34.5q-76 0 -136.5 -34.5t-95.5 -99t-35 -153.5q0 -88 35 -152.5t95.5 -99.5t136.5 -35z
" />
    <glyph glyph-name="Odieresis" unicode="&#xd6;" 
d="M316 785q-21 0 -35 14t-14 34q0 21 14 35.5t35 14.5q20 0 34.5 -14.5t14.5 -35.5q0 -20 -14.5 -34t-34.5 -14zM474 785q-21 0 -35 14t-14 34q0 21 14 35.5t35 14.5q19 0 34 -14.5t15 -35.5q0 -20 -15 -34t-34 -14zM392 -7q-74 0 -137.5 26t-111 73.5t-74 113t-26.5 144.5
t26.5 144.5t74 113t111 73.5t137.5 26q73 0 136.5 -26t110.5 -73.5t73.5 -113t26.5 -144.5t-26.5 -144.5t-73.5 -113t-110.5 -73.5t-136.5 -26zM392 63q75 0 135 35t95 99.5t35 152.5q0 89 -35 153.5t-95 99t-135 34.5q-76 0 -136.5 -34.5t-95.5 -99t-35 -153.5
q0 -88 35 -152.5t95.5 -99.5t136.5 -35z" />
    <glyph glyph-name="multiply" unicode="&#xd7;" horiz-adv-x="555" 
d="M117 564l375 -375l-51 -52l-375 376zM64 190l374 374l52 -52l-374 -374z" />
    <glyph glyph-name="Oslash" unicode="&#xd8;" 
d="M582 608l63 -34l-433 -471l-63 34zM392 -7q-74 0 -137.5 26t-111 73.5t-74 113t-26.5 144.5t26.5 144.5t74 113t111 73.5t137.5 26q73 0 136.5 -26t110.5 -73.5t73.5 -113t26.5 -144.5t-26.5 -144.5t-73.5 -113t-110.5 -73.5t-136.5 -26zM392 63q75 0 135 35t95 99.5
t35 152.5q0 89 -35 153.5t-95 99t-135 34.5q-76 0 -136.5 -34.5t-95.5 -99t-35 -153.5q0 -88 35 -152.5t95.5 -99.5t136.5 -35z" />
    <glyph glyph-name="Ugrave" unicode="&#xd9;" horiz-adv-x="697" 
d="M234 939l208 -126v-60l-208 116v70zM81 700h80v-442q0 -69 25 -112t67.5 -63t96.5 -20q53 0 95 20t67 63t25 112v442h80v-441q0 -69 -21.5 -119t-59.5 -82.5t-86 -48.5t-101 -16q-72 0 -133 28.5t-98 87.5t-37 150v441z" />
    <glyph glyph-name="Uacute" unicode="&#xda;" horiz-adv-x="697" 
d="M442 939v-71l-208 -115v60zM81 700h80v-442q0 -69 25 -112t67.5 -63t96.5 -20q53 0 95 20t67 63t25 112v442h80v-441q0 -69 -21.5 -119t-59.5 -82.5t-86 -48.5t-101 -16q-72 0 -133 28.5t-98 87.5t-37 150v441z" />
    <glyph glyph-name="Ucircumflex" unicode="&#xdb;" horiz-adv-x="697" 
d="M484 764l-136 84l-136 -84v64l136 82l136 -82v-64zM81 700h80v-442q0 -69 25 -112t67.5 -63t96.5 -20q53 0 95 20t67 63t25 112v442h80v-441q0 -69 -21.5 -119t-59.5 -82.5t-86 -48.5t-101 -16q-72 0 -133 28.5t-98 87.5t-37 150v441z" />
    <glyph glyph-name="Udieresis" unicode="&#xdc;" horiz-adv-x="697" 
d="M269 785q-21 0 -35 14t-14 34q0 21 14 35.5t35 14.5q20 0 34.5 -14.5t14.5 -35.5q0 -20 -14.5 -34t-34.5 -14zM427 785q-21 0 -35 14t-14 34q0 21 14 35.5t35 14.5q19 0 34 -14.5t15 -35.5q0 -20 -15 -34t-34 -14zM81 700h80v-442q0 -69 25 -112t67.5 -63t96.5 -20
q53 0 95 20t67 63t25 112v442h80v-441q0 -69 -21.5 -119t-59.5 -82.5t-86 -48.5t-101 -16q-72 0 -133 28.5t-98 87.5t-37 150v441z" />
    <glyph glyph-name="Yacute" unicode="&#xdd;" horiz-adv-x="649" 
d="M418 939v-71l-208 -115v60zM531 700h89l-256 -431v-269h-80v268l-256 432h89l207 -355z" />
    <glyph glyph-name="Thorn" unicode="&#xde;" horiz-adv-x="582" 
d="M302 213q84 0 120 37.5t36 99.5q0 65 -36 102t-120 37h-138v-276h138zM540 350q0 -55 -24.5 -100.5t-77 -73t-136.5 -27.5h-138v-149h-79v700h78v-148h139q82 0 134.5 -26.5t78 -72t25.5 -103.5z" />
    <glyph glyph-name="germandbls" unicode="&#xdf;" horiz-adv-x="620" 
d="M77 510q0 55 21.5 99.5t66.5 71t116 26.5q64 0 108 -21.5t66.5 -56t22.5 -74.5q0 -33 -13 -56t-32 -40t-38 -33t-33 -31.5t-14 -32.5q0 -19 20 -34t81 -34q67 -23 96.5 -63t29.5 -93q0 -65 -44.5 -105t-125.5 -40q-78 0 -128.5 43.5t-57.5 122.5h81q3 -47 30.5 -74.5
t74.5 -27.5q42 0 65.5 19.5t23.5 56.5q0 33 -20.5 58.5t-68.5 41.5q-74 24 -105.5 50.5t-31.5 69.5q0 37 21.5 62.5t47.5 47.5q24 20 42.5 39t18.5 48q0 41 -31.5 65.5t-85.5 24.5q-45 0 -74 -17.5t-42 -48.5t-13 -73v-501h-75v510z" />
    <glyph glyph-name="agrave" unicode="&#xe0;" horiz-adv-x="528" 
d="M164 715l188 -113v-54l-188 105v62zM390 0l-6 90q-21 -46 -62 -71.5t-104 -25.5q-54 0 -92 17t-58.5 48.5t-20.5 74.5q0 63 47 103.5t136 49.5l154 17v40q0 42 -31 67.5t-84 25.5q-52 0 -86.5 -24t-47.5 -69l-68 24q20 66 73.5 103t130.5 37q89 0 138.5 -45.5
t49.5 -123.5v-338h-69zM384 239l-155 -18q-50 -6 -76 -27.5t-26 -56.5t25.5 -56t73.5 -21q55 0 90 22t51.5 59.5t16.5 81.5v16z" />
    <glyph glyph-name="aacute" unicode="&#xe1;" horiz-adv-x="528" 
d="M352 715v-63l-188 -104v54zM390 0l-6 90q-21 -46 -62 -71.5t-104 -25.5q-54 0 -92 17t-58.5 48.5t-20.5 74.5q0 63 47 103.5t136 49.5l154 17v40q0 42 -31 67.5t-84 25.5q-52 0 -86.5 -24t-47.5 -69l-68 24q20 66 73.5 103t130.5 37q89 0 138.5 -45.5t49.5 -123.5v-338
h-69zM384 239l-155 -18q-50 -6 -76 -27.5t-26 -56.5t25.5 -56t73.5 -21q55 0 90 22t51.5 59.5t16.5 81.5v16z" />
    <glyph glyph-name="acircumflex" unicode="&#xe2;" horiz-adv-x="528" 
d="M390 558l-123 76l-123 -76v58l123 74l123 -74v-58zM390 0l-6 90q-21 -46 -62 -71.5t-104 -25.5q-54 0 -92 17t-58.5 48.5t-20.5 74.5q0 63 47 103.5t136 49.5l154 17v40q0 42 -31 67.5t-84 25.5q-52 0 -86.5 -24t-47.5 -69l-68 24q20 66 73.5 103t130.5 37
q89 0 138.5 -45.5t49.5 -123.5v-338h-69zM384 239l-155 -18q-50 -6 -76 -27.5t-26 -56.5t25.5 -56t73.5 -21q55 0 90 22t51.5 59.5t16.5 81.5v16z" />
    <glyph glyph-name="atilde" unicode="&#xe3;" horiz-adv-x="528" 
d="M135 557q7 43 29 65t55 22q24 0 40 -10.5t30 -21t32 -10.5q15 0 26.5 8.5t13.5 28.5h43q-6 -43 -29 -64.5t-56 -21.5q-25 0 -41 10.5t-29.5 21t-31.5 10.5q-16 0 -26 -9t-13 -29h-43zM390 0l-6 90q-21 -46 -62 -71.5t-104 -25.5q-54 0 -92 17t-58.5 48.5t-20.5 74.5
q0 63 47 103.5t136 49.5l154 17v40q0 42 -31 67.5t-84 25.5q-52 0 -86.5 -24t-47.5 -69l-68 24q20 66 73.5 103t130.5 37q89 0 138.5 -45.5t49.5 -123.5v-338h-69zM384 239l-155 -18q-50 -6 -76 -27.5t-26 -56.5t25.5 -56t73.5 -21q55 0 90 22t51.5 59.5t16.5 81.5v16z" />
    <glyph glyph-name="adieresis" unicode="&#xe4;" horiz-adv-x="528" 
d="M196 577q-19 0 -31.5 12.5t-12.5 30.5t12.5 31.5t31.5 13.5q18 0 31 -13.5t13 -31.5t-13 -30.5t-31 -12.5zM339 577q-19 0 -32 12.5t-13 30.5t13 31.5t32 13.5q17 0 30.5 -13.5t13.5 -31.5t-13.5 -30.5t-30.5 -12.5zM390 0l-6 90q-21 -46 -62 -71.5t-104 -25.5
q-54 0 -92 17t-58.5 48.5t-20.5 74.5q0 63 47 103.5t136 49.5l154 17v40q0 42 -31 67.5t-84 25.5q-52 0 -86.5 -24t-47.5 -69l-68 24q20 66 73.5 103t130.5 37q89 0 138.5 -45.5t49.5 -123.5v-338h-69zM384 239l-155 -18q-50 -6 -76 -27.5t-26 -56.5t25.5 -56t73.5 -21
q55 0 90 22t51.5 59.5t16.5 81.5v16z" />
    <glyph glyph-name="aring" unicode="&#xe5;" horiz-adv-x="528" 
d="M361 639q0 -43 -27.5 -67.5t-66.5 -24.5q-38 0 -66 24.5t-28 67.5t28 68t66 25q39 0 66.5 -25t27.5 -68zM319 639q0 25 -15 39t-37 14q-21 0 -35.5 -14t-14.5 -39q0 -24 14.5 -38t35.5 -14q22 0 37 14t15 38zM390 0l-6 90q-21 -46 -62 -71.5t-104 -25.5q-54 0 -92 17
t-58.5 48.5t-20.5 74.5q0 63 47 103.5t136 49.5l154 17v40q0 42 -31 67.5t-84 25.5q-52 0 -86.5 -24t-47.5 -69l-68 24q20 66 73.5 103t130.5 37q89 0 138.5 -45.5t49.5 -123.5v-338h-69zM384 239l-155 -18q-50 -6 -76 -27.5t-26 -56.5t25.5 -56t73.5 -21q55 0 90 22
t51.5 59.5t16.5 81.5v16z" />
    <glyph glyph-name="ae" unicode="&#xe6;" horiz-adv-x="898" 
d="M621 -7q-71 0 -123.5 32.5t-81.5 91.5t-29 138q0 118 61.5 185t170.5 67q74 0 126 -31t79.5 -83.5t27.5 -119.5q0 -10 -0.5 -22.5t-2.5 -26.5h-387q3 -54 24 -89.5t56 -53t77 -17.5q59 0 98.5 21t58.5 64l65 -26q-28 -58 -82 -94t-138 -36zM771 289q1 49 -19.5 81.5
t-55.5 49t-79 16.5q-39 0 -72.5 -16t-54.5 -48.5t-26 -82.5h307zM425 201l7 -76q-19 -50 -53.5 -79t-76.5 -41t-84 -12q-50 0 -88.5 16t-60.5 47.5t-22 77.5q0 40 16 67.5t42.5 45t59 27t65.5 12.5l154 18v39q0 35 -28 64t-87 29q-49 0 -85 -23t-49 -70l-68 24
q19 65 71.5 102.5t132.5 37.5q89 0 139.5 -46.5t50.5 -122.5v-88zM384 238l-154 -17q-53 -5 -78 -26.5t-25 -56.5q0 -40 29.5 -57.5t70.5 -17.5q49 0 84.5 21.5t54 58.5t18.5 81v14z" />
    <glyph glyph-name="ccedilla" unicode="&#xe7;" horiz-adv-x="556" 
d="M309 -53q35 1 61 -8.5t41 -29.5t15 -49q0 -27 -14 -47.5t-38.5 -31.5t-56.5 -11h-96v47h83q31 0 46 10.5t15 32.5q0 21 -15 31.5t-46 10.5h-45v108h50v-63zM290 -7q-73 0 -128 32t-85.5 89.5t-30.5 133.5q0 77 30.5 135.5t85.5 91t128 32.5q77 0 135 -35.5t84 -98.5
l-69 -24q-15 40 -54.5 63.5t-91.5 23.5q-51 0 -88.5 -23t-58 -65t-20.5 -99q0 -84 45 -134.5t120 -50.5q51 0 91 23t59 62l68 -24q-27 -62 -85 -97t-135 -35z" />
    <glyph glyph-name="egrave" unicode="&#xe8;" horiz-adv-x="564" 
d="M183 715l188 -113v-54l-188 105v62zM287 -7q-70 0 -124.5 34t-85.5 93t-31 135q0 73 31 130t85 89.5t123 32.5q68 0 121.5 -30t83.5 -83t28 -121q0 -11 -1 -23t-2 -26h-387q2 -47 23 -83t55.5 -56.5t78.5 -20.5q58 0 98.5 22t58.5 63l65 -26q-30 -63 -87 -96.5
t-133 -33.5zM436 289q1 43 -18.5 76t-54.5 52t-81 19q-40 0 -73 -19t-54.5 -52.5t-25.5 -75.5h307z" />
    <glyph glyph-name="eacute" unicode="&#xe9;" horiz-adv-x="564" 
d="M371 715v-63l-188 -104v54zM287 -7q-70 0 -124.5 34t-85.5 93t-31 135q0 73 31 130t85 89.5t123 32.5q68 0 121.5 -30t83.5 -83t28 -121q0 -11 -1 -23t-2 -26h-387q2 -47 23 -83t55.5 -56.5t78.5 -20.5q58 0 98.5 22t58.5 63l65 -26q-30 -63 -87 -96.5t-133 -33.5z
M436 289q1 43 -18.5 76t-54.5 52t-81 19q-40 0 -73 -19t-54.5 -52.5t-25.5 -75.5h307z" />
    <glyph glyph-name="ecircumflex" unicode="&#xea;" horiz-adv-x="564" 
d="M409 558l-123 76l-123 -76v58l123 74l123 -74v-58zM287 -7q-70 0 -124.5 34t-85.5 93t-31 135q0 73 31 130t85 89.5t123 32.5q68 0 121.5 -30t83.5 -83t28 -121q0 -11 -1 -23t-2 -26h-387q2 -47 23 -83t55.5 -56.5t78.5 -20.5q58 0 98.5 22t58.5 63l65 -26
q-30 -63 -87 -96.5t-133 -33.5zM436 289q1 43 -18.5 76t-54.5 52t-81 19q-40 0 -73 -19t-54.5 -52.5t-25.5 -75.5h307z" />
    <glyph glyph-name="edieresis" unicode="&#xeb;" horiz-adv-x="564" 
d="M215 577q-19 0 -32 12.5t-13 30.5t13 31.5t32 13.5q18 0 31 -13.5t13 -31.5t-13 -30.5t-31 -12.5zM357 577q-19 0 -31.5 12.5t-12.5 30.5t12.5 31.5t31.5 13.5q18 0 31.5 -13.5t13.5 -31.5t-13.5 -30.5t-31.5 -12.5zM287 -7q-70 0 -124.5 34t-85.5 93t-31 135
q0 73 31 130t85 89.5t123 32.5q68 0 121.5 -30t83.5 -83t28 -121q0 -11 -1 -23t-2 -26h-387q2 -47 23 -83t55.5 -56.5t78.5 -20.5q58 0 98.5 22t58.5 63l65 -26q-30 -63 -87 -96.5t-133 -33.5zM436 289q1 43 -18.5 76t-54.5 52t-81 19q-40 0 -73 -19t-54.5 -52.5
t-25.5 -75.5h307z" />
    <glyph glyph-name="igrave" unicode="&#xec;" horiz-adv-x="233" 
d="M14 713l187 -113v-54l-187 105v62zM77 500h80v-500h-80v500z" />
    <glyph glyph-name="iacute" unicode="&#xed;" horiz-adv-x="233" 
d="M201 713v-63l-187 -104v54zM77 500h80v-500h-80v500z" />
    <glyph glyph-name="icircumflex" unicode="&#xee;" horiz-adv-x="233" 
d="M239 556l-122 76l-123 -76v58l123 74l122 -74v-58zM77 500h80v-500h-80v500z" />
    <glyph glyph-name="idieresis" unicode="&#xef;" horiz-adv-x="233" 
d="M45 575q-19 0 -31.5 12.5t-12.5 30.5t12.5 31.5t31.5 13.5q18 0 31 -13.5t13 -31.5t-13 -30.5t-31 -12.5zM188 575q-19 0 -31.5 12.5t-12.5 30.5t12.5 31.5t31.5 13.5q17 0 30.5 -13.5t13.5 -31.5t-13.5 -30.5t-30.5 -12.5zM77 500h80v-500h-80v500z" />
    <glyph glyph-name="eth" unicode="&#xf0;" horiz-adv-x="596" 
d="M513 679v-48l-75 -26q56 -71 84 -153t28 -166q0 -97 -33 -162.5t-90.5 -98.5t-130.5 -33q-74 0 -130 32.5t-88 91.5t-32 138q0 77 32 134t87.5 88.5t126.5 31.5q34 0 65 -9t55.5 -28t42.5 -49q-13 38 -33 79t-50 82l-133 -45v48l103 35q-17 20 -37.5 40t-44.5 39h84
q33 -27 62 -57zM296 60q45 0 84.5 22t64 64.5t24.5 104.5q0 63 -24 105.5t-63.5 63.5t-84.5 21q-47 0 -85 -21.5t-61 -63t-23 -102.5q0 -63 22.5 -106.5t60.5 -65.5t85 -22z" />
    <glyph glyph-name="ntilde" unicode="&#xf1;" horiz-adv-x="563" 
d="M157 557q6 43 28 65t56 22q24 0 39.5 -10.5t29.5 -21t33 -10.5q15 0 26 8.5t13 28.5h43q-6 -43 -29 -64.5t-56 -21.5q-24 0 -40 10.5t-30 21t-32 10.5q-16 0 -26 -9t-13 -29h-42zM77 500h69l4 -71q24 37 63 57.5t91 20.5q57 0 100 -24.5t67 -73t24 -121.5v-288h-75v279
q0 78 -33.5 118.5t-96.5 40.5q-65 0 -101.5 -43t-36.5 -127v-268h-75v500z" />
    <glyph glyph-name="ograve" unicode="&#xf2;" horiz-adv-x="590" 
d="M196 715l188 -113v-54l-188 105v62zM293 -7q-71 0 -127 31t-88 88.5t-32 136.5q0 80 32.5 138t89 89t127.5 31t127.5 -31t89 -88.5t32.5 -136.5q0 -80 -33 -138t-90 -89t-128 -31zM292 64q44 0 83 19.5t63.5 61t24.5 105.5q0 65 -24 106t-62.5 60.5t-82.5 19.5t-82 -19.5
t-61.5 -61t-23.5 -105.5q0 -65 23 -106t60.5 -60.5t81.5 -19.5z" />
    <glyph glyph-name="oacute" unicode="&#xf3;" horiz-adv-x="590" 
d="M384 715v-63l-188 -104v54zM293 -7q-71 0 -127 31t-88 88.5t-32 136.5q0 80 32.5 138t89 89t127.5 31t127.5 -31t89 -88.5t32.5 -136.5q0 -80 -33 -138t-90 -89t-128 -31zM292 64q44 0 83 19.5t63.5 61t24.5 105.5q0 65 -24 106t-62.5 60.5t-82.5 19.5t-82 -19.5
t-61.5 -61t-23.5 -105.5q0 -65 23 -106t60.5 -60.5t81.5 -19.5z" />
    <glyph glyph-name="ocircumflex" unicode="&#xf4;" horiz-adv-x="590" 
d="M422 558l-123 76l-123 -76v58l123 74l123 -74v-58zM293 -7q-71 0 -127 31t-88 88.5t-32 136.5q0 80 32.5 138t89 89t127.5 31t127.5 -31t89 -88.5t32.5 -136.5q0 -80 -33 -138t-90 -89t-128 -31zM292 64q44 0 83 19.5t63.5 61t24.5 105.5q0 65 -24 106t-62.5 60.5
t-82.5 19.5t-82 -19.5t-61.5 -61t-23.5 -105.5q0 -65 23 -106t60.5 -60.5t81.5 -19.5z" />
    <glyph glyph-name="otilde" unicode="&#xf5;" horiz-adv-x="590" 
d="M167 557q6 43 28.5 65t55.5 22q24 0 39.5 -10.5t29.5 -21t33 -10.5q15 0 26 8.5t14 28.5h42q-5 -43 -28 -64.5t-57 -21.5q-24 0 -40 10.5t-30 21t-32 10.5q-15 0 -25.5 -9t-13.5 -29h-42zM293 -7q-71 0 -127 31t-88 88.5t-32 136.5q0 80 32.5 138t89 89t127.5 31
t127.5 -31t89 -88.5t32.5 -136.5q0 -80 -33 -138t-90 -89t-128 -31zM292 64q44 0 83 19.5t63.5 61t24.5 105.5q0 65 -24 106t-62.5 60.5t-82.5 19.5t-82 -19.5t-61.5 -61t-23.5 -105.5q0 -65 23 -106t60.5 -60.5t81.5 -19.5z" />
    <glyph glyph-name="odieresis" unicode="&#xf6;" horiz-adv-x="590" 
d="M228 577q-19 0 -32 12.5t-13 30.5t13 31.5t32 13.5q18 0 31 -13.5t13 -31.5t-13 -30.5t-31 -12.5zM370 577q-19 0 -31.5 12.5t-12.5 30.5t12.5 31.5t31.5 13.5q18 0 31.5 -13.5t13.5 -31.5t-13.5 -30.5t-31.5 -12.5zM293 -7q-71 0 -127 31t-88 88.5t-32 136.5
q0 80 32.5 138t89 89t127.5 31t127.5 -31t89 -88.5t32.5 -136.5q0 -80 -33 -138t-90 -89t-128 -31zM292 64q44 0 83 19.5t63.5 61t24.5 105.5q0 65 -24 106t-62.5 60.5t-82.5 19.5t-82 -19.5t-61.5 -61t-23.5 -105.5q0 -65 23 -106t60.5 -60.5t81.5 -19.5z" />
    <glyph glyph-name="divide" unicode="&#xf7;" horiz-adv-x="637" 
d="M64 384h510v-67h-510v67zM326 81q-23 0 -38.5 16t-15.5 39t15.5 39t38.5 16q22 0 38 -16t16 -39t-16 -39t-38 -16zM326 510q-23 0 -38.5 16t-15.5 39t15.5 39t38.5 16q22 0 38 -16t16 -39t-16 -39t-38 -16z" />
    <glyph glyph-name="oslash" unicode="&#xf8;" horiz-adv-x="590" 
d="M434 445l56 -38l-315 -346l-56 39zM293 -7q-71 0 -127 31t-88 88.5t-32 136.5q0 80 32.5 138t89 89t127.5 31t127.5 -31t89 -88.5t32.5 -136.5q0 -80 -33 -138t-90 -89t-128 -31zM292 64q44 0 83 19.5t63.5 61t24.5 105.5q0 65 -24 106t-62.5 60.5t-82.5 19.5t-82 -19.5
t-61.5 -61t-23.5 -105.5q0 -65 23 -106t60.5 -60.5t81.5 -19.5z" />
    <glyph glyph-name="ugrave" unicode="&#xf9;" horiz-adv-x="562" 
d="M169 715l188 -113v-54l-188 105v62zM486 0h-68l-5 72q-23 -38 -62 -58.5t-91 -20.5q-58 0 -101 24t-66.5 72t-23.5 121v290h74v-282q0 -77 33.5 -116.5t96.5 -39.5q64 0 101.5 41.5t37.5 125.5v271h74v-500z" />
    <glyph glyph-name="uacute" unicode="&#xfa;" horiz-adv-x="562" 
d="M357 715v-63l-188 -104v54zM486 0h-68l-5 72q-23 -38 -62 -58.5t-91 -20.5q-58 0 -101 24t-66.5 72t-23.5 121v290h74v-282q0 -77 33.5 -116.5t96.5 -39.5q64 0 101.5 41.5t37.5 125.5v271h74v-500z" />
    <glyph glyph-name="ucircumflex" unicode="&#xfb;" horiz-adv-x="562" 
d="M395 558l-123 76l-123 -76v58l123 74l123 -74v-58zM486 0h-68l-5 72q-23 -38 -62 -58.5t-91 -20.5q-58 0 -101 24t-66.5 72t-23.5 121v290h74v-282q0 -77 33.5 -116.5t96.5 -39.5q64 0 101.5 41.5t37.5 125.5v271h74v-500z" />
    <glyph glyph-name="udieresis" unicode="&#xfc;" horiz-adv-x="562" 
d="M200 577q-18 0 -31 12.5t-13 30.5t13 31.5t31 13.5q19 0 32 -13.5t13 -31.5t-13 -30.5t-32 -12.5zM343 577q-19 0 -31.5 12.5t-12.5 30.5t12.5 31.5t31.5 13.5q18 0 31 -13.5t13 -31.5t-13 -30.5t-31 -12.5zM486 0h-68l-5 72q-23 -38 -62 -58.5t-91 -20.5q-58 0 -101 24
t-66.5 72t-23.5 121v290h74v-282q0 -77 33.5 -116.5t96.5 -39.5q64 0 101.5 41.5t37.5 125.5v271h74v-500z" />
    <glyph glyph-name="yacute" unicode="&#xfd;" horiz-adv-x="513" 
d="M341 715v-63l-188 -104v54zM416 500h78l-286 -700h-72l85 207l-202 493h82l160 -404z" />
    <glyph glyph-name="thorn" unicode="&#xfe;" horiz-adv-x="623" 
d="M151 -213h-74v921h74v-310q23 48 70.5 79.5t116.5 31.5q68 0 122.5 -32t86 -89.5t31.5 -135.5t-31.5 -136.5t-86 -91t-122.5 -32.5q-44 0 -80.5 15t-63.5 41t-43 58v-319zM497 252q0 60 -23.5 101.5t-62.5 63.5t-87 22q-47 0 -86.5 -22.5t-63 -64.5t-23.5 -101
t23.5 -101.5t63 -65.5t86.5 -23q48 0 87 23t62.5 65.5t23.5 102.5z" />
    <glyph glyph-name="ydieresis" unicode="&#xff;" horiz-adv-x="513" 
d="M185 577q-19 0 -31.5 12.5t-12.5 30.5t12.5 31.5t31.5 13.5q18 0 31 -13.5t13 -31.5t-13 -30.5t-31 -12.5zM327 577q-18 0 -31 12.5t-13 30.5t13 31.5t31 13.5t31.5 -13.5t13.5 -31.5t-13.5 -30.5t-31.5 -12.5zM416 500h78l-286 -700h-72l85 207l-202 493h82l160 -404z
" />
    <glyph glyph-name="Amacron" unicode="&#x100;" horiz-adv-x="672" 
d="M165 857h345v-60h-345v60zM354 630h-33l-231 -630h-81l256 700h144l255 -700h-81zM134 254h408v-70h-408v70z" />
    <glyph glyph-name="amacron" unicode="&#x101;" horiz-adv-x="528" 
d="M112 642h312v-54h-312v54zM390 0l-6 90q-21 -46 -62 -71.5t-104 -25.5q-54 0 -92 17t-58.5 48.5t-20.5 74.5q0 63 47 103.5t136 49.5l154 17v40q0 42 -31 67.5t-84 25.5q-52 0 -86.5 -24t-47.5 -69l-68 24q20 66 73.5 103t130.5 37q89 0 138.5 -45.5t49.5 -123.5v-338
h-69zM384 239l-155 -18q-50 -6 -76 -27.5t-26 -56.5t25.5 -56t73.5 -21q55 0 90 22t51.5 59.5t16.5 81.5v16z" />
    <glyph glyph-name="Abreve" unicode="&#x102;" horiz-adv-x="672" 
d="M476 893q0 -35 -16 -63.5t-46.5 -45.5t-76.5 -17t-76.5 17.5t-46 46t-15.5 63.5v15h48q0 -37 21 -58t69 -21t69 21t21 58h49v-16zM354 630h-33l-231 -630h-81l256 700h144l255 -700h-81zM134 254h408v-70h-408v70z" />
    <glyph glyph-name="abreve" unicode="&#x103;" horiz-adv-x="528" 
d="M393 674q0 -31 -14 -57t-42 -41t-70 -15q-41 0 -68.5 15.5t-41.5 41.5t-14 57v14h43q0 -34 19 -53t62 -19q44 0 63 19t19 53h44v-15zM390 0l-6 90q-21 -46 -62 -71.5t-104 -25.5q-54 0 -92 17t-58.5 48.5t-20.5 74.5q0 63 47 103.5t136 49.5l154 17v40q0 42 -31 67.5
t-84 25.5q-52 0 -86.5 -24t-47.5 -69l-68 24q20 66 73.5 103t130.5 37q89 0 138.5 -45.5t49.5 -123.5v-338h-69zM384 239l-155 -18q-50 -6 -76 -27.5t-26 -56.5t25.5 -56t73.5 -21q55 0 90 22t51.5 59.5t16.5 81.5v16z" />
    <glyph glyph-name="Aogonek" unicode="&#x104;" horiz-adv-x="672" 
d="M618 42l21 -42l-57 -28q-34 -16 -48 -34t-14 -38q0 -24 17 -37t44 -13q14 0 31 3.5t33 9.5v-53q-16 -6 -35 -10t-38 -4q-29 0 -56.5 9.5t-44.5 31t-17 55.5q0 23 11 45t35.5 42.5t65.5 39.5zM354 630h-33l-231 -630h-81l256 700h144l255 -700h-81zM134 254h408v-70h-408
v70z" />
    <glyph glyph-name="aogonek" unicode="&#x105;" horiz-adv-x="528" 
d="M437 38l19 -38l-51 -25q-32 -16 -44 -32t-12 -33q0 -22 15 -33.5t39 -11.5q26 0 59 12v-48q-15 -6 -32.5 -9t-34.5 -3q-27 0 -51 8.5t-39.5 27t-15.5 49.5q0 32 23 60.5t78 54.5zM390 0l-6 90q-21 -46 -62 -71.5t-104 -25.5q-54 0 -92 17t-58.5 48.5t-20.5 74.5
q0 63 47 103.5t136 49.5l154 17v40q0 42 -31 67.5t-84 25.5q-52 0 -86.5 -24t-47.5 -69l-68 24q20 66 73.5 103t130.5 37q89 0 138.5 -45.5t49.5 -123.5v-338h-69zM384 239l-155 -18q-50 -6 -76 -27.5t-26 -56.5t25.5 -56t73.5 -21q55 0 90 22t51.5 59.5t16.5 81.5v16z" />
    <glyph glyph-name="Cacute" unicode="&#x106;" horiz-adv-x="765" 
d="M484 939v-71l-208 -115v60zM43 350q0 79 26 144.5t73.5 113t110 73.5t136.5 26q108 0 189.5 -50t123.5 -142l-65 -24q-23 49 -61 80.5t-86 47.5t-101 16q-75 0 -135 -34t-94.5 -98t-34.5 -153q0 -88 34.5 -152t94.5 -98.5t135 -34.5q54 0 103 17t88.5 53t63.5 90l65 -24
q-43 -103 -126 -155.5t-194 -52.5q-74 0 -136.5 26t-110 74t-73.5 113.5t-26 143.5z" />
    <glyph glyph-name="cacute" unicode="&#x107;" horiz-adv-x="556" 
d="M367 715v-63l-188 -104v54zM290 -7q-73 0 -128 32t-85.5 89.5t-30.5 133.5q0 77 30.5 135.5t85.5 91t128 32.5q77 0 135 -35.5t84 -98.5l-69 -24q-15 40 -54.5 63.5t-91.5 23.5q-51 0 -88.5 -23t-58 -65t-20.5 -99q0 -84 45 -134.5t120 -50.5q51 0 91 23t59 62l68 -24
q-27 -62 -85 -97t-135 -35z" />
    <glyph glyph-name="Ccircumflex" unicode="&#x108;" horiz-adv-x="765" 
d="M43 350q0 79 26 144.5t73.5 113t110 73.5t136.5 26q108 0 189.5 -50t123.5 -142l-65 -24q-23 49 -61 80.5t-86 47.5t-101 16q-75 0 -135 -34t-94.5 -98t-34.5 -153q0 -88 34.5 -152t94.5 -98.5t135 -34.5q54 0 103 17t88.5 53t63.5 90l65 -24q-43 -103 -126 -155.5
t-194 -52.5q-74 0 -136.5 26t-110 74t-73.5 113.5t-26 143.5zM526 764l-136 84l-136 -84v64l136 82l136 -82v-64z" />
    <glyph glyph-name="ccircumflex" unicode="&#x109;" horiz-adv-x="556" 
d="M290 -7q-73 0 -128 32t-85.5 89.5t-30.5 133.5q0 77 30.5 135.5t85.5 91t128 32.5q77 0 135 -35.5t84 -98.5l-69 -24q-15 40 -54.5 63.5t-91.5 23.5q-51 0 -88.5 -23t-58 -65t-20.5 -99q0 -84 45 -134.5t120 -50.5q51 0 91 23t59 62l68 -24q-27 -62 -85 -97t-135 -35z
M418 564l-136 84l-136 -84v64l136 82l136 -82v-64z" />
    <glyph glyph-name="Cdotaccent" unicode="&#x10a;" horiz-adv-x="765" 
d="M390 777q-21 0 -35 14t-14 34q0 21 14 35.5t35 14.5q20 0 34.5 -14.5t14.5 -35.5q0 -20 -14.5 -34t-34.5 -14zM43 350q0 79 26 144.5t73.5 113t110 73.5t136.5 26q108 0 189.5 -50t123.5 -142l-65 -24q-23 49 -61 80.5t-86 47.5t-101 16q-75 0 -135 -34t-94.5 -98
t-34.5 -153q0 -88 34.5 -152t94.5 -98.5t135 -34.5q54 0 103 17t88.5 53t63.5 90l65 -24q-43 -103 -126 -155.5t-194 -52.5q-74 0 -136.5 26t-110 74t-73.5 113.5t-26 143.5z" />
    <glyph glyph-name="cdotaccent" unicode="&#x10b;" horiz-adv-x="556" 
d="M282 570q-19 0 -31.5 12.5t-12.5 30.5t12.5 31.5t31.5 13.5q18 0 31 -13.5t13 -31.5t-13 -30.5t-31 -12.5zM290 -7q-73 0 -128 32t-85.5 89.5t-30.5 133.5q0 77 30.5 135.5t85.5 91t128 32.5q77 0 135 -35.5t84 -98.5l-69 -24q-15 40 -54.5 63.5t-91.5 23.5
q-51 0 -88.5 -23t-58 -65t-20.5 -99q0 -84 45 -134.5t120 -50.5q51 0 91 23t59 62l68 -24q-27 -62 -85 -97t-135 -35z" />
    <glyph glyph-name="Ccaron" unicode="&#x10c;" horiz-adv-x="765" 
d="M526 909v-64l-136 -82l-136 82v64l136 -84zM43 350q0 79 26 144.5t73.5 113t110 73.5t136.5 26q108 0 189.5 -50t123.5 -142l-65 -24q-23 49 -61 80.5t-86 47.5t-101 16q-75 0 -135 -34t-94.5 -98t-34.5 -153q0 -88 34.5 -152t94.5 -98.5t135 -34.5q54 0 103 17t88.5 53
t63.5 90l65 -24q-43 -103 -126 -155.5t-194 -52.5q-74 0 -136.5 26t-110 74t-73.5 113.5t-26 143.5z" />
    <glyph glyph-name="ccaron" unicode="&#x10d;" horiz-adv-x="556" 
d="M405 689v-58l-123 -74l-123 74v58l123 -76zM290 -7q-73 0 -128 32t-85.5 89.5t-30.5 133.5q0 77 30.5 135.5t85.5 91t128 32.5q77 0 135 -35.5t84 -98.5l-69 -24q-15 40 -54.5 63.5t-91.5 23.5q-51 0 -88.5 -23t-58 -65t-20.5 -99q0 -84 45 -134.5t120 -50.5q51 0 91 23
t59 62l68 -24q-27 -62 -85 -97t-135 -35z" />
    <glyph glyph-name="Dcaron" unicode="&#x10e;" horiz-adv-x="729" 
d="M474 909v-64l-136 -82l-136 82v64l136 -84zM316 700q116 0 198.5 -42.5t127 -121.5t44.5 -188q0 -108 -44.5 -186t-127 -120t-198.5 -42h-231v700h231zM316 70q143 0 216 73t73 205q0 133 -73 207.5t-216 74.5h-151v-560h151z" />
    <glyph glyph-name="dcaron" unicode="&#x10f;" horiz-adv-x="753" 
d="M667 675q5 -24 7.5 -44.5t2.5 -38.5q0 -52 -24.5 -76t-71.5 -24v42q24 0 34 11t10 33v18h-43v79h85zM463 399l-8 -1v322h75v-720h-69l-5 93q-23 -42 -68.5 -71t-112.5 -29q-69 0 -120.5 31.5t-80 89.5t-28.5 136t28.5 135.5t80 89.5t120.5 32q71 0 118 -31t70 -77z
M127 250q0 -86 44 -136.5t120 -50.5q47 0 84 22t58.5 64t21.5 101t-21.5 100.5t-58.5 64t-84 22.5q-75 0 -119.5 -50.5t-44.5 -136.5z" />
    <glyph glyph-name="Dcroat" unicode="&#x110;" horiz-adv-x="780" 
d="M65 385h90v315h213q116 0 198.5 -42.5t126.5 -121.5t44 -188q0 -108 -44 -186t-126.5 -120t-198.5 -42h-213v312h-90v73zM236 62h132q142 -1 215 76.5t73 209.5q0 133 -73 210t-215 77h-132v-250h198v-73h-198v-250z" />
    <glyph glyph-name="dcroat" unicode="&#x111;" horiz-adv-x="675" 
d="M347 603h252v-50h-252v50zM463 399l-8 -1v322h75v-720h-69l-5 93q-23 -42 -68.5 -71t-112.5 -29q-69 0 -120.5 31.5t-80 89.5t-28.5 136t28.5 135.5t80 89.5t120.5 32q71 0 118 -31t70 -77zM127 250q0 -86 44 -136.5t120 -50.5q47 0 84 22t58.5 64t21.5 101t-21.5 100.5
t-58.5 64t-84 22.5q-75 0 -119.5 -50.5t-44.5 -136.5z" />
    <glyph glyph-name="Emacron" unicode="&#x112;" horiz-adv-x="609" 
d="M142 857h345v-60h-345v60zM544 630h-379v-239h285v-70h-285v-251h379v-70h-459v700h459v-70z" />
    <glyph glyph-name="emacron" unicode="&#x113;" horiz-adv-x="564" 
d="M131 642h311v-54h-311v54zM287 -7q-70 0 -124.5 34t-85.5 93t-31 135q0 73 31 130t85 89.5t123 32.5q68 0 121.5 -30t83.5 -83t28 -121q0 -11 -1 -23t-2 -26h-387q2 -47 23 -83t55.5 -56.5t78.5 -20.5q58 0 98.5 22t58.5 63l65 -26q-30 -63 -87 -96.5t-133 -33.5z
M436 289q1 43 -18.5 76t-54.5 52t-81 19q-40 0 -73 -19t-54.5 -52.5t-25.5 -75.5h307z" />
    <glyph glyph-name="Ebreve" unicode="&#x114;" horiz-adv-x="609" 
d="M453 893q0 -35 -15.5 -63.5t-46.5 -45.5t-77 -17q-45 0 -76 17.5t-46.5 46t-15.5 63.5v15h48q0 -37 21 -58t69 -21t69 21t21 58h49v-16zM544 630h-379v-239h285v-70h-285v-251h379v-70h-459v700h459v-70z" />
    <glyph glyph-name="ebreve" unicode="&#x115;" horiz-adv-x="564" 
d="M411 674q0 -31 -14 -57t-42 -41t-69 -15t-69 15.5t-42 41.5t-14 57v14h44q0 -34 19 -53t62 -19t62 19t19 53h44v-15zM287 -7q-70 0 -124.5 34t-85.5 93t-31 135q0 73 31 130t85 89.5t123 32.5q68 0 121.5 -30t83.5 -83t28 -121q0 -11 -1 -23t-2 -26h-387q2 -47 23 -83
t55.5 -56.5t78.5 -20.5q58 0 98.5 22t58.5 63l65 -26q-30 -63 -87 -96.5t-133 -33.5zM436 289q1 43 -18.5 76t-54.5 52t-81 19q-40 0 -73 -19t-54.5 -52.5t-25.5 -75.5h307z" />
    <glyph glyph-name="Edotaccent" unicode="&#x116;" horiz-adv-x="609" 
d="M314 777q-21 0 -35 14t-14 34q0 21 14 35.5t35 14.5q20 0 34.5 -14.5t14.5 -35.5q0 -20 -14.5 -34t-34.5 -14zM544 630h-379v-239h285v-70h-285v-251h379v-70h-459v700h459v-70z" />
    <glyph glyph-name="edotaccent" unicode="&#x117;" horiz-adv-x="564" 
d="M286 570q-19 0 -31.5 12.5t-12.5 30.5t12.5 31.5t31.5 13.5q18 0 31 -13.5t13 -31.5t-13 -30.5t-31 -12.5zM287 -7q-70 0 -124.5 34t-85.5 93t-31 135q0 73 31 130t85 89.5t123 32.5q68 0 121.5 -30t83.5 -83t28 -121q0 -11 -1 -23t-2 -26h-387q2 -47 23 -83t55.5 -56.5
t78.5 -20.5q58 0 98.5 22t58.5 63l65 -26q-30 -63 -87 -96.5t-133 -33.5zM436 289q1 43 -18.5 76t-54.5 52t-81 19q-40 0 -73 -19t-54.5 -52.5t-25.5 -75.5h307z" />
    <glyph glyph-name="Eogonek" unicode="&#x118;" horiz-adv-x="609" 
d="M473 42l21 -42l-57 -28q-35 -17 -48.5 -35t-13.5 -37q0 -24 16.5 -36.5t43.5 -12.5q15 0 32 3.5t33 9.5v-53q-16 -7 -35.5 -10.5t-38.5 -3.5q-29 0 -56 9t-44 30t-17 56q0 23 11 45t35.5 42.5t65.5 39.5zM544 630h-379v-239h285v-70h-285v-251h379v-70h-459v700h459v-70z
" />
    <glyph glyph-name="eogonek" unicode="&#x119;" horiz-adv-x="564" 
d="M337 40l19 -38l-52 -25q-31 -16 -43.5 -32t-12.5 -33q0 -22 15 -33.5t40 -11.5q26 0 58 12v-48q-15 -6 -32.5 -9t-34.5 -3q-26 0 -50.5 8.5t-39.5 27t-15 49.5q0 32 22.5 60.5t78.5 54.5zM287 -7q-70 0 -124.5 34t-85.5 93t-31 135q0 73 31 130t85 89.5t123 32.5
q68 0 121.5 -30t83.5 -83t28 -121q0 -11 -1 -23t-2 -26h-387q2 -47 23 -83t55.5 -56.5t78.5 -20.5q58 0 98.5 22t58.5 63l65 -26q-30 -63 -87 -96.5t-133 -33.5zM436 289q1 43 -18.5 76t-54.5 52t-81 19q-40 0 -73 -19t-54.5 -52.5t-25.5 -75.5h307z" />
    <glyph glyph-name="Ecaron" unicode="&#x11a;" horiz-adv-x="609" 
d="M450 909v-64l-136 -82l-136 82v64l136 -84zM544 630h-379v-239h285v-70h-285v-251h379v-70h-459v700h459v-70z" />
    <glyph glyph-name="ecaron" unicode="&#x11b;" horiz-adv-x="564" 
d="M409 689v-58l-123 -74l-123 74v58l123 -76zM287 -7q-70 0 -124.5 34t-85.5 93t-31 135q0 73 31 130t85 89.5t123 32.5q68 0 121.5 -30t83.5 -83t28 -121q0 -11 -1 -23t-2 -26h-387q2 -47 23 -83t55.5 -56.5t78.5 -20.5q58 0 98.5 22t58.5 63l65 -26q-30 -63 -87 -96.5
t-133 -33.5zM436 289q1 43 -18.5 76t-54.5 52t-81 19q-40 0 -73 -19t-54.5 -52.5t-25.5 -75.5h307z" />
    <glyph glyph-name="Gcircumflex" unicode="&#x11c;" horiz-adv-x="770" 
d="M633 490q-38 75 -101 110.5t-140 35.5q-76 0 -137 -35t-96 -99t-35 -152q0 -87 35 -151t96 -99t137 -35q57 0 106 19.5t85 56t55 87.5v81h-240v65h321v-150q-23 -67 -70 -119t-113 -82t-144 -30q-74 0 -137.5 26t-111 73.5t-74 113t-26.5 144.5t26.5 144.5t74 113
t111 73.5t137.5 26q69 0 129.5 -22.5t107.5 -65t74 -103.5zM529 764l-136 84l-136 -84v64l136 82l136 -82v-64z" />
    <glyph glyph-name="gcircumflex" unicode="&#x11d;" horiz-adv-x="606" 
d="M461 500h69v-408q0 -92 -41 -157.5t-119 -100t-190 -34.5l-12 69q141 2 214 58.5t73 164.5v11l8 -2q-23 -44 -69 -75.5t-119 -32.5q-69 0 -120.5 31.5t-80 89.5t-28.5 136t28.5 135.5t80 89.5t120.5 32q45 0 80 -13.5t60 -36t41 -50.5zM127 250q0 -86 44.5 -136.5
t120.5 -50.5q46 0 83 22t58.5 64t21.5 101t-21.5 100.5t-58.5 64t-83 22.5q-75 0 -120 -51t-45 -136zM434 564l-136 84l-136 -84v64l136 82l136 -82v-64z" />
    <glyph glyph-name="Gbreve" unicode="&#x11e;" horiz-adv-x="770" 
d="M532 893q0 -35 -16 -63.5t-46.5 -45.5t-76.5 -17t-76.5 17.5t-46 46t-15.5 63.5v15h48q0 -37 21 -58t69 -21t69 21t21 58h49v-16zM633 490q-38 75 -101 110.5t-140 35.5q-76 0 -137 -35t-96 -99t-35 -152q0 -87 35 -151t96 -99t137 -35q57 0 106 19.5t85 56t55 87.5v81
h-240v65h321v-150q-23 -67 -70 -119t-113 -82t-144 -30q-74 0 -137.5 26t-111 73.5t-74 113t-26.5 144.5t26.5 144.5t74 113t111 73.5t137.5 26q69 0 129.5 -22.5t107.5 -65t74 -103.5z" />
    <glyph glyph-name="gbreve" unicode="&#x11f;" horiz-adv-x="606" 
d="M423 674q0 -31 -14 -57t-42 -41t-69 -15t-69 15.5t-42 41.5t-14 57v14h44q0 -34 19 -53t62 -19t62 19t19 53h44v-15zM461 500h69v-408q0 -92 -41 -157.5t-119 -100t-190 -34.5l-12 69q141 2 214 58.5t73 164.5v11l8 -2q-23 -44 -69 -75.5t-119 -32.5q-69 0 -120.5 31.5
t-80 89.5t-28.5 136t28.5 135.5t80 89.5t120.5 32q45 0 80 -13.5t60 -36t41 -50.5zM127 250q0 -86 44.5 -136.5t120.5 -50.5q46 0 83 22t58.5 64t21.5 101t-21.5 100.5t-58.5 64t-83 22.5q-75 0 -120 -51t-45 -136z" />
    <glyph glyph-name="Gdotaccent" unicode="&#x120;" horiz-adv-x="770" 
d="M393 777q-21 0 -35 14t-14 34q0 21 14 35.5t35 14.5q20 0 34.5 -14.5t14.5 -35.5q0 -20 -14.5 -34t-34.5 -14zM633 490q-38 75 -101 110.5t-140 35.5q-76 0 -137 -35t-96 -99t-35 -152q0 -87 35 -151t96 -99t137 -35q57 0 106 19.5t85 56t55 87.5v81h-240v65h321v-150
q-23 -67 -70 -119t-113 -82t-144 -30q-74 0 -137.5 26t-111 73.5t-74 113t-26.5 144.5t26.5 144.5t74 113t111 73.5t137.5 26q69 0 129.5 -22.5t107.5 -65t74 -103.5z" />
    <glyph glyph-name="gdotaccent" unicode="&#x121;" horiz-adv-x="606" 
d="M298 570q-19 0 -31.5 12.5t-12.5 30.5t12.5 31.5t31.5 13.5q18 0 31 -13.5t13 -31.5t-13 -30.5t-31 -12.5zM461 500h69v-408q0 -92 -41 -157.5t-119 -100t-190 -34.5l-12 69q141 2 214 58.5t73 164.5v11l8 -2q-23 -44 -69 -75.5t-119 -32.5q-69 0 -120.5 31.5t-80 89.5
t-28.5 136t28.5 135.5t80 89.5t120.5 32q45 0 80 -13.5t60 -36t41 -50.5zM127 250q0 -86 44.5 -136.5t120.5 -50.5q46 0 83 22t58.5 64t21.5 101t-21.5 100.5t-58.5 64t-83 22.5q-75 0 -120 -51t-45 -136z" />
    <glyph glyph-name="uni0122" unicode="&#x122;" horiz-adv-x="770" 
d="M432 -51q5 -20 7.5 -39t2.5 -35q0 -60 -25 -85.5t-70 -25.5v38q25 0 36 14t11 41v17h-45v75h83zM633 490q-38 75 -101 110.5t-140 35.5q-76 0 -137 -35t-96 -99t-35 -152q0 -87 35 -151t96 -99t137 -35q57 0 106 19.5t85 56t55 87.5v81h-240v65h321v-150
q-23 -67 -70 -119t-113 -82t-144 -30q-74 0 -137.5 26t-111 73.5t-74 113t-26.5 144.5t26.5 144.5t74 113t111 73.5t137.5 26q69 0 129.5 -22.5t107.5 -65t74 -103.5z" />
    <glyph glyph-name="uni0123" unicode="&#x123;" horiz-adv-x="606" 
d="M263 538q-5 25 -7 45.5t-2 37.5q0 53 24 76.5t70 23.5v-42q-23 0 -33 -11t-10 -33v-17h42v-80h-84zM461 500h69v-408q0 -92 -41 -157.5t-119 -100t-190 -34.5l-12 69q141 2 214 58.5t73 164.5v11l8 -2q-23 -44 -69 -75.5t-119 -32.5q-69 0 -120.5 31.5t-80 89.5
t-28.5 136t28.5 135.5t80 89.5t120.5 32q45 0 80 -13.5t60 -36t41 -50.5zM127 250q0 -86 44.5 -136.5t120.5 -50.5q46 0 83 22t58.5 64t21.5 101t-21.5 100.5t-58.5 64t-83 22.5q-75 0 -120 -51t-45 -136z" />
    <glyph glyph-name="Hcircumflex" unicode="&#x124;" horiz-adv-x="705" 
d="M85 700h80v-309h375v309h80v-700h-80v321h-375v-321h-80v700zM489 764l-136 84l-136 -84v64l136 82l136 -82v-64z" />
    <glyph glyph-name="hcircumflex" unicode="&#x125;" horiz-adv-x="567" 
d="M77 720h75v-288q24 36 65 55.5t92 19.5q55 0 98 -25t67.5 -74t24.5 -122v-286h-80v277q0 78 -33 119.5t-96 41.5q-65 0 -101.5 -44t-36.5 -128v-266h-75v720zM249 783l-136 84l-136 -84v64l136 82l136 -82v-64z" />
    <glyph glyph-name="Itilde" unicode="&#x128;" horiz-adv-x="250" 
d="M-22 763q7 48 31.5 72t61.5 24q27 0 44 -11.5t32.5 -23t36.5 -11.5q17 0 29 10t15 31h47q-6 -47 -31.5 -71t-62.5 -24q-27 0 -44.5 11.5t-33 23t-35.5 11.5q-17 0 -28.5 -9.5t-14.5 -32.5h-47zM85 700h80v-700h-80v700z" />
    <glyph glyph-name="itilde" unicode="&#x129;" horiz-adv-x="233" 
d="M-15 555q6 43 28 65t56 22q24 0 39.5 -10.5t29.5 -21t33 -10.5q15 0 26 8.5t13 28.5h43q-6 -43 -29 -64.5t-56 -21.5q-24 0 -40 10.5t-30 21t-32 10.5q-16 0 -26 -9t-13 -29h-42zM77 500h80v-500h-80v500z" />
    <glyph glyph-name="Imacron" unicode="&#x12a;" horiz-adv-x="250" 
d="M-48 857h345v-60h-345v60zM85 700h80v-700h-80v700z" />
    <glyph glyph-name="imacron" unicode="&#x12b;" horiz-adv-x="233" 
d="M-39 640h312v-54h-312v54zM77 500h80v-500h-80v500z" />
    <glyph glyph-name="Ibreve" unicode="&#x12c;" horiz-adv-x="250" 
d="M263 893q0 -35 -15.5 -63.5t-46.5 -45.5t-77 -17q-45 0 -76 17.5t-46.5 46t-15.5 63.5v15h48q0 -37 21 -58t69 -21t69 21t21 58h49v-16zM85 700h80v-700h-80v700z" />
    <glyph glyph-name="ibreve" unicode="&#x12d;" horiz-adv-x="233" 
d="M242 672q0 -31 -14 -57t-42 -41t-69 -15q-42 0 -69.5 15.5t-41.5 41.5t-14 57v14h43q0 -34 19 -53t63 -19q43 0 62 19t19 53h44v-15zM77 500h80v-500h-80v500z" />
    <glyph glyph-name="Iogonek" unicode="&#x12e;" horiz-adv-x="250" 
d="M143 43l21 -42l-57 -28q-35 -17 -48.5 -35t-13.5 -37q0 -24 16.5 -36.5t43.5 -12.5q15 0 32 3.5t33 9.5v-53q-16 -7 -35.5 -10.5t-38.5 -3.5q-29 0 -56 9t-44 30t-17 56q0 23 11 45t35.5 42.5t65.5 39.5zM85 700h80v-700h-80v700z" />
    <glyph glyph-name="iogonek" unicode="&#x12f;" horiz-adv-x="258" 
d="M145 42l18 -38l-51 -25q-32 -16 -44 -32t-12 -33q0 -22 15 -33.5t39 -11.5q27 0 59 12v-48q-15 -6 -32.5 -9t-34.5 -3q-27 0 -51 8.5t-39.5 27t-15.5 49.5q0 32 23 60.5t79 54.5zM92 500h74v-500h-74v500zM130 600q-23 0 -38 15t-15 37q0 23 15 38t38 15q21 0 36.5 -15
t15.5 -38q0 -22 -15.5 -37t-36.5 -15z" />
    <glyph glyph-name="Idotaccent" unicode="&#x130;" horiz-adv-x="250" 
d="M124 777q-21 0 -35 14t-14 34q0 21 14 35.5t35 14.5q20 0 34.5 -14.5t14.5 -35.5q0 -20 -14.5 -34t-34.5 -14zM85 700h80v-700h-80v700z" />
    <glyph glyph-name="dotlessi" unicode="&#x131;" horiz-adv-x="233" 
d="M77 500h80v-500h-80v500z" />
    <glyph glyph-name="Jcircumflex" unicode="&#x134;" horiz-adv-x="508" 
d="M347 700h80v-517q0 -55 -24 -98t-66.5 -67.5t-99.5 -24.5q-72 0 -118 36.5t-63 100.5l69 25q7 -26 20.5 -47t36 -33t55.5 -12q39 0 63 18t35.5 45.5t11.5 56.5v517zM525 764l-136 84l-136 -84v64l136 82l136 -82v-64z" />
    <glyph glyph-name="jcircumflex" unicode="&#x135;" horiz-adv-x="341" 
d="M88 13q0 -64 -32 -101.5t-90 -42.5l11 -69q38 2 72 15.5t61 39.5t42.5 65t15.5 92v488h-80v-487zM269 591l-136 84l-136 -84v64l136 82l136 -82v-64z" />
    <glyph glyph-name="uni0136" unicode="&#x136;" horiz-adv-x="607" 
d="M329 -51q5 -20 7.5 -39t2.5 -35q0 -60 -25 -85.5t-70 -25.5v38q25 0 35.5 14t10.5 41v17h-44v75h83zM85 700h80v-309h34l289 309h103l-322 -344l325 -356h-106l-290 321h-33v-321h-80v700z" />
    <glyph glyph-name="uni0137" unicode="&#x137;" horiz-adv-x="518" 
d="M270 -39q4 -19 6 -37t2 -33q0 -55 -24.5 -79t-68.5 -24v41q17 0 26 7t13 19q2 4 2 7.5t1 7.5v17h-41v74h84zM77 720h76v-437h46l197 217h106l-236 -250l237 -250h-107l-197 218h-46v-218h-76v720z" />
    <glyph glyph-name="Lacute" unicode="&#x139;" horiz-adv-x="520" 
d="M314 939v-71l-208 -115v60zM165 700v-630h327v-70h-407v700h80z" />
    <glyph glyph-name="lacute" unicode="&#x13a;" horiz-adv-x="228" 
d="M201 935v-63l-187 -104v54zM77 720h75v-720h-75v720z" />
    <glyph glyph-name="uni013B" unicode="&#x13b;" horiz-adv-x="520" 
d="M282 -51q5 -20 7.5 -39t2.5 -35q0 -60 -25 -85.5t-71 -25.5v38q26 0 36.5 14t10.5 41v17h-45v75h84zM165 700v-630h327v-70h-407v700h80z" />
    <glyph glyph-name="uni013C" unicode="&#x13c;" horiz-adv-x="247" 
d="M163 -39q3 -19 5.5 -37t2.5 -33q0 -55 -24.5 -79t-69.5 -24v41q22 0 32.5 12.5t10.5 34.5v11h-41v74h84zM88 720h75v-720h-75v720z" />
    <glyph glyph-name="Lcaron" unicode="&#x13d;" horiz-adv-x="520" 
d="M359 700q6 -25 8 -46.5t2 -40.5q0 -57 -24.5 -83t-70.5 -26v39q26 0 36.5 13.5t10.5 40.5v23h-48v80h86zM165 700v-630h327v-70h-407v700h80z" />
    <glyph glyph-name="lcaron" unicode="&#x13e;" horiz-adv-x="378" 
d="M290 720q6 -25 8.5 -45t2.5 -38q0 -52 -24.5 -76t-70.5 -24v42q23 0 32.5 11t9.5 33v18h-42v79h84zM77 720h75v-720h-75v720z" />
    <glyph glyph-name="Ldot" unicode="&#x13f;" horiz-adv-x="440" 
d="M85 0v700h79v-635h248v-65h-327zM347 328q-21 0 -35 14t-14 35q0 20 14 34t35 14q20 0 34.5 -14t14.5 -34q0 -21 -14.5 -35t-34.5 -14z" />
    <glyph glyph-name="ldot" unicode="&#x140;" horiz-adv-x="255" 
d="M77 0v708h80v-708h-80zM246 288q-21 0 -34.5 14t-13.5 34q0 19 13.5 33t34.5 14q19 0 33.5 -14t14.5 -33q0 -20 -14.5 -34t-33.5 -14z" />
    <glyph glyph-name="Lslash" unicode="&#x141;" horiz-adv-x="523" 
d="M85 347l83 32v321h80v-291l118 45v-63l-118 -45v-284h247v-62h-327v316l-83 -31v62z" />
    <glyph glyph-name="lslash" unicode="&#x142;" horiz-adv-x="227" 
d="M8 359l212 88v-64l-212 -88v64zM74 708h80v-708h-80v708z" />
    <glyph glyph-name="Nacute" unicode="&#x143;" horiz-adv-x="705" 
d="M455 939v-71l-208 -115v60zM620 700v-700h-81l-374 572v-572h-80v700h81l374 -571v571h80z" />
    <glyph glyph-name="nacute" unicode="&#x144;" horiz-adv-x="563" 
d="M373 715v-63l-187 -104v54zM77 500h69l4 -71q24 37 63 57.5t91 20.5q57 0 100 -24.5t67 -73t24 -121.5v-288h-75v279q0 78 -33.5 118.5t-96.5 40.5q-65 0 -101.5 -43t-36.5 -127v-268h-75v500z" />
    <glyph glyph-name="uni0145" unicode="&#x145;" horiz-adv-x="705" 
d="M387 -51q5 -20 7 -39t2 -35q0 -60 -25 -85.5t-69 -25.5v38q24 0 35 14t11 41v17h-45v75h84zM620 700v-700h-81l-374 572v-572h-80v700h81l374 -571v571h80z" />
    <glyph glyph-name="uni0146" unicode="&#x146;" horiz-adv-x="563" 
d="M333 -39q5 -19 7.5 -37t2.5 -33q0 -55 -25 -79t-69 -24v41q22 0 31.5 12.5t9.5 34.5v15h9v-4h-49v74h83zM77 500h69l4 -71q24 37 63 57.5t91 20.5q57 0 100 -24.5t67 -73t24 -121.5v-288h-75v279q0 78 -33.5 118.5t-96.5 40.5q-65 0 -101.5 -43t-36.5 -127v-268h-75v500z
" />
    <glyph glyph-name="Ncaron" unicode="&#x147;" horiz-adv-x="705" 
d="M497 909v-64l-136 -82l-136 82v64l136 -84zM620 700v-700h-81l-374 572v-572h-80v700h81l374 -571v571h80z" />
    <glyph glyph-name="ncaron" unicode="&#x148;" horiz-adv-x="563" 
d="M411 689v-58l-122 -74l-123 74v58l123 -76zM77 500h69l4 -71q24 37 63 57.5t91 20.5q57 0 100 -24.5t67 -73t24 -121.5v-288h-75v279q0 78 -33.5 118.5t-96.5 40.5q-65 0 -101.5 -43t-36.5 -127v-268h-75v500z" />
    <glyph glyph-name="Eng" unicode="&#x14a;" horiz-adv-x="705" 
d="M620 700v-700h-81l-374 572v-572h-80v700h81l374 -571v571h80zM539 99h81v-101q0 -48 -15.5 -84.5t-42.5 -61.5t-61.5 -37.5t-71.5 -14.5l-11 69q58 5 89.5 39.5t31.5 89.5v101z" />
    <glyph glyph-name="eng" unicode="&#x14b;" horiz-adv-x="573" 
d="M77 500h74l4 -71q24 37 63 57.5t91 20.5q57 0 101 -24.5t69.5 -73t25.5 -121.5v-288h-80v279q0 78 -33.5 118.5t-96.5 40.5q-65 0 -101.5 -43t-36.5 -127v-268h-80v500zM425 -1v66h80v-67q0 -70 -27.5 -113t-71 -63t-92.5 -22l-11 69q38 4 65.5 18t42 41.5t14.5 70.5z
" />
    <glyph glyph-name="Omacron" unicode="&#x14c;" 
d="M223 857h345v-60h-345v60zM392 -7q-74 0 -137.5 26t-111 73.5t-74 113t-26.5 144.5t26.5 144.5t74 113t111 73.5t137.5 26q73 0 136.5 -26t110.5 -73.5t73.5 -113t26.5 -144.5t-26.5 -144.5t-73.5 -113t-110.5 -73.5t-136.5 -26zM392 63q75 0 135 35t95 99.5t35 152.5
q0 89 -35 153.5t-95 99t-135 34.5q-76 0 -136.5 -34.5t-95.5 -99t-35 -153.5q0 -88 35 -152.5t95.5 -99.5t136.5 -35z" />
    <glyph glyph-name="omacron" unicode="&#x14d;" horiz-adv-x="590" 
d="M144 642h311v-54h-311v54zM293 -7q-71 0 -127 31t-88 88.5t-32 136.5q0 80 32.5 138t89 89t127.5 31t127.5 -31t89 -88.5t32.5 -136.5q0 -80 -33 -138t-90 -89t-128 -31zM292 64q44 0 83 19.5t63.5 61t24.5 105.5q0 65 -24 106t-62.5 60.5t-82.5 19.5t-82 -19.5
t-61.5 -61t-23.5 -105.5q0 -65 23 -106t60.5 -60.5t81.5 -19.5z" />
    <glyph glyph-name="Obreve" unicode="&#x14e;" 
d="M534 893q0 -35 -16 -63.5t-46.5 -45.5t-76.5 -17t-76.5 17.5t-46 46t-15.5 63.5v15h48q0 -37 21 -58t69 -21t69 21t21 58h49v-16zM392 -7q-74 0 -137.5 26t-111 73.5t-74 113t-26.5 144.5t26.5 144.5t74 113t111 73.5t137.5 26q73 0 136.5 -26t110.5 -73.5t73.5 -113
t26.5 -144.5t-26.5 -144.5t-73.5 -113t-110.5 -73.5t-136.5 -26zM392 63q75 0 135 35t95 99.5t35 152.5q0 89 -35 153.5t-95 99t-135 34.5q-76 0 -136.5 -34.5t-95.5 -99t-35 -153.5q0 -88 35 -152.5t95.5 -99.5t136.5 -35z" />
    <glyph glyph-name="obreve" unicode="&#x14f;" horiz-adv-x="590" 
d="M424 674q0 -31 -14 -57t-42 -41t-69 -15t-69 15.5t-42 41.5t-14 57v14h44q0 -34 19 -53t62 -19t62 19t19 53h44v-15zM293 -7q-71 0 -127 31t-88 88.5t-32 136.5q0 80 32.5 138t89 89t127.5 31t127.5 -31t89 -88.5t32.5 -136.5q0 -80 -33 -138t-90 -89t-128 -31zM292 64
q44 0 83 19.5t63.5 61t24.5 105.5q0 65 -24 106t-62.5 60.5t-82.5 19.5t-82 -19.5t-61.5 -61t-23.5 -105.5q0 -65 23 -106t60.5 -60.5t81.5 -19.5z" />
    <glyph glyph-name="Ohungarumlaut" unicode="&#x150;" 
d="M424 910l-82 -146h-54l66 146h70zM572 910l-88 -146h-54l71 146h71zM392 -7q-74 0 -137.5 26t-111 73.5t-74 113t-26.5 144.5t26.5 144.5t74 113t111 73.5t137.5 26q73 0 136.5 -26t110.5 -73.5t73.5 -113t26.5 -144.5t-26.5 -144.5t-73.5 -113t-110.5 -73.5t-136.5 -26z
M392 63q75 0 135 35t95 99.5t35 152.5q0 89 -35 153.5t-95 99t-135 34.5q-76 0 -136.5 -34.5t-95.5 -99t-35 -153.5q0 -88 35 -152.5t95.5 -99.5t136.5 -35z" />
    <glyph glyph-name="ohungarumlaut" unicode="&#x151;" horiz-adv-x="590" 
d="M325 690l-74 -132h-49l60 132h63zM459 690l-80 -132h-48l64 132h64zM293 -7q-71 0 -127 31t-88 88.5t-32 136.5q0 80 32.5 138t89 89t127.5 31t127.5 -31t89 -88.5t32.5 -136.5q0 -80 -33 -138t-90 -89t-128 -31zM292 64q44 0 83 19.5t63.5 61t24.5 105.5q0 65 -24 106
t-62.5 60.5t-82.5 19.5t-82 -19.5t-61.5 -61t-23.5 -105.5q0 -65 23 -106t60.5 -60.5t81.5 -19.5z" />
    <glyph glyph-name="OE" unicode="&#x152;" horiz-adv-x="1183" 
d="M392 -7q-74 0 -137.5 26t-111 73.5t-74 113t-26.5 144.5t26.5 144.5t74 113t111 73.5t137.5 26q73 0 136.5 -26t110.5 -73.5t73.5 -113t26.5 -144.5t-26.5 -144.5t-73.5 -113t-110.5 -73.5t-136.5 -26zM392 63q75 0 135 35t95 99.5t35 152.5q0 89 -35 153.5t-95 99
t-135 34.5q-76 0 -136.5 -34.5t-95.5 -99t-35 -153.5q0 -88 35 -152.5t95.5 -99.5t136.5 -35zM1118 630h-379v-239h285v-70h-285v-251h379v-70h-459v700h459v-70z" />
    <glyph glyph-name="oe" unicode="&#x153;" horiz-adv-x="983" 
d="M293 -7q-71 0 -127 31t-88 88.5t-32 136.5q0 80 32.5 138t89 89t127.5 31t127.5 -31t89 -88.5t32.5 -136.5q0 -80 -33 -138t-90 -89t-128 -31zM292 64q44 0 83 19.5t63.5 61t24.5 105.5q0 65 -24 106t-62.5 60.5t-82.5 19.5t-82 -19.5t-61.5 -61t-23.5 -105.5
q0 -65 23 -106t60.5 -60.5t81.5 -19.5zM706 -7q-70 0 -124.5 34t-85.5 93t-31 135q0 73 31 130t85 89.5t123 32.5q68 0 121.5 -30t83.5 -83t28 -121q0 -11 -1 -23t-2 -26h-387q2 -47 23 -83t55.5 -56.5t78.5 -20.5q58 0 98.5 22t58.5 63l65 -26q-30 -63 -87 -96.5
t-133 -33.5zM855 289q1 43 -18.5 76t-54.5 52t-81 19q-40 0 -73 -19t-54.5 -52.5t-25.5 -75.5h307z" />
    <glyph glyph-name="Racute" unicode="&#x154;" horiz-adv-x="625" 
d="M401 939v-71l-208 -115v60zM489 493q0 63 -37 100t-121 37h-166v-274h167q55 0 89.5 17t51 48t16.5 72zM331 700q82 0 134.5 -28t78.5 -74.5t26 -104.5q0 -41 -13.5 -78t-42.5 -66t-74 -46t-108 -17h-167v-286h-80v700h246zM389 316l194 -316h-91l-189 316h86z" />
    <glyph glyph-name="racute" unicode="&#x155;" horiz-adv-x="360" 
d="M293 715v-63l-187 -104v54zM77 500h69l4 -73q20 27 48.5 46t63 26.5t73.5 0.5v-75q-42 8 -75.5 0t-57.5 -30t-37 -55.5t-13 -77.5v-262h-75v500z" />
    <glyph glyph-name="uni0156" unicode="&#x156;" horiz-adv-x="626" 
d="M380 -51q5 -20 7.5 -39t2.5 -35q0 -60 -25 -85.5t-70 -25.5v38q24 0 35 14t11 41v17h-45v75h84zM489 493q0 63 -37 100t-121 37h-166v-274h167q55 0 89.5 17t51 48t16.5 72zM331 700q82 0 134.5 -28t78.5 -74.5t26 -104.5q0 -41 -13.5 -78t-42.5 -66t-74 -46t-108 -17
h-167v-286h-80v700h246zM389 316l194 -316h-91l-189 316h86z" />
    <glyph glyph-name="uni0157" unicode="&#x157;" horiz-adv-x="360" 
d="M164 -39q5 -19 7.5 -37t2.5 -33q0 -55 -24.5 -79t-69.5 -24v41q23 0 32.5 12.5t9.5 34.5v11h-40v74h82zM77 500h69l4 -73q20 27 48.5 46t63 26.5t73.5 0.5v-75q-42 8 -75.5 0t-57.5 -30t-37 -55.5t-13 -77.5v-262h-75v500z" />
    <glyph glyph-name="Rcaron" unicode="&#x158;" horiz-adv-x="625" 
d="M443 909v-64l-136 -82l-136 82v64l136 -84zM489 493q0 63 -37 100t-121 37h-166v-274h167q55 0 89.5 17t51 48t16.5 72zM331 700q82 0 134.5 -28t78.5 -74.5t26 -104.5q0 -41 -13.5 -78t-42.5 -66t-74 -46t-108 -17h-167v-286h-80v700h246zM389 316l194 -316h-91
l-189 316h86z" />
    <glyph glyph-name="rcaron" unicode="&#x159;" horiz-adv-x="360" 
d="M331 689v-58l-122 -74l-123 74v58l123 -76zM77 500h69l4 -73q20 27 48.5 46t63 26.5t73.5 0.5v-75q-42 8 -75.5 0t-57.5 -30t-37 -55.5t-13 -77.5v-262h-75v500z" />
    <glyph glyph-name="Sacute" unicode="&#x15a;" horiz-adv-x="574" 
d="M382 939v-71l-208 -115v60zM124 178q6 -27 25.5 -53.5t54 -44t88.5 -17.5q77 0 114 36t37 85q0 39 -21 64t-57 41.5t-81 29.5q-40 11 -79.5 24.5t-71.5 34t-51 53.5t-19 82q0 59 28 102.5t79 67.5t119 24q59 0 103 -17t73.5 -47.5t43.5 -70.5l-71 -27q-7 23 -27 44.5
t-52 35.5t-73 14q-40 0 -72.5 -14t-51.5 -40t-19 -63q0 -40 22.5 -63.5t60 -38t82.5 -27.5q41 -13 79.5 -28t69 -37t48.5 -55t18 -81q0 -53 -25 -98.5t-75.5 -73t-129.5 -27.5q-66 0 -116 20.5t-82 55.5t-44 80z" />
    <glyph glyph-name="sacute" unicode="&#x15b;" horiz-adv-x="475" 
d="M321 715v-63l-188 -104v54zM118 153q6 -30 22 -49.5t41.5 -29.5t59.5 -10q53 0 80.5 20.5t27.5 51.5q0 26 -16.5 42t-43.5 26.5t-60 18.5q-26 6 -56 14.5t-57 23.5t-44 39t-17 63q0 43 23.5 75.5t65 50.5t95.5 18q62 0 110.5 -27t67.5 -84l-70 -24q-7 26 -25.5 40t-41 19
t-44.5 5q-45 0 -72.5 -17.5t-27.5 -52.5q0 -19 9 -31.5t25 -20.5t38 -13.5t48 -12.5q29 -7 59 -17.5t56 -27t42.5 -42t16.5 -63.5q0 -44 -24 -76.5t-66.5 -50.5t-98.5 -18q-77 0 -127.5 34.5t-67.5 101.5z" />
    <glyph glyph-name="Scircumflex" unicode="&#x15c;" horiz-adv-x="574" 
d="M124 178q6 -27 25.5 -53.5t54 -44t88.5 -17.5q77 0 114 36t37 85q0 39 -21 64t-57 41.5t-81 29.5q-40 11 -79.5 24.5t-71.5 34t-51 53.5t-19 82q0 59 28 102.5t79 67.5t119 24q59 0 103 -17t73.5 -47.5t43.5 -70.5l-71 -27q-7 23 -27 44.5t-52 35.5t-73 14
q-40 0 -72.5 -14t-51.5 -40t-19 -63q0 -40 22.5 -63.5t60 -38t82.5 -27.5q41 -13 79.5 -28t69 -37t48.5 -55t18 -81q0 -53 -25 -98.5t-75.5 -73t-129.5 -27.5q-66 0 -116 20.5t-82 55.5t-44 80zM424 764l-136 84l-136 -84v64l136 82l136 -82v-64z" />
    <glyph glyph-name="scircumflex" unicode="&#x15d;" horiz-adv-x="475" 
d="M118 153q6 -30 22 -49.5t41.5 -29.5t59.5 -10q53 0 80.5 20.5t27.5 51.5q0 26 -16.5 42t-43.5 26.5t-60 18.5q-26 6 -56 14.5t-57 23.5t-44 39t-17 63q0 43 23.5 75.5t65 50.5t95.5 18q62 0 110.5 -27t67.5 -84l-70 -24q-7 26 -25.5 40t-41 19t-44.5 5q-45 0 -72.5 -17.5
t-27.5 -52.5q0 -19 9 -31.5t25 -20.5t38 -13.5t48 -12.5q29 -7 59 -17.5t56 -27t42.5 -42t16.5 -63.5q0 -44 -24 -76.5t-66.5 -50.5t-98.5 -18q-77 0 -127.5 34.5t-67.5 101.5zM372 564l-136 84l-136 -84v64l136 82l136 -82v-64z" />
    <glyph glyph-name="Scedilla" unicode="&#x15e;" horiz-adv-x="574" 
d="M321 -67q39 1 68 -10t45 -32.5t16 -53.5q0 -31 -15 -53.5t-42 -35t-63 -12.5h-106v53h91q35 0 51.5 11.5t16.5 36.5q0 23 -16.5 34.5t-51.5 11.5h-49v120h55v-70zM124 178q6 -27 25.5 -53.5t54 -44t88.5 -17.5q77 0 114 36t37 85q0 39 -21 64t-57 41.5t-81 29.5
q-40 11 -79.5 24.5t-71.5 34t-51 53.5t-19 82q0 59 28 102.5t79 67.5t119 24q59 0 103 -17t73.5 -47.5t43.5 -70.5l-71 -27q-7 23 -27 44.5t-52 35.5t-73 14q-40 0 -72.5 -14t-51.5 -40t-19 -63q0 -40 22.5 -63.5t60 -38t82.5 -27.5q41 -13 79.5 -28t69 -37t48.5 -55t18 -81
q0 -53 -25 -98.5t-75.5 -73t-129.5 -27.5q-66 0 -116 20.5t-82 55.5t-44 80z" />
    <glyph glyph-name="scedilla" unicode="&#x15f;" horiz-adv-x="475" 
d="M264 -53q35 1 61 -8.5t41 -29.5t15 -49q0 -27 -14 -47.5t-38.5 -31.5t-56.5 -11h-96v47h83q31 0 46 10.5t15 32.5q0 21 -15 31.5t-46 10.5h-45v108h50v-63zM118 153q6 -30 22 -49.5t41.5 -29.5t59.5 -10q53 0 80.5 20.5t27.5 51.5q0 26 -16.5 42t-43.5 26.5t-60 18.5
q-26 6 -56 14.5t-57 23.5t-44 39t-17 63q0 43 23.5 75.5t65 50.5t95.5 18q62 0 110.5 -27t67.5 -84l-70 -24q-7 26 -25.5 40t-41 19t-44.5 5q-45 0 -72.5 -17.5t-27.5 -52.5q0 -19 9 -31.5t25 -20.5t38 -13.5t48 -12.5q29 -7 59 -17.5t56 -27t42.5 -42t16.5 -63.5
q0 -44 -24 -76.5t-66.5 -50.5t-98.5 -18q-77 0 -127.5 34.5t-67.5 101.5z" />
    <glyph glyph-name="Scaron" unicode="&#x160;" horiz-adv-x="574" 
d="M424 909v-64l-136 -82l-136 82v64l136 -84zM124 178q6 -27 25.5 -53.5t54 -44t88.5 -17.5q77 0 114 36t37 85q0 39 -21 64t-57 41.5t-81 29.5q-40 11 -79.5 24.5t-71.5 34t-51 53.5t-19 82q0 59 28 102.5t79 67.5t119 24q59 0 103 -17t73.5 -47.5t43.5 -70.5l-71 -27
q-7 23 -27 44.5t-52 35.5t-73 14q-40 0 -72.5 -14t-51.5 -40t-19 -63q0 -40 22.5 -63.5t60 -38t82.5 -27.5q41 -13 79.5 -28t69 -37t48.5 -55t18 -81q0 -53 -25 -98.5t-75.5 -73t-129.5 -27.5q-66 0 -116 20.5t-82 55.5t-44 80z" />
    <glyph glyph-name="scaron" unicode="&#x161;" horiz-adv-x="475" 
d="M359 689v-58l-123 -74l-123 74v58l123 -76zM118 153q6 -30 22 -49.5t41.5 -29.5t59.5 -10q53 0 80.5 20.5t27.5 51.5q0 26 -16.5 42t-43.5 26.5t-60 18.5q-26 6 -56 14.5t-57 23.5t-44 39t-17 63q0 43 23.5 75.5t65 50.5t95.5 18q62 0 110.5 -27t67.5 -84l-70 -24
q-7 26 -25.5 40t-41 19t-44.5 5q-45 0 -72.5 -17.5t-27.5 -52.5q0 -19 9 -31.5t25 -20.5t38 -13.5t48 -12.5q29 -7 59 -17.5t56 -27t42.5 -42t16.5 -63.5q0 -44 -24 -76.5t-66.5 -50.5t-98.5 -18q-77 0 -127.5 34.5t-67.5 101.5z" />
    <glyph glyph-name="uni0162" unicode="&#x162;" horiz-adv-x="610" 
d="M334 -63q38 1 67 -10t45.5 -32.5t16.5 -53.5q0 -31 -15.5 -53.5t-42.5 -35t-62 -12.5h-106v53h91q35 0 51.5 11.5t16.5 36.5q0 23 -16.5 34.5t-51.5 11.5h-49v120h55v-70zM43 700h525v-70h-222v-630h-80v630h-223v70z" />
    <glyph glyph-name="uni0163" unicode="&#x163;" horiz-adv-x="376" 
d="M101 625h80v-487q0 -40 16 -55t55 -15h62v-68h-74q-44 0 -75 13.5t-47.5 44t-16.5 80.5v487zM34 435v66h280v-66h-280zM225 -53l-5 3q38 0 65 -10t41.5 -29.5t14.5 -50.5q0 -28 -14 -49.5t-39.5 -33t-58.5 -11.5h-99v54h85q30 0 44 9.5t14 30.5q0 19 -14 28.5t-44 9.5
h-47v145h57v-96z" />
    <glyph glyph-name="Tcaron" unicode="&#x164;" horiz-adv-x="610" 
d="M443 909v-64l-136 -82l-136 82v64l136 -84zM43 700h525v-70h-222v-630h-80v630h-223v70z" />
    <glyph glyph-name="tcaron" unicode="&#x165;" horiz-adv-x="360" 
d="M316 700q5 -24 7.5 -42t2.5 -35q0 -48 -24.5 -68.5t-70.5 -20.5v42q23 0 32.5 7t9.5 23v14h-42v80h85zM109 500v140h75v-140h133v-70h-133v-269q0 -46 19.5 -67t50 -25t63.5 0v-65q-39 -9 -76.5 -5t-67 22.5t-47 52.5t-17.5 87v269h-75v70h75z" />
    <glyph glyph-name="Utilde" unicode="&#x168;" horiz-adv-x="697" 
d="M202 763q7 48 31.5 72t61.5 24q26 0 43.5 -11.5t33 -23t36.5 -11.5q16 0 28.5 10t15.5 31h47q-6 -47 -31.5 -71t-62.5 -24q-27 0 -45 11.5t-33 23t-35 11.5q-17 0 -28.5 -9.5t-14.5 -32.5h-47zM81 700h80v-442q0 -69 25 -112t67.5 -63t96.5 -20q53 0 95 20t67 63t25 112
v442h80v-441q0 -69 -21.5 -119t-59.5 -82.5t-86 -48.5t-101 -16q-72 0 -133 28.5t-98 87.5t-37 150v441z" />
    <glyph glyph-name="utilde" unicode="&#x169;" horiz-adv-x="562" 
d="M140 557q6 43 28.5 65t55.5 22q24 0 39.5 -10.5t29.5 -21t33 -10.5q15 0 26 8.5t14 28.5h42q-5 -43 -28 -64.5t-57 -21.5q-24 0 -40 10.5t-30 21t-32 10.5q-15 0 -25.5 -9t-13.5 -29h-42zM486 0h-68l-5 72q-23 -38 -62 -58.5t-91 -20.5q-58 0 -101 24t-66.5 72t-23.5 121
v290h74v-282q0 -77 33.5 -116.5t96.5 -39.5q64 0 101.5 41.5t37.5 125.5v271h74v-500z" />
    <glyph glyph-name="Umacron" unicode="&#x16a;" horiz-adv-x="697" 
d="M176 857h345v-60h-345v60zM81 700h80v-442q0 -69 25 -112t67.5 -63t96.5 -20q53 0 95 20t67 63t25 112v442h80v-441q0 -69 -21.5 -119t-59.5 -82.5t-86 -48.5t-101 -16q-72 0 -133 28.5t-98 87.5t-37 150v441z" />
    <glyph glyph-name="umacron" unicode="&#x16b;" horiz-adv-x="562" 
d="M116 642h312v-54h-312v54zM486 0h-68l-5 72q-23 -38 -62 -58.5t-91 -20.5q-58 0 -101 24t-66.5 72t-23.5 121v290h74v-282q0 -77 33.5 -116.5t96.5 -39.5q64 0 101.5 41.5t37.5 125.5v271h74v-500z" />
    <glyph glyph-name="Ubreve" unicode="&#x16c;" horiz-adv-x="697" 
d="M487 893q0 -35 -15.5 -63.5t-46.5 -45.5t-77 -17t-76.5 17.5t-46 46t-15.5 63.5v15h48q0 -37 21 -58t69 -21t69 21t21 58h49v-16zM81 700h80v-442q0 -69 25 -112t67.5 -63t96.5 -20q53 0 95 20t67 63t25 112v442h80v-441q0 -69 -21.5 -119t-59.5 -82.5t-86 -48.5
t-101 -16q-72 0 -133 28.5t-98 87.5t-37 150v441z" />
    <glyph glyph-name="ubreve" unicode="&#x16d;" horiz-adv-x="562" 
d="M397 674q0 -31 -14 -57t-42 -41t-69 -15t-69 15.5t-42 41.5t-14 57v14h44q0 -34 18.5 -53t62.5 -19q43 0 62 19t19 53h44v-15zM486 0h-68l-5 72q-23 -38 -62 -58.5t-91 -20.5q-58 0 -101 24t-66.5 72t-23.5 121v290h74v-282q0 -77 33.5 -116.5t96.5 -39.5
q64 0 101.5 41.5t37.5 125.5v271h74v-500z" />
    <glyph glyph-name="Uring" unicode="&#x16e;" horiz-adv-x="697" 
d="M452 854q0 -47 -30.5 -74.5t-73.5 -27.5t-73.5 27.5t-30.5 74.5q0 48 30.5 76t73.5 28t73.5 -28t30.5 -76zM405 854q0 28 -16.5 43.5t-40.5 15.5t-40 -15.5t-16 -43.5q0 -26 16 -42t40 -16t40.5 16t16.5 42zM81 700h80v-442q0 -69 25 -112t67.5 -63t96.5 -20q53 0 95 20
t67 63t25 112v442h80v-441q0 -69 -21.5 -119t-59.5 -82.5t-86 -48.5t-101 -16q-72 0 -133 28.5t-98 87.5t-37 150v441z" />
    <glyph glyph-name="uring" unicode="&#x16f;" horiz-adv-x="562" 
d="M366 639q0 -43 -28 -67.5t-66 -24.5q-39 0 -66.5 24.5t-27.5 67.5t27.5 68t66.5 25q38 0 66 -25t28 -68zM323 639q0 25 -14.5 39t-36.5 14t-36.5 -14t-14.5 -39q0 -24 14.5 -38t36.5 -14t36.5 14t14.5 38zM486 0h-68l-5 72q-23 -38 -62 -58.5t-91 -20.5q-58 0 -101 24
t-66.5 72t-23.5 121v290h74v-282q0 -77 33.5 -116.5t96.5 -39.5q64 0 101.5 41.5t37.5 125.5v271h74v-500z" />
    <glyph glyph-name="Uhungarumlaut" unicode="&#x170;" horiz-adv-x="697" 
d="M377 910l-82 -146h-54l66 146h70zM525 910l-88 -146h-54l71 146h71zM81 700h80v-442q0 -69 25 -112t67.5 -63t96.5 -20q53 0 95 20t67 63t25 112v442h80v-441q0 -69 -21.5 -119t-59.5 -82.5t-86 -48.5t-101 -16q-72 0 -133 28.5t-98 87.5t-37 150v441z" />
    <glyph glyph-name="uhungarumlaut" unicode="&#x171;" horiz-adv-x="562" 
d="M298 690l-74 -132h-49l60 132h63zM432 690l-80 -132h-49l65 132h64zM486 0h-68l-5 72q-23 -38 -62 -58.5t-91 -20.5q-58 0 -101 24t-66.5 72t-23.5 121v290h74v-282q0 -77 33.5 -116.5t96.5 -39.5q64 0 101.5 41.5t37.5 125.5v271h74v-500z" />
    <glyph glyph-name="Uogonek" unicode="&#x172;" horiz-adv-x="697" 
d="M397 42l21 -42l-57 -28q-35 -17 -48.5 -35t-13.5 -37q0 -24 16.5 -36.5t43.5 -12.5q15 0 31.5 3.5t33.5 9.5v-53q-17 -7 -36 -10.5t-38 -3.5q-30 0 -56.5 9t-43.5 30t-17 56q0 23 11 45t35.5 42.5t65.5 39.5zM81 700h80v-442q0 -69 25 -112t67.5 -63t96.5 -20q53 0 95 20
t67 63t25 112v442h80v-441q0 -69 -21.5 -119t-59.5 -82.5t-86 -48.5t-101 -16q-72 0 -133 28.5t-98 87.5t-37 150v441z" />
    <glyph glyph-name="uogonek" unicode="&#x173;" horiz-adv-x="562" 
d="M468 41l19 -38l-52 -25q-31 -16 -43.5 -32t-12.5 -33q0 -22 15 -33.5t40 -11.5q26 0 58 12v-48q-15 -6 -32.5 -9t-34.5 -3q-26 0 -50.5 8.5t-39.5 27t-15 49.5q0 32 22.5 60.5t78.5 54.5zM486 0h-68l-5 72q-23 -38 -62 -58.5t-91 -20.5q-58 0 -101 24t-66.5 72t-23.5 121
v290h74v-282q0 -77 33.5 -116.5t96.5 -39.5q64 0 101.5 41.5t37.5 125.5v271h74v-500z" />
    <glyph glyph-name="Wcircumflex" unicode="&#x174;" horiz-adv-x="971" 
d="M621 764l-136 84l-136 -84v64l136 82l136 -82v-64zM313 0h-88l-197 700h85l156 -603l172 603h89l171 -602l157 602h84l-197 -700h-88l-172 580z" />
    <glyph glyph-name="wcircumflex" unicode="&#x175;" horiz-adv-x="754" 
d="M500 558l-123 76l-123 -76v58l123 74l123 -74v-58zM251 0h-68l-157 500h76l115 -407l129 407h68l127 -406l114 406h74l-156 -500h-69l-126 388z" />
    <glyph glyph-name="Ycircumflex" unicode="&#x176;" horiz-adv-x="649" 
d="M460 764l-136 84l-136 -84v64l136 82l136 -82v-64zM531 700h89l-256 -431v-269h-80v268l-256 432h89l207 -355z" />
    <glyph glyph-name="ycircumflex" unicode="&#x177;" horiz-adv-x="513" 
d="M379 558l-123 76l-123 -76v58l123 74l123 -74v-58zM416 500h78l-286 -700h-72l85 207l-202 493h82l160 -404z" />
    <glyph glyph-name="Ydieresis" unicode="&#x178;" horiz-adv-x="649" 
d="M245 785q-21 0 -35 14t-14 34q0 21 14 35.5t35 14.5t35 -14.5t14 -35.5q0 -20 -14 -34t-35 -14zM403 785q-21 0 -35 14t-14 34q0 21 14 35.5t35 14.5q20 0 34.5 -14.5t14.5 -35.5q0 -20 -14.5 -34t-34.5 -14zM531 700h89l-256 -431v-269h-80v268l-256 432h89l207 -355z
" />
    <glyph glyph-name="Zacute" unicode="&#x179;" horiz-adv-x="596" 
d="M372 939v-71l-208 -115v60zM536 637l-386 -567h390v-70h-483v63l385 567h-381v70h475v-63z" />
    <glyph glyph-name="zacute" unicode="&#x17a;" horiz-adv-x="479" 
d="M307 715v-63l-187 -104v54zM425 435l-281 -365h284v-70h-378v65l281 365h-278v70h372v-65z" />
    <glyph glyph-name="Zdotaccent" unicode="&#x17b;" horiz-adv-x="596" 
d="M278 777q-21 0 -35 14t-14 34q0 21 14 35.5t35 14.5q20 0 34.5 -14.5t14.5 -35.5q0 -20 -14.5 -34t-34.5 -14zM536 637l-386 -567h390v-70h-483v63l385 567h-381v70h475v-63z" />
    <glyph glyph-name="zdotaccent" unicode="&#x17c;" horiz-adv-x="479" 
d="M222 570q-18 0 -31 12.5t-13 30.5t13 31.5t31 13.5q19 0 32 -13.5t13 -31.5t-13 -30.5t-32 -12.5zM425 435l-281 -365h284v-70h-378v65l281 365h-278v70h372v-65z" />
    <glyph glyph-name="Zcaron" unicode="&#x17d;" horiz-adv-x="596" 
d="M414 909v-64l-136 -82l-136 82v64l136 -84zM536 637l-386 -567h390v-70h-483v63l385 567h-381v70h475v-63z" />
    <glyph glyph-name="zcaron" unicode="&#x17e;" horiz-adv-x="479" 
d="M345 689v-58l-123 -74l-122 74v58l122 -76zM425 435l-281 -365h284v-70h-378v65l281 365h-278v70h372v-65z" />
    <glyph glyph-name="uni018F" unicode="&#x18f;" horiz-adv-x="760" 
d="M622 364q0 83 -31.5 143.5t-87 94t-127.5 33.5q-55 0 -101 -18.5t-79 -53.5t-49 -84h-91q21 70 66.5 121t110 79t143.5 28q99 0 174 -45.5t117 -125.5t42 -186t-42 -186.5t-117 -125.5t-175 -45q-95 0 -168.5 38.5t-114.5 111.5t-41 177q0 14 1 29t2 31h584v-74h-504
q-1 -72 29 -126.5t84.5 -84.5t127.5 -30q70 0 125.5 30.5t88.5 87.5t33 138v43z" />
    <glyph glyph-name="florin" unicode="&#x192;" horiz-adv-x="409" 
d="M109 501h256l-6 -65h-256zM180 545q12 81 59.5 118t139.5 37l-7 -66q-55 0 -80.5 -21.5t-32.5 -67.5l-62 -421q-6 -43 -22 -70.5t-44 -40.5t-70 -13h-27l7 66h22q26 0 38 12t17 46z" />
    <glyph glyph-name="uni01CD" unicode="&#x1cd;" horiz-adv-x="672" 
d="M354 630h-33l-231 -630h-81l256 700h144l255 -700h-81zM134 254h408v-70h-408v70zM473 909v-64l-136 -82l-136 82v64l136 -84z" />
    <glyph glyph-name="uni01CE" unicode="&#x1ce;" horiz-adv-x="528" 
d="M390 0l-6 90q-21 -46 -62 -71.5t-104 -25.5q-54 0 -92 17t-58.5 48.5t-20.5 74.5q0 63 47 103.5t136 49.5l154 17v40q0 42 -31 67.5t-84 25.5q-52 0 -86.5 -24t-47.5 -69l-68 24q20 66 73.5 103t130.5 37q89 0 138.5 -45.5t49.5 -123.5v-338h-69zM384 239l-155 -18
q-50 -6 -76 -27.5t-26 -56.5t25.5 -56t73.5 -21q55 0 90 22t51.5 59.5t16.5 81.5v16zM404 709v-64l-136 -82l-136 82v64l136 -84z" />
    <glyph glyph-name="Gcaron" unicode="&#x1e6;" horiz-adv-x="770" 
d="M633 490q-38 75 -101 110.5t-140 35.5q-76 0 -137 -35t-96 -99t-35 -152q0 -87 35 -151t96 -99t137 -35q57 0 106 19.5t85 56t55 87.5v81h-240v65h321v-150q-23 -67 -70 -119t-113 -82t-144 -30q-74 0 -137.5 26t-111 73.5t-74 113t-26.5 144.5t26.5 144.5t74 113
t111 73.5t137.5 26q69 0 129.5 -22.5t107.5 -65t74 -103.5zM529 909v-64l-136 -82l-136 82v64l136 -84z" />
    <glyph glyph-name="gcaron" unicode="&#x1e7;" horiz-adv-x="606" 
d="M461 500h69v-408q0 -92 -41 -157.5t-119 -100t-190 -34.5l-12 69q141 2 214 58.5t73 164.5v11l8 -2q-23 -44 -69 -75.5t-119 -32.5q-69 0 -120.5 31.5t-80 89.5t-28.5 136t28.5 135.5t80 89.5t120.5 32q45 0 80 -13.5t60 -36t41 -50.5zM127 250q0 -86 44.5 -136.5
t120.5 -50.5q46 0 83 22t58.5 64t21.5 101t-21.5 100.5t-58.5 64t-83 22.5q-75 0 -120 -51t-45 -136zM434 709v-64l-136 -82l-136 82v64l136 -84z" />
    <glyph glyph-name="uni01E8" unicode="&#x1e8;" horiz-adv-x="607" 
d="M85 700h80v-309h34l289 309h103l-322 -344l325 -356h-106l-290 321h-33v-321h-80v700zM436 909v-64l-136 -82l-136 82v64l136 -84z" />
    <glyph glyph-name="uni01E9" unicode="&#x1e9;" horiz-adv-x="518" 
d="M77 720h76v-437h46l197 217h106l-236 -250l237 -250h-107l-197 218h-46v-218h-76v720zM251 929v-64l-136 -82l-136 82v64l136 -84z" />
    <glyph glyph-name="uni01EA" unicode="&#x1ea;" 
d="M392 -7q-74 0 -137.5 26t-111 73.5t-74 113t-26.5 144.5t26.5 144.5t74 113t111 73.5t137.5 26q73 0 136.5 -26t110.5 -73.5t73.5 -113t26.5 -144.5t-26.5 -144.5t-73.5 -113t-110.5 -73.5t-136.5 -26zM392 63q75 0 135 35t95 99.5t35 152.5q0 89 -35 153.5t-95 99
t-135 34.5q-76 0 -136.5 -34.5t-95.5 -99t-35 -153.5q0 -88 35 -152.5t95.5 -99.5t136.5 -35zM507 63l21 -42l-57 -28q-35 -17 -48.5 -34.5t-13.5 -37.5q0 -24 16.5 -36.5t43.5 -12.5q15 0 31.5 3.5t33.5 9.5v-53q-17 -7 -36 -10.5t-38 -3.5q-30 0 -56.5 9.5t-43.5 30.5
t-17 55q0 24 11 45.5t35.5 42t65.5 39.5z" />
    <glyph glyph-name="uni01EB" unicode="&#x1eb;" horiz-adv-x="590" 
d="M293 -7q-71 0 -127 31t-88 88.5t-32 136.5q0 80 32.5 138t89 89t127.5 31t127.5 -31t89 -88.5t32.5 -136.5q0 -80 -33 -138t-90 -89t-128 -31zM292 64q44 0 83 19.5t63.5 61t24.5 105.5q0 65 -24 106t-62.5 60.5t-82.5 19.5t-82 -19.5t-61.5 -61t-23.5 -105.5
q0 -65 23 -106t60.5 -60.5t81.5 -19.5zM412 76l21 -42l-57 -28q-35 -17 -48.5 -34.5t-13.5 -37.5q0 -24 16.5 -36.5t43.5 -12.5q15 0 31.5 3.5t33.5 9.5v-53q-17 -7 -36 -10.5t-38 -3.5q-30 0 -56.5 9.5t-43.5 30.5t-17 55q0 24 11 45.5t35.5 42t65.5 39.5z" />
    <glyph glyph-name="AEacute" unicode="&#x1fc;" horiz-adv-x="892" 
d="M592 939v-71l-208 -115v60zM539 630v-239h198v-70h-198v-251h289v-70h-369v184h-258l-105 -184h-87l401 700h418v-70h-289zM240 254h219v382z" />
    <glyph glyph-name="aeacute" unicode="&#x1fd;" horiz-adv-x="898" 
d="M533 713v-63l-188 -104v54zM621 -7q-71 0 -123.5 32.5t-81.5 91.5t-29 138q0 118 61.5 185t170.5 67q74 0 126 -31t79.5 -83.5t27.5 -119.5q0 -10 -0.5 -22.5t-2.5 -26.5h-387q3 -54 24 -89.5t56 -53t77 -17.5q59 0 98.5 21t58.5 64l65 -26q-28 -58 -82 -94t-138 -36z
M771 289q1 49 -19.5 81.5t-55.5 49t-79 16.5q-39 0 -72.5 -16t-54.5 -48.5t-26 -82.5h307zM425 201l7 -76q-19 -50 -53.5 -79t-76.5 -41t-84 -12q-50 0 -88.5 16t-60.5 47.5t-22 77.5q0 40 16 67.5t42.5 45t59 27t65.5 12.5l154 18v39q0 35 -28 64t-87 29q-49 0 -85 -23
t-49 -70l-68 24q19 65 71.5 102.5t132.5 37.5q89 0 139.5 -46.5t50.5 -122.5v-88zM384 238l-154 -17q-53 -5 -78 -26.5t-25 -56.5q0 -40 29.5 -57.5t70.5 -17.5q49 0 84.5 21.5t54 58.5t18.5 81v14z" />
    <glyph glyph-name="uni0218" unicode="&#x218;" horiz-adv-x="574" 
d="M334 -51q5 -20 7.5 -39t2.5 -35q0 -60 -25 -85.5t-71 -25.5v38q25 0 36 14t11 41v17h-45v75h84zM124 178q6 -27 25.5 -53.5t54 -44t88.5 -17.5q77 0 114 36t37 85q0 39 -21 64t-57 41.5t-81 29.5q-40 11 -79.5 24.5t-71.5 34t-51 53.5t-19 82q0 59 28 102.5t79 67.5
t119 24q59 0 103 -17t73.5 -47.5t43.5 -70.5l-71 -27q-7 23 -27 44.5t-52 35.5t-73 14q-40 0 -72.5 -14t-51.5 -40t-19 -63q0 -40 22.5 -63.5t60 -38t82.5 -27.5q41 -13 79.5 -28t69 -37t48.5 -55t18 -81q0 -53 -25 -98.5t-75.5 -73t-129.5 -27.5q-66 0 -116 20.5t-82 55.5
t-44 80z" />
    <glyph glyph-name="uni0219" unicode="&#x219;" horiz-adv-x="475" 
d="M286 -39q5 -19 7.5 -37t2.5 -33q0 -55 -25 -79t-69 -24v41q22 0 31.5 12.5t9.5 34.5v11h-40v74h83zM118 153q6 -30 22 -49.5t41.5 -29.5t59.5 -10q53 0 80.5 20.5t27.5 51.5q0 26 -16.5 42t-43.5 26.5t-60 18.5q-26 6 -56 14.5t-57 23.5t-44 39t-17 63q0 43 23.5 75.5
t65 50.5t95.5 18q62 0 110.5 -27t67.5 -84l-70 -24q-7 26 -25.5 40t-41 19t-44.5 5q-45 0 -72.5 -17.5t-27.5 -52.5q0 -19 9 -31.5t25 -20.5t38 -13.5t48 -12.5q29 -7 59 -17.5t56 -27t42.5 -42t16.5 -63.5q0 -44 -24 -76.5t-66.5 -50.5t-98.5 -18q-77 0 -127.5 34.5
t-67.5 101.5z" />
    <glyph glyph-name="uni021A" unicode="&#x21a;" horiz-adv-x="610" 
d="M352 -51q5 -20 7.5 -39t2.5 -35q0 -60 -25 -85.5t-70 -25.5v38q25 0 36 14t11 41v17h-45v75h83zM43 700h525v-70h-222v-630h-80v630h-223v70z" />
    <glyph glyph-name="uni021B" unicode="&#x21b;" horiz-adv-x="352" 
d="M221 -39q5 -19 7.5 -37t2.5 -33q0 -55 -25 -79t-70 -24v41q23 0 33 12.5t10 34.5v11h-41v74h83zM109 500v140h75v-140h133v-70h-133v-269q0 -46 19.5 -67t50 -25t63.5 0v-65q-39 -9 -76.5 -5t-67 22.5t-47 52.5t-17.5 87v269h-75v70h75z" />
    <glyph glyph-name="uni0232" unicode="&#x232;" horiz-adv-x="649" 
d="M531 700h89l-256 -431v-269h-80v268l-256 432h89l207 -355zM153 857h345v-60h-345v60z" />
    <glyph glyph-name="uni0233" unicode="&#x233;" horiz-adv-x="513" 
d="M416 500h78l-286 -700h-72l85 207l-202 493h82l160 -404zM84 657h345v-60h-345v60z" />
    <glyph glyph-name="uni0259" unicode="&#x259;" horiz-adv-x="564" 
d="M277 507q70 0 124.5 -34t85.5 -93t31 -135q0 -73 -31 -130t-85 -89.5t-123 -32.5q-68 0 -121.5 30t-83.5 83t-28 121q0 11 1 23t2 26h387q-2 47 -23 83t-55.5 56.5t-78.5 20.5q-59 0 -99 -22t-58 -63l-65 26q30 63 87 96.5t133 33.5zM128 211q-1 -43 18.5 -76t54.5 -52
t81 -19q40 0 73 19t54.5 52.5t25.5 75.5h-307z" />
    <glyph glyph-name="circumflex" unicode="&#x2c6;" horiz-adv-x="297" 
d="M285 601l-136 84l-136 -84v64l136 82l136 -82v-64z" />
    <glyph glyph-name="caron" unicode="&#x2c7;" horiz-adv-x="297" 
d="M285 746v-64l-136 -82l-136 82v64l136 -84z" />
    <glyph glyph-name="breve" unicode="&#x2d8;" horiz-adv-x="303" 
d="M290 730q0 -35 -15.5 -63.5t-46.5 -45.5t-77 -17t-76.5 17t-46 46t-15.5 64v15h48q0 -37 21 -58t69 -21t69 21t21 58h49v-16z" />
    <glyph glyph-name="dotaccent" unicode="&#x2d9;" horiz-adv-x="124" 
d="M62 622q-21 0 -35 14t-14 34t14 35t35 15q20 0 34.5 -15t14.5 -35t-14.5 -34t-34.5 -14z" />
    <glyph glyph-name="ring" unicode="&#x2da;" horiz-adv-x="233" 
d="M221 711q0 -47 -30.5 -74.5t-73.5 -27.5t-73.5 27.5t-30.5 74.5t30.5 75t73.5 28t73.5 -28t30.5 -75zM174 711q0 28 -16.5 43.5t-40.5 15.5t-40 -15.5t-16 -43.5q0 -26 16 -42t40 -16t40.5 16t16.5 42z" />
    <glyph glyph-name="ogonek" unicode="&#x2db;" horiz-adv-x="216" 
d="M177 42l21 -42l-57 -28q-35 -17 -48.5 -34.5t-13.5 -37.5q0 -24 16.5 -36.5t43.5 -12.5q15 0 31.5 3.5t33.5 9.5v-53q-17 -7 -36 -10.5t-38 -3.5q-30 0 -56.5 9.5t-43.5 30.5t-17 55q0 24 11 45.5t35.5 42t65.5 39.5z" />
    <glyph glyph-name="tilde" unicode="&#x2dc;" horiz-adv-x="323" 
d="M13 609q7 48 31.5 72t61.5 24q26 0 43.5 -11.5t33 -23t36.5 -11.5q16 0 28.5 9.5t15.5 31.5h47q-6 -47 -31.5 -71t-62.5 -24q-27 0 -45 11.5t-33 23t-35 11.5q-17 0 -28.5 -9.5t-14.5 -32.5h-47z" />
    <glyph glyph-name="hungarumlaut" unicode="&#x2dd;" horiz-adv-x="309" 
d="M149 747l-82 -146h-54l66 146h70zM297 747l-88 -146h-54l71 146h71z" />
    <glyph glyph-name="uni0394" unicode="&#x394;" horiz-adv-x="683" 
d="M308 700h66l283 -638v-62h-632v62zM340 599l-233 -529h468z" />
    <glyph glyph-name="uni03A9" unicode="&#x3a9;" horiz-adv-x="789" 
d="M207 64q-53 26 -90 69.5t-55.5 99.5t-18.5 118q0 79 27 144t75 112.5t112 73.5t138 26q73 0 137 -26t112 -73.5t75.5 -112.5t27.5 -144q0 -62 -19 -118t-56 -99.5t-90 -69.5h151v-64h-276v66q61 14 108 51.5t74 95.5t27 133q0 66 -20.5 119.5t-57.5 91t-86.5 57.5
t-106.5 20q-59 0 -108.5 -20.5t-86 -58.5t-56.5 -91t-20 -118q0 -75 27 -133t74 -95.5t108 -51.5v-66h-276v64h150z" />
    <glyph glyph-name="uni03BC" unicode="&#x3bc;" horiz-adv-x="600" 
d="M524 0h-80v501h80v-501zM157 -200h-80v701h80v-271q0 -85 40 -127.5t104 -42.5q63 0 103 41.5t40 126.5v0l25 -66q-8 -57 -35 -95t-67 -57t-86 -19q-24 0 -47.5 6.5t-43.5 21t-33 39.5v-258z" />
    <glyph glyph-name="pi" unicode="&#x3c0;" horiz-adv-x="645" 
d="M38 501h569v-70h-72v-431h-80v431h-265v-431h-80v431h-72v70z" />
    <glyph glyph-name="Wgrave" unicode="&#x1e80;" horiz-adv-x="971" 
d="M371 939l208 -126v-60l-208 116v70zM313 0h-88l-197 700h85l156 -603l172 603h89l171 -602l157 602h84l-197 -700h-88l-172 580z" />
    <glyph glyph-name="wgrave" unicode="&#x1e81;" horiz-adv-x="754" 
d="M274 715l188 -113v-54l-188 105v62zM251 0h-68l-157 500h76l115 -407l129 407h68l127 -406l114 406h74l-156 -500h-69l-126 388z" />
    <glyph glyph-name="Wacute" unicode="&#x1e82;" horiz-adv-x="971" 
d="M579 939v-71l-208 -115v60zM313 0h-88l-197 700h85l156 -603l172 603h89l171 -602l157 602h84l-197 -700h-88l-172 580z" />
    <glyph glyph-name="wacute" unicode="&#x1e83;" horiz-adv-x="754" 
d="M462 715v-63l-188 -104v54zM251 0h-68l-157 500h76l115 -407l129 407h68l127 -406l114 406h74l-156 -500h-69l-126 388z" />
    <glyph glyph-name="Wdieresis" unicode="&#x1e84;" horiz-adv-x="971" 
d="M406 785q-21 0 -35 14t-14 34q0 21 14 35.5t35 14.5q20 0 34.5 -14.5t14.5 -35.5q0 -20 -14.5 -34t-34.5 -14zM564 785q-21 0 -35 14t-14 34q0 21 14 35.5t35 14.5q20 0 34.5 -14.5t14.5 -35.5q0 -20 -14.5 -34t-34.5 -14zM313 0h-88l-197 700h85l156 -603l172 603h89
l171 -602l157 602h84l-197 -700h-88l-172 580z" />
    <glyph glyph-name="wdieresis" unicode="&#x1e85;" horiz-adv-x="754" 
d="M306 577q-19 0 -32 12.5t-13 30.5t13 31.5t32 13.5q18 0 31 -13.5t13 -31.5t-13 -30.5t-31 -12.5zM448 577q-19 0 -31.5 12.5t-12.5 30.5t12.5 31.5t31.5 13.5q18 0 31.5 -13.5t13.5 -31.5t-13.5 -30.5t-31.5 -12.5zM251 0h-68l-157 500h76l115 -407l129 407h68l127 -406
l114 406h74l-156 -500h-69l-126 388z" />
    <glyph glyph-name="uni1EBC" unicode="&#x1ebc;" horiz-adv-x="609" 
d="M168 763q7 48 31.5 72t61.5 24q27 0 44 -11.5t32.5 -23t36.5 -11.5q17 0 29 10t15 31h47q-6 -47 -31.5 -71t-62.5 -24q-27 0 -44.5 11.5t-33 23t-35.5 11.5q-17 0 -28.5 -9.5t-14.5 -32.5h-47zM544 630h-379v-239h285v-70h-285v-251h379v-70h-459v700h459v-70z" />
    <glyph glyph-name="uni1EBD" unicode="&#x1ebd;" horiz-adv-x="564" 
d="M154 557q6 43 28.5 65t55.5 22q24 0 39.5 -10.5t29.5 -21t33 -10.5q15 0 26 8.5t14 28.5h42q-5 -43 -28 -64.5t-57 -21.5q-24 0 -40 10.5t-30 21t-32 10.5q-15 0 -25.5 -9t-13.5 -29h-42zM287 -7q-70 0 -124.5 34t-85.5 93t-31 135q0 73 31 130t85 89.5t123 32.5
q68 0 121.5 -30t83.5 -83t28 -121q0 -11 -1 -23t-2 -26h-387q2 -47 23 -83t55.5 -56.5t78.5 -20.5q58 0 98.5 22t58.5 63l65 -26q-30 -63 -87 -96.5t-133 -33.5zM436 289q1 43 -18.5 76t-54.5 52t-81 19q-40 0 -73 -19t-54.5 -52.5t-25.5 -75.5h307z" />
    <glyph glyph-name="Ygrave" unicode="&#x1ef2;" horiz-adv-x="649" 
d="M210 939l208 -126v-60l-208 116v70zM531 700h89l-256 -431v-269h-80v268l-256 432h89l207 -355z" />
    <glyph glyph-name="ygrave" unicode="&#x1ef3;" horiz-adv-x="513" 
d="M153 715l188 -113v-54l-188 105v62zM416 500h78l-286 -700h-72l85 207l-202 493h82l160 -404z" />
    <glyph glyph-name="uni1EF8" unicode="&#x1ef8;" horiz-adv-x="649" 
d="M178 763q7 48 32 72t61 24q27 0 44 -11.5t32.5 -23t36.5 -11.5q17 0 29 10t15 31h47q-6 -47 -31.5 -71t-62.5 -24q-27 0 -44.5 11.5t-33 23t-35.5 11.5q-17 0 -28.5 -9.5t-14.5 -32.5h-47zM531 700h89l-256 -431v-269h-80v268l-256 432h89l207 -355z" />
    <glyph glyph-name="uni1EF9" unicode="&#x1ef9;" horiz-adv-x="513" 
d="M124 557q6 43 28.5 65t55.5 22q24 0 39.5 -10.5t29.5 -21t33 -10.5q15 0 26 8.5t14 28.5h43q-6 -43 -29 -64.5t-56 -21.5q-25 0 -41 10.5t-29.5 21t-31.5 10.5q-16 0 -26.5 -9t-12.5 -29h-43zM416 500h78l-286 -700h-72l85 207l-202 493h82l160 -404z" />
    <glyph glyph-name="endash" unicode="&#x2013;" horiz-adv-x="634" 
d="M55 312h523v-67h-523v67z" />
    <glyph glyph-name="emdash" unicode="&#x2014;" horiz-adv-x="837" 
d="M55 312h726v-67h-726v67z" />
    <glyph glyph-name="quoteleft" unicode="&#x2018;" horiz-adv-x="250" 
d="M207 700l-58 -220h-90l91 220h57z" />
    <glyph glyph-name="quoteright" unicode="&#x2019;" horiz-adv-x="250" 
d="M43 480l58 220h90l-91 -220h-57z" />
    <glyph glyph-name="quotesinglbase" unicode="&#x201a;" horiz-adv-x="251" 
d="M43 -100l59 220h90l-91 -220h-58z" />
    <glyph glyph-name="quotedblleft" unicode="&#x201c;" horiz-adv-x="403" 
d="M208 700l-58 -220h-90l91 220h57zM361 700l-58 -220h-90l91 220h57z" />
    <glyph glyph-name="quotedblright" unicode="&#x201d;" horiz-adv-x="403" 
d="M196 480l58 220h90l-91 -220h-57zM43 480l58 220h90l-91 -220h-57z" />
    <glyph glyph-name="quotedblbase" unicode="&#x201e;" horiz-adv-x="406" 
d="M43 -100l59 220h90l-91 -220h-58zM199 -100l58 220h90l-91 -220h-57z" />
    <glyph glyph-name="dagger" unicode="&#x2020;" horiz-adv-x="558" 
d="M500 567v-64l-190 8l8 -611h-78l8 611l-191 -8v64l191 -7l-8 240h78l-8 -240z" />
    <glyph glyph-name="daggerdbl" unicode="&#x2021;" horiz-adv-x="558" 
d="M500 503l-190 8v-321l190 7v-64l-190 8l8 -241h-79l8 241l-190 -8v64l190 -7v321l-190 -8v64l190 -7l-8 240h79l-8 -240l190 7v-64z" />
    <glyph glyph-name="bullet" unicode="&#x2022;" horiz-adv-x="442" 
d="M220 215q-32 0 -59 16t-43 42.5t-16 59.5q0 34 16 60.5t43 42.5t59 16q34 0 61 -16t43 -42.5t16 -60.5q0 -33 -16 -59.5t-43 -42.5t-61 -16z" />
    <glyph glyph-name="ellipsis" unicode="&#x2026;" horiz-adv-x="596" 
d="M298 -5q-23 0 -38.5 16t-15.5 39t15.5 39t38.5 16q22 0 38 -16t16 -39t-16 -39t-38 -16zM479 -5q-23 0 -38.5 16t-15.5 39t15.5 39t38.5 16q22 0 38 -16t16 -39t-16 -39t-38 -16zM118 -5q-23 0 -38.5 16t-15.5 39t15.5 39t38.5 16q22 0 38 -16t16 -39t-16 -39t-38 -16z
" />
    <glyph glyph-name="perthousand" unicode="&#x2030;" horiz-adv-x="998" 
d="M51 563q0 66 40.5 105t102.5 39q61 0 102 -39t41 -105q0 -67 -41 -106t-102 -39q-62 0 -102.5 39t-40.5 106zM194 657q-36 0 -57.5 -24.5t-21.5 -69.5q0 -46 21.5 -70.5t57.5 -24.5q35 0 57 24.5t22 70.5q0 45 -22 69.5t-57 24.5zM501 700h78l-407 -700h-79zM336 137
q0 67 40.5 106t102.5 39q61 0 101.5 -39t40.5 -106q0 -66 -40.5 -105t-101.5 -39q-62 0 -102.5 39t-40.5 105zM478 232q-35 0 -57 -24.5t-22 -70.5q0 -45 22 -69t57 -24q36 0 57.5 24t21.5 69q0 46 -21.5 70.5t-57.5 24.5zM661 137q0 67 41 106t102 39t102 -39t41 -106
q0 -66 -41 -105t-102 -39t-102 39t-41 105zM804 232q-36 0 -57.5 -24.5t-21.5 -70.5q0 -45 21.5 -69t57.5 -24q35 0 57 24t22 69q0 46 -22 70.5t-57 24.5z" />
    <glyph glyph-name="guilsinglleft" unicode="&#x2039;" horiz-adv-x="271" 
d="M220 75h-79l-98 175l98 175h79l-101 -175z" />
    <glyph glyph-name="guilsinglright" unicode="&#x203a;" horiz-adv-x="270" 
d="M51 75l101 175l-101 175h79l98 -175l-98 -175h-79z" />
    <glyph glyph-name="fraction" unicode="&#x2044;" horiz-adv-x="568" 
d="M445 720h81l-402 -740h-81z" />
    <glyph glyph-name="uni2074" unicode="&#x2074;" horiz-adv-x="367" 
d="M226 350v79h-188v34l179 237h58v-226h47v-45h-47v-79h-49zM227 647l-127 -173h127v173z" />
    <glyph glyph-name="uni20A8" unicode="&#x20a8;" horiz-adv-x="1068" 
d="M489 493q0 63 -37 100t-121 37h-166v-274h167q55 0 89.5 17t51 48t16.5 72zM331 700q82 0 134.5 -28t78.5 -74.5t26 -104.5q0 -41 -13.5 -78t-42.5 -66t-74 -46t-108 -17h-167v-286h-80v700h246zM389 316l194 -316h-91l-189 316h86zM711 153q6 -30 22 -49.5t41.5 -29.5
t59.5 -10q53 0 80.5 20.5t27.5 51.5q0 26 -16.5 42t-43.5 26.5t-60 18.5q-26 6 -56 14.5t-57 23.5t-44 39t-17 63q0 43 23.5 75.5t65 50.5t95.5 18q62 0 110.5 -27t67.5 -84l-70 -24q-7 26 -25.5 40t-41 19t-44.5 5q-45 0 -72.5 -17.5t-27.5 -52.5q0 -19 9 -31.5t25 -20.5
t38 -13.5t48 -12.5q29 -7 59 -17.5t56 -27t42.5 -42t16.5 -63.5q0 -44 -24 -76.5t-66.5 -50.5t-98.5 -18q-77 0 -127.5 34.5t-67.5 101.5z" />
    <glyph glyph-name="Euro" unicode="&#x20ac;" horiz-adv-x="785" 
d="M28 401v55h430v-55h-430zM28 236v57h430v-57h-430zM63 350q0 79 26 144.5t73.5 113t110 73.5t136.5 26q108 0 189.5 -50t123.5 -142l-65 -24q-23 49 -61 80.5t-86 47.5t-101 16q-75 0 -135 -34t-94.5 -98t-34.5 -153q0 -88 34.5 -152t94.5 -98.5t135 -34.5q54 0 103 17
t88.5 53t63.5 90l65 -24q-43 -103 -126 -155.5t-194 -52.5q-74 0 -136.5 26t-110 74t-73.5 113.5t-26 143.5z" />
    <glyph glyph-name="indianrupee" unicode="&#x20b9;" horiz-adv-x="633" 
d="M460 663v-120q0 -75 -13.5 -125t-46 -79.5t-88 -42t-139.5 -12.5v-84q0 -64 28.5 -104t97.5 -40q64 0 93 36.5t29 100.5h74q-2 -100 -53.5 -150t-144.5 -50q-99 0 -149 55.5t-50 151.5v140q97 0 154.5 6.5t86.5 27t38 61.5t9 109v119h74zM51 700h544v-59h-544v59zM51 466
v58h544v-58h-544z" />
    <glyph glyph-name="turkishlira" unicode="&#x20ba;" horiz-adv-x="842" 
d="M181 700v-687q43 -10 82.5 -15t76.5 -5q126 0 206 48.5t117.5 144.5t37.5 237h-81q0 -86 -16 -152t-50 -111.5t-87 -69t-127 -23.5q-19 0 -38.5 2t-39.5 6v625h-81zM447 491v59l-434 -112v-56zM444 324v58l-429 -107v-59z" />
    <glyph glyph-name="uni20BD" unicode="&#x20bd;" horiz-adv-x="605" 
d="M25 359h303q84 0 120.5 38t36.5 99q0 66 -36.5 103.5t-120.5 37.5h-138v-637h-79v700h217q82 0 134.5 -27t78 -73t25.5 -104q0 -55 -24.5 -100.5t-77 -73t-136.5 -27.5h-303v64zM25 192h392v-64h-392v64z" />
    <glyph glyph-name="uni2113" unicode="&#x2113;" horiz-adv-x="279" 
d="M103 720h75v-720h-75v720z" />
    <glyph glyph-name="trademark" unicode="&#x2122;" horiz-adv-x="789" 
d="M25 700h239v-50h-87v-300h-64v300h-88v50zM320 700h81l127 -305h-24l131 305h77v-350h-60v300l19 6l-134 -306h-46l-131 306l18 -6v-300h-58v350z" />
    <glyph glyph-name="uni2126" unicode="&#x2126;" horiz-adv-x="789" 
d="M207 64q-53 26 -90 69.5t-55.5 99.5t-18.5 118q0 79 27 144.5t75 113t112 73.5t138 26q73 0 137 -26t112 -73.5t75.5 -113t27.5 -144.5q0 -62 -19 -118t-56 -99.5t-90 -69.5h151v-64h-276v66q61 14 108 51.5t74 95.5t27 133q0 66 -20.5 119.5t-57.5 91.5t-86.5 58
t-106.5 20q-59 0 -108.5 -20.5t-86 -58.5t-56.5 -91.5t-20 -118.5q0 -75 27 -133t74 -95.5t108 -51.5v-66h-276v64h150z" />
    <glyph glyph-name="estimated" unicode="&#x212e;" horiz-adv-x="768" 
d="M689 137q-62 -66 -135.5 -105t-160.5 -39q-98 0 -175 40t-122 116t-45 184q0 80 22 148.5t64.5 119t104.5 78.5t142 28t142 -26.5t104.5 -72t64.5 -105t22 -125.5v-61h-539v-169q40 -49 90.5 -74.5t124.5 -25.5q51 0 94 15.5t83 45t81 69.5zM580 378v183q-32 44 -82 67.5
t-114 23.5t-117 -24.5t-89 -77.5v-172h402z" />
    <glyph glyph-name="partialdiff" unicode="&#x2202;" horiz-adv-x="561" 
d="M431 276q0 43 -13.5 80.5t-42.5 60.5t-74 23q-48 0 -90 -28.5t-67.5 -78.5t-25.5 -115q0 -73 35 -115t93 -42q48 0 90.5 27.5t68.5 76t26 111.5zM38 209q0 64 20 118t56.5 94.5t84.5 63t104 22.5q33 0 62 -9.5t50 -33.5t32 -66q-5 60 -15 111t-30 88.5t-52 58t-80 20.5
q-10 0 -28 -2t-41 -8v48q22 6 45.5 9.5t45.5 3.5q57 0 100.5 -22t72.5 -65.5t43.5 -108.5t14.5 -150q0 -108 -22 -182.5t-60.5 -120t-88.5 -65.5t-105 -20q-63 0 -110 24t-73 72.5t-26 119.5z" />
    <glyph glyph-name="uni2206" unicode="&#x2206;" horiz-adv-x="683" 
d="M308 700h66l283 -638v-62h-632v62zM340 610l-234 -548h470z" />
    <glyph glyph-name="product" unicode="&#x220f;" horiz-adv-x="726" 
d="M38 700h650v-63h-81v-637h-78v637h-332v-637h-79v637h-80v63z" />
    <glyph glyph-name="summation" unicode="&#x2211;" horiz-adv-x="486" 
d="M51 700h384v-62h-330l-5 19l286 -275v-63l-286 -275l-3 18h338v-62h-384v91l263 257l-263 261v91z" />
    <glyph glyph-name="minus" unicode="&#x2212;" horiz-adv-x="521" 
d="M64 384h394v-68h-394v68z" />
    <glyph glyph-name="uni2215" unicode="&#x2215;" horiz-adv-x="461" 
d="M380 700h81l-380 -700h-81z" />
    <glyph glyph-name="radical" unicode="&#x221a;" horiz-adv-x="712" 
d="M642 800h59l-430 -800h-39l-121 213l-63 -36l-25 42l130 76l125 -219l-21 7z" />
    <glyph glyph-name="infinity" unicode="&#x221e;" horiz-adv-x="673" 
d="M25 349q0 46 20.5 78.5t54.5 50t76 17.5q41 0 71.5 -17t55 -43t46 -56t43 -56t46 -43t55.5 -17q39 0 63 23.5t24 63.5q0 41 -23 63t-63 22q-44 0 -81 -33.5t-56 -83.5l-38 30q12 37 36.5 70.5t61 55.5t83.5 21q42 0 75.5 -17.5t52.5 -49.5t19 -78t-20 -78.5t-54.5 -50
t-76.5 -17.5q-40 0 -71.5 17t-57 43t-47.5 56t-43.5 56t-45 43t-52.5 17q-39 0 -63 -23t-24 -64q0 -40 23.5 -62.5t62.5 -22.5q45 0 82 33.5t56 83.5l37 -30q-11 -36 -35.5 -70t-61.5 -55.5t-84 -21.5q-63 1 -105 39t-42 106z" />
    <glyph glyph-name="integral" unicode="&#x222b;" horiz-adv-x="249" 
d="M131 668q7 46 24 75.5t46 43t71 13.5h23l-8 -67h-18q-25 0 -39.5 -14t-19.5 -51l-92 -634q-7 -47 -23 -76.5t-44.5 -43.5t-72.5 -14h-24l6 66h21q29 0 40 14.5t17 53.5z" />
    <glyph glyph-name="approxequal" unicode="&#x2248;" horiz-adv-x="502" 
d="M39 180q12 69 46 103t86 34q27 0 49 -10t41 -23.5t38 -23.5t40 -10q26 0 44 18t22 48h60q-12 -70 -46 -103.5t-86 -33.5q-28 0 -49.5 10t-40.5 23.5t-37.5 23.5t-40.5 10q-27 0 -45 -18.5t-22 -47.5h-59zM39 385q12 69 46 103t86 34q27 0 49 -10t41 -23.5t38 -23.5
t40 -10q26 0 44 18t22 48h60q-12 -70 -46 -103.5t-86 -33.5q-28 0 -49.5 10t-40.5 23.5t-37.5 23.5t-40.5 10q-27 0 -45 -18.5t-22 -47.5h-59z" />
    <glyph glyph-name="notequal" unicode="&#x2260;" horiz-adv-x="667" 
d="M503 589h62l-402 -477h-61zM76 280h514v-68h-514v68zM76 489h514v-68h-514v68z" />
    <glyph glyph-name="lessequal" unicode="&#x2264;" horiz-adv-x="502" 
d="M69 159h348v-61h-348v61zM417 217h-105l-248 192l248 193h105l-255 -201v17z" />
    <glyph glyph-name="greaterequal" unicode="&#x2265;" horiz-adv-x="502" 
d="M85 217l255 201v-17l-255 201h105l248 -193l-248 -192h-105zM433 159v-61h-347v61h347z" />
    <glyph glyph-name="lozenge" unicode="&#x25ca;" horiz-adv-x="552" 
d="M277 589l237 -238l-238 -239l-238 239zM277 503l-152 -152l151 -153l152 153z" />
    <glyph glyph-name="uniA732" unicode="&#xa732;" horiz-adv-x="1246" 
d="M354 630h-33l-231 -630h-81l256 700h144l255 -700h-81zM134 254h408v-70h-408v70zM928 630h-33l-231 -630h-81l256 700h144l255 -700h-81zM708 254h408v-70h-408v70z" />
    <glyph glyph-name="g.ss02" horiz-adv-x="612" 
d="M463 500h73v-408q0 -61 -17.5 -113t-52.5 -91.5t-86 -62.5t-118 -24.5t-149 22.5l19 68q77 -22 137 -17t101.5 33t63.5 75.5t22 109.5v11h8q-23 -44 -71 -76.5t-118 -33.5q-69 0 -120.5 31.5t-80 89.5t-28.5 136t28.5 135.5t80 89.5t120.5 32q67 0 113 -28.5t70 -69.5z
M127 250q0 -60 21 -102t58.5 -64t85.5 -22q46 0 83.5 22.5t59 64.5t21.5 101t-21.5 100.5t-59 64t-83.5 22.5q-48 0 -85.5 -22t-58.5 -63.5t-21 -101.5z" />
    <glyph glyph-name="comma.ss01" horiz-adv-x="192" 
d="M130 84q6 -23 8.5 -44t2.5 -39q0 -63 -27 -91.5t-76 -28.5v42q26 0 38 15.5t12 44.5v18h-50v83h92z" />
    <glyph glyph-name="quotedblleft.ss01" horiz-adv-x="299" 
d="M175 524q-5 26 -7.5 47.5t-2.5 40.5q0 57 25 82.5t71 25.5v-39q-26 0 -37 -13.5t-11 -39.5v-23h48v-81h-86zM48 524q-5 26 -7.5 47.5t-2.5 40.5q0 57 25 82.5t70 25.5v-39q-25 0 -36 -13.5t-11 -39.5v-23h48v-81h-86z" />
    <glyph glyph-name="quotedblright.ss01" horiz-adv-x="300" 
d="M251 720q6 -25 8 -47.5t2 -40.5q0 -57 -24.5 -82.5t-71.5 -25.5v39q26 0 37 13t11 39v24h-48v81h86zM123 720q6 -25 8.5 -47.5t2.5 -40.5q0 -57 -24.5 -82.5t-71.5 -25.5v39q26 0 36.5 13t10.5 39v24h-47v81h85z" />
    <glyph glyph-name="quoteleft.ss01" horiz-adv-x="172" 
d="M48 524q-5 26 -7.5 47.5t-2.5 40.5q0 57 25 82.5t70 25.5v-39q-25 0 -36 -13.5t-11 -39.5v-23h48v-81h-86z" />
    <glyph glyph-name="quoteright.ss01" horiz-adv-x="172" 
d="M123 720q6 -25 8.5 -47.5t2.5 -40.5q0 -57 -24.5 -82.5t-71.5 -25.5v39q26 0 36.5 13t10.5 39v24h-47v81h85z" />
    <glyph glyph-name="ampersand.ss03" horiz-adv-x="677" 
d="M411 592q-15 23 -45 33.5t-67 10.5q-64 0 -100.5 -31.5t-36.5 -91.5q0 -50 48.5 -81t142.5 -31h267v-70h-266q-104 0 -154.5 -33.5t-50.5 -106.5q0 -62 37 -94.5t108 -32.5q79 0 120 38t41 112v263h77v-263q0 -107 -61.5 -164t-176.5 -57q-106 0 -166 51t-60 140
q0 75 38 120t110 61v5q-61 11 -98 54.5t-37 96.5q0 57 27 98.5t75.5 64.5t112.5 23q58 0 102 -19t71 -55zM469 633l-58 -41z" />
    <glyph glyph-name="ampersand.ss04" horiz-adv-x="724" 
d="M408 549q1 30 -12 51t-34 31.5t-47 10.5q-43 0 -70 -24t-27 -62q0 -32 18 -61.5t54 -66.5l425 -428h-103l-387 391q-31 31 -50 57t-27.5 52t-8.5 56q0 44 22 78t62.5 53.5t94.5 19.5q52 0 91 -20.5t59.5 -56t18.5 -81.5h-79zM299 381l-39 -13q-73 -24 -108 -64t-35 -97
q0 -41 20.5 -74t57 -52t84.5 -19q55 0 99.5 20.5t83.5 63t77 106.5l66 110h86l-79 -131q-48 -81 -97 -133.5t-106 -78.5t-130 -26q-71 0 -125.5 26.5t-85 74t-30.5 111.5q0 77 47.5 132.5t138.5 86.5l32 11z" />
    <glyph glyph-name="ampersand.ss05" horiz-adv-x="724" 
d="M408 549q1 30 -11.5 50.5t-34 31.5t-47.5 11q-43 0 -70 -24t-27 -62q0 -32 18 -61.5t54 -66.5l425 -428h-103l-387 391q-31 31 -50 57t-27.5 52t-8.5 56q0 44 22 78t62.5 53.5t94.5 19.5q52 0 91.5 -20.5t60.5 -56t17 -81.5q-3 -43 -23 -76t-56.5 -54.5t-88.5 -31.5
l-46 53q63 12 98.5 38.5t36.5 70.5zM299 381l-39 -13q-73 -24 -108 -64t-35 -97q0 -41 20.5 -74t57 -52t84.5 -19q55 0 99.5 20.5t83.5 63t77 106.5l66 110h86l-79 -131q-48 -81 -97 -133.5t-106 -78.5t-130 -26q-71 0 -125.5 26.5t-85 74t-30.5 111.5q0 77 47.5 132.5
t138.5 86.5l32 11z" />
    </font>
</defs>
</svg>
