<svg width="25" height="25" viewBox="0 0 25 25" fill="none" xmlns="http://www.w3.org/2000/svg">
<path d="M14.8936 12.687L11.3936 14.687V10.687L14.8936 12.687Z" fill="#301B0A" stroke="#301B0A" stroke-width="2" stroke-linecap="round" stroke-linejoin="round"/>
<path d="M2.89258 13.393V11.9779C2.89258 9.0826 2.89258 7.63494 3.79807 6.70347C4.70357 5.772 6.12914 5.73168 8.98027 5.65104C10.3313 5.61283 11.7114 5.58545 12.8926 5.58545C14.0738 5.58545 15.4539 5.61283 16.8049 5.65104C19.656 5.73168 21.0816 5.772 21.9871 6.70347C22.8926 7.63494 22.8926 9.0826 22.8926 11.9779V13.393C22.8926 16.2883 22.8926 17.736 21.9871 18.6674C21.0816 19.5989 19.6561 19.6392 16.805 19.7199C15.4539 19.7581 14.0738 19.7855 12.8926 19.7855C11.7114 19.7855 10.3312 19.7581 8.98018 19.7199C6.12909 19.6392 4.70355 19.5989 3.79806 18.6674C2.89258 17.736 2.89258 16.2883 2.89258 13.393Z" stroke="#301B0A" stroke-width="2"/>
</svg>
