<svg width="24" height="24" viewBox="0 0 24 24" fill="none" xmlns="http://www.w3.org/2000/svg">
<path d="M12 2C6.47715 2 2 6.47715 2 12C2 17.5228 6.47715 22 12 22C17.5228 22 22 17.5228 22 12C22 6.47715 17.5228 2 12 2Z" stroke="#301B0A" stroke-width="2" stroke-linecap="round" stroke-linejoin="round"/>
<path d="M4.27148 18.3455C4.27148 18.3455 6.5005 15.4998 12.0005 15.4998C17.5005 15.4998 19.7296 18.3455 19.7296 18.3455" stroke="#301B0A" stroke-width="2" stroke-linecap="round" stroke-linejoin="round"/>
<path d="M12.002 12.0002C13.6589 12.0002 15.002 10.6571 15.002 9.00024C15.002 7.34339 13.6589 6.00024 12.002 6.00024C10.3451 6.00024 9.00195 7.34339 9.00195 9.00024C9.00195 10.6571 10.3451 12.0002 12.002 12.0002Z" stroke="#301B0A" stroke-width="2" stroke-linecap="round" stroke-linejoin="round"/>
</svg>
