<svg width="253" height="17" viewBox="0 0 253 17" fill="none" xmlns="http://www.w3.org/2000/svg">
<path d="M7.56873 6.41905C8.15673 6.41905 8.63673 6.32905 9.00873 6.14905C9.39273 5.95705 9.67473 5.69305 9.85473 5.35705C10.0347 5.02105 10.1247 4.63105 10.1247 4.18705C10.1247 3.47905 9.92073 2.92705 9.51273 2.53105C9.10473 2.13505 8.45673 1.93705 7.56873 1.93705H4.67073V6.41905H7.56873ZM11.9247 4.18705C11.9247 4.64305 11.8467 5.09905 11.6907 5.55505C11.5347 5.99905 11.2827 6.40105 10.9347 6.76105C10.5867 7.12105 10.1307 7.40905 9.56673 7.62505C9.01473 7.82905 8.34873 7.93105 7.56873 7.93105H4.67073V13.025H2.87073V0.425049H7.56873C8.55273 0.425049 9.36273 0.599049 9.99873 0.94705C10.6467 1.28305 11.1267 1.73905 11.4387 2.31505C11.7627 2.87905 11.9247 3.50305 11.9247 4.18705Z" fill="#301B0A"/>
<path d="M17.1624 13.151C16.2984 13.151 15.5304 12.953 14.8584 12.557C14.1984 12.149 13.6764 11.591 13.2924 10.883C12.9204 10.175 12.7344 9.36505 12.7344 8.45305C12.7344 7.57705 12.9204 6.79705 13.2924 6.11305C13.6644 5.42905 14.1744 4.88905 14.8224 4.49305C15.4824 4.09705 16.2264 3.89905 17.0545 3.89905C17.8944 3.89905 18.6384 4.08505 19.2864 4.45705C19.9344 4.81705 20.4385 5.32705 20.7985 5.98705C21.1585 6.63505 21.3324 7.38505 21.3204 8.23705C21.3204 8.38105 21.3145 8.53105 21.3025 8.68705C21.2904 8.83105 21.2724 8.99305 21.2484 9.17305H14.5884C14.6244 9.65305 14.7564 10.079 14.9844 10.451C15.2244 10.811 15.5244 11.093 15.8844 11.297C16.2564 11.501 16.6764 11.603 17.1444 11.603C17.7444 11.603 18.2664 11.489 18.7104 11.261C19.1544 11.021 19.4665 10.703 19.6465 10.307L21.1224 10.829C20.7625 11.561 20.2345 12.131 19.5385 12.539C18.8545 12.947 18.0624 13.151 17.1624 13.151ZM19.4664 7.71505C19.4664 7.28305 19.3585 6.89305 19.1425 6.54505C18.9265 6.19705 18.6325 5.92705 18.2605 5.73505C17.9005 5.53105 17.4924 5.42905 17.0364 5.42905C16.6284 5.42905 16.2504 5.53105 15.9024 5.73505C15.5664 5.92705 15.2784 6.19705 15.0384 6.54505C14.8104 6.88105 14.6664 7.27105 14.6064 7.71505H19.4664Z" fill="#301B0A"/>
<path d="M23.399 4.02505H24.947L25.055 5.23105C25.307 4.91905 25.595 4.66105 25.919 4.45705C26.255 4.24105 26.615 4.09105 26.999 4.00705C27.395 3.92305 27.803 3.92905 28.223 4.02505V5.62705C27.827 5.53105 27.443 5.51905 27.071 5.59105C26.699 5.66305 26.363 5.81905 26.063 6.05905C25.775 6.28705 25.541 6.59305 25.361 6.97705C25.181 7.36105 25.091 7.82305 25.091 8.36305V13.025H23.399V4.02505Z" fill="#301B0A"/>
<path d="M30.9461 10.181C31.0301 10.541 31.1741 10.823 31.3781 11.027C31.5821 11.231 31.8221 11.381 32.0981 11.477C32.3861 11.561 32.6861 11.603 32.9981 11.603C33.5381 11.603 33.9581 11.495 34.2581 11.279C34.5581 11.063 34.7081 10.793 34.7081 10.469C34.7081 10.193 34.6121 9.97705 34.4201 9.82105C34.2401 9.65305 33.9941 9.52105 33.6821 9.42505C33.3821 9.32905 33.0581 9.23905 32.7101 9.15505C32.3981 9.07105 32.0561 8.97505 31.6841 8.86705C31.3241 8.75905 30.9821 8.61505 30.6581 8.43505C30.3461 8.24305 30.0881 8.00305 29.8841 7.71505C29.6801 7.41505 29.5781 7.03705 29.5781 6.58105C29.5781 6.04105 29.7221 5.57305 30.0101 5.17705C30.3101 4.76905 30.7181 4.45705 31.2341 4.24105C31.7621 4.01305 32.3561 3.89905 33.0161 3.89905C33.7841 3.89905 34.4561 4.06705 35.0321 4.40305C35.6201 4.72705 36.0461 5.21905 36.3101 5.87905L34.7801 6.38305C34.6961 6.15505 34.5581 5.96905 34.3661 5.82505C34.1741 5.68105 33.9521 5.58505 33.7001 5.53705C33.4601 5.47705 33.2201 5.44705 32.9801 5.44705C32.5241 5.44705 32.1461 5.53705 31.8461 5.71705C31.5461 5.89705 31.3961 6.16105 31.3961 6.50905C31.3961 6.70105 31.4441 6.86305 31.5401 6.99505C31.6361 7.11505 31.7681 7.21705 31.9361 7.30105C32.1161 7.37305 32.3261 7.43905 32.5661 7.49905C32.8061 7.55905 33.0641 7.62505 33.3401 7.69705C33.7001 7.80505 34.0661 7.92505 34.4381 8.05705C34.8101 8.17705 35.1521 8.33305 35.4641 8.52505C35.7761 8.71705 36.0281 8.96905 36.2201 9.28105C36.4121 9.59305 36.5141 9.97705 36.5261 10.433C36.5261 10.961 36.3761 11.429 36.0761 11.837C35.7881 12.245 35.3741 12.569 34.8341 12.809C34.3061 13.037 33.6761 13.151 32.9441 13.151C32.0561 13.151 31.3001 12.953 30.6761 12.557C30.0521 12.161 29.6321 11.549 29.4161 10.721L30.9461 10.181Z" fill="#301B0A"/>
<path d="M42.5285 13.151C41.6765 13.151 40.9085 12.9651 40.2245 12.5931C39.5525 12.209 39.0245 11.675 38.6405 10.991C38.2565 10.295 38.0645 9.47905 38.0645 8.54305C38.0645 7.59505 38.2625 6.77305 38.6585 6.07705C39.0545 5.38105 39.5945 4.84705 40.2785 4.47505C40.9625 4.09105 41.7305 3.89905 42.5825 3.89905C43.4345 3.89905 44.2025 4.09105 44.8865 4.47505C45.5825 4.84705 46.1285 5.38105 46.5245 6.07705C46.9205 6.76105 47.1185 7.57105 47.1185 8.50705C47.1185 9.45505 46.9145 10.277 46.5065 10.973C46.1105 11.669 45.5645 12.209 44.8685 12.5931C44.1725 12.9651 43.3925 13.151 42.5285 13.151ZM42.5105 11.603C42.9905 11.603 43.4405 11.495 43.8605 11.279C44.2805 11.051 44.6225 10.709 44.8865 10.253C45.1625 9.79705 45.3005 9.21505 45.3005 8.50705C45.3005 7.81105 45.1685 7.24105 44.9045 6.79705C44.6525 6.34105 44.3165 6.00505 43.8965 5.78905C43.4765 5.56105 43.0265 5.44705 42.5465 5.44705C42.0785 5.44705 41.6405 5.56105 41.2325 5.78905C40.8365 6.00505 40.5125 6.34105 40.2605 6.79705C40.0085 7.25305 39.8825 7.83505 39.8825 8.54305C39.8825 9.23905 40.0025 9.81505 40.2425 10.271C40.4945 10.715 40.8185 11.051 41.2145 11.279C41.6105 11.495 42.0425 11.603 42.5105 11.603Z" fill="#301B0A"/>
<path d="M49.1861 4.02505H50.7341L50.8421 5.06905C51.1301 4.69705 51.4961 4.40905 51.9401 4.20505C52.3841 4.00105 52.8761 3.89905 53.4161 3.89905C54.1121 3.89905 54.7121 4.04905 55.2161 4.34905C55.7321 4.63705 56.1281 5.06905 56.4041 5.64505C56.6921 6.22105 56.8361 6.94105 56.8361 7.80505V13.025H55.1441V8.02105C55.1441 7.18105 54.9641 6.54505 54.6041 6.11305C54.2561 5.66905 53.7461 5.44705 53.0741 5.44705C52.3781 5.44705 51.8381 5.67505 51.4541 6.13105C51.0701 6.57505 50.8781 7.23505 50.8781 8.11105V13.025H49.1861V4.02505Z" fill="#301B0A"/>
<path d="M60.0722 4.02505L62.6642 11.207L65.2742 4.02505H67.0742L63.5642 13.025H61.7282L58.2362 4.02505H60.0722Z" fill="#301B0A"/>
<path d="M72.516 13.151C71.652 13.151 70.884 12.953 70.212 12.557C69.552 12.149 69.03 11.591 68.646 10.883C68.274 10.175 68.088 9.36505 68.088 8.45305C68.088 7.57705 68.274 6.79705 68.646 6.11305C69.018 5.42905 69.528 4.88905 70.176 4.49305C70.836 4.09705 71.58 3.89905 72.408 3.89905C73.248 3.89905 73.992 4.08505 74.64 4.45705C75.288 4.81705 75.792 5.32705 76.152 5.98705C76.512 6.63505 76.686 7.38505 76.674 8.23705C76.674 8.38105 76.668 8.53105 76.656 8.68705C76.644 8.83105 76.626 8.99305 76.602 9.17305H69.942C69.978 9.65305 70.11 10.079 70.338 10.451C70.578 10.811 70.878 11.093 71.238 11.297C71.61 11.501 72.03 11.603 72.498 11.603C73.098 11.603 73.62 11.489 74.064 11.261C74.508 11.021 74.82 10.703 75 10.307L76.476 10.829C76.116 11.561 75.588 12.131 74.892 12.539C74.208 12.947 73.416 13.151 72.516 13.151ZM74.82 7.71505C74.82 7.28305 74.712 6.89305 74.496 6.54505C74.28 6.19705 73.986 5.92705 73.614 5.73505C73.254 5.53105 72.846 5.42905 72.39 5.42905C71.982 5.42905 71.604 5.53105 71.256 5.73505C70.92 5.92705 70.632 6.19705 70.392 6.54505C70.164 6.88105 70.02 7.27105 69.96 7.71505H74.82Z" fill="#301B0A"/>
<path d="M78.7525 4.02505H80.3005L80.4085 5.23105C80.6605 4.91905 80.9485 4.66105 81.2725 4.45705C81.6085 4.24105 81.9685 4.09105 82.3525 4.00705C82.7485 3.92305 83.1565 3.92905 83.5765 4.02505V5.62705C83.1805 5.53105 82.7965 5.51905 82.4245 5.59105C82.0525 5.66305 81.7165 5.81905 81.4165 6.05905C81.1285 6.28705 80.8945 6.59305 80.7145 6.97705C80.5345 7.36105 80.4445 7.82305 80.4445 8.36305V13.025H78.7525V4.02505Z" fill="#301B0A"/>
<path d="M85.2916 4.02505H86.8396L86.9476 5.06905C87.2356 4.69705 87.6016 4.40905 88.0456 4.20505C88.4896 4.00105 88.9816 3.89905 89.5216 3.89905C90.2176 3.89905 90.8176 4.04905 91.3216 4.34905C91.8376 4.63705 92.2336 5.06905 92.5096 5.64505C92.7976 6.22105 92.9416 6.94105 92.9416 7.80505V13.025H91.2496V8.02105C91.2496 7.18105 91.0696 6.54505 90.7096 6.11305C90.3616 5.66905 89.8516 5.44705 89.1796 5.44705C88.4836 5.44705 87.9436 5.67505 87.5596 6.13105C87.1756 6.57505 86.9836 7.23505 86.9836 8.11105V13.025H85.2916V4.02505Z" fill="#301B0A"/>
<path d="M1.44873 15.275H94.0936V16.175H1.44873V15.275Z" fill="#301B0A"/>
<path d="M108.358 0.659049C109.594 0.659049 110.674 0.935049 111.598 1.48705C112.534 2.03905 113.266 2.80105 113.794 3.77305C114.322 4.74505 114.586 5.85505 114.586 7.10305C114.586 8.36305 114.322 9.47305 113.794 10.4331C113.266 11.3931 112.534 12.149 111.598 12.701C110.674 13.241 109.588 13.511 108.34 13.511C107.104 13.511 106.018 13.241 105.082 12.701C104.146 12.149 103.414 11.3931 102.886 10.4331C102.358 9.47305 102.094 8.36305 102.094 7.10305C102.094 5.85505 102.358 4.74505 102.886 3.77305C103.414 2.80105 104.146 2.03905 105.082 1.48705C106.018 0.935049 107.11 0.659049 108.358 0.659049ZM108.358 1.41505C107.242 1.41505 106.276 1.65505 105.46 2.13505C104.644 2.60305 104.014 3.26905 103.57 4.13305C103.126 4.98505 102.904 5.97505 102.904 7.10305C102.904 8.23105 103.126 9.22105 103.57 10.073C104.014 10.913 104.644 11.573 105.46 12.053C106.276 12.521 107.242 12.7551 108.358 12.7551C109.462 12.7551 110.422 12.521 111.238 12.053C112.054 11.573 112.678 10.913 113.11 10.073C113.554 9.22105 113.776 8.23105 113.776 7.10305C113.776 5.97505 113.554 4.98505 113.11 4.13305C112.678 3.26905 112.054 2.60305 111.238 2.13505C110.422 1.65505 109.462 1.41505 108.358 1.41505ZM108.25 11.765C107.386 11.765 106.624 11.573 105.964 11.189C105.316 10.805 104.806 10.271 104.434 9.58705C104.062 8.89105 103.876 8.08105 103.876 7.15705C103.876 6.24505 104.062 5.44105 104.434 4.74505C104.806 4.04905 105.322 3.50305 105.982 3.10705C106.654 2.71105 107.422 2.51305 108.286 2.51305C109.21 2.51305 110.026 2.72905 110.734 3.16105C111.442 3.59305 111.946 4.17505 112.246 4.90705L110.716 5.44705C110.536 5.02705 110.236 4.69105 109.816 4.43905C109.396 4.18705 108.91 4.06105 108.358 4.06105C107.818 4.06105 107.35 4.19305 106.954 4.45705C106.558 4.70905 106.246 5.06905 106.018 5.53705C105.802 5.99305 105.694 6.53305 105.694 7.15705C105.694 8.09305 105.934 8.83705 106.414 9.38905C106.906 9.94105 107.554 10.217 108.358 10.217C108.898 10.217 109.384 10.097 109.816 9.85705C110.248 9.61705 110.566 9.28705 110.77 8.86705L112.282 9.40705C111.946 10.127 111.418 10.703 110.698 11.135C109.99 11.555 109.174 11.765 108.25 11.765Z" fill="#301B0A"/>
<path d="M121.57 12.0711L125.278 8.61505C125.986 7.96705 126.544 7.40905 126.952 6.94105C127.36 6.47305 127.654 6.04105 127.834 5.64505C128.014 5.23705 128.104 4.81705 128.104 4.38505C128.104 3.74905 127.918 3.22705 127.546 2.81905C127.186 2.41105 126.598 2.20705 125.782 2.20705C125.266 2.20705 124.828 2.32105 124.468 2.54905C124.108 2.77705 123.832 3.10105 123.64 3.52105C123.448 3.92905 123.346 4.40905 123.334 4.96105H121.606C121.63 4.00105 121.828 3.20305 122.2 2.56705C122.572 1.93105 123.07 1.45705 123.694 1.14505C124.33 0.821049 125.032 0.659049 125.8 0.659049C126.664 0.659049 127.402 0.815049 128.014 1.12705C128.638 1.43905 129.112 1.87705 129.436 2.44105C129.76 2.99305 129.922 3.64105 129.922 4.38505C129.922 4.92505 129.82 5.45305 129.616 5.96905C129.424 6.47305 129.088 7.01905 128.608 7.60705C128.128 8.18305 127.474 8.85505 126.646 9.62305L124.198 11.873H130.264V13.385H121.57V12.0711Z" fill="#301B0A"/>
<path d="M132.49 7.08505C132.49 6.14905 132.562 5.29105 132.706 4.51105C132.85 3.71905 133.09 3.04105 133.426 2.47705C133.762 1.90105 134.23 1.45705 134.83 1.14505C135.43 0.821049 136.18 0.659049 137.08 0.659049C137.992 0.659049 138.742 0.821049 139.33 1.14505C139.918 1.45705 140.38 1.90105 140.716 2.47705C141.064 3.04105 141.304 3.71905 141.436 4.51105C141.58 5.29105 141.652 6.14905 141.652 7.08505C141.652 8.03305 141.58 8.90305 141.436 9.69505C141.304 10.475 141.064 11.153 140.716 11.729C140.38 12.293 139.918 12.731 139.33 13.043C138.742 13.355 137.992 13.511 137.08 13.511C136.18 13.511 135.43 13.355 134.83 13.043C134.23 12.731 133.762 12.293 133.426 11.729C133.09 11.153 132.85 10.475 132.706 9.69505C132.562 8.90305 132.49 8.03305 132.49 7.08505ZM139.834 7.08505C139.834 6.43705 139.804 5.81905 139.744 5.23105C139.684 4.64305 139.564 4.12105 139.384 3.66505C139.216 3.20905 138.946 2.85505 138.574 2.60305C138.202 2.33905 137.704 2.20705 137.08 2.20705C136.456 2.20705 135.958 2.33905 135.586 2.60305C135.214 2.85505 134.938 3.20905 134.758 3.66505C134.578 4.12105 134.458 4.64305 134.398 5.23105C134.35 5.81905 134.326 6.43705 134.326 7.08505C134.326 7.76905 134.35 8.40505 134.398 8.99305C134.458 9.58105 134.578 10.097 134.758 10.541C134.938 10.985 135.214 11.3331 135.586 11.5851C135.958 11.8371 136.456 11.963 137.08 11.963C137.704 11.963 138.202 11.8371 138.574 11.5851C138.946 11.3331 139.216 10.985 139.384 10.541C139.564 10.097 139.684 9.58105 139.744 8.99305C139.804 8.40505 139.834 7.76905 139.834 7.08505Z" fill="#301B0A"/>
<path d="M145.212 2.29705H143.502V0.785048H147.012V13.385H145.212V2.29705Z" fill="#301B0A"/>
<path d="M149.576 4.20505C149.624 3.44905 149.834 2.80705 150.206 2.27905C150.59 1.75105 151.094 1.34905 151.718 1.07305C152.342 0.797049 153.056 0.659049 153.86 0.659049C154.712 0.659049 155.432 0.821049 156.02 1.14505C156.608 1.46905 157.052 1.90105 157.352 2.44105C157.664 2.96905 157.82 3.54505 157.82 4.16905C157.82 4.62505 157.724 5.04505 157.532 5.42905C157.34 5.80105 157.076 6.11905 156.74 6.38305C156.416 6.64705 156.044 6.83305 155.624 6.94105V7.03105C156.104 7.15105 156.524 7.34305 156.884 7.60705C157.256 7.85905 157.544 8.18905 157.748 8.59705C157.952 8.99305 158.054 9.47305 158.054 10.0371C158.054 10.7211 157.898 11.327 157.586 11.855C157.274 12.371 156.806 12.7791 156.182 13.0791C155.57 13.3671 154.808 13.511 153.896 13.511C153.02 13.511 152.252 13.379 151.592 13.115C150.932 12.851 150.41 12.437 150.026 11.873C149.654 11.309 149.444 10.577 149.396 9.67705H151.124C151.184 10.421 151.43 10.991 151.862 11.387C152.294 11.771 152.972 11.963 153.896 11.963C154.436 11.963 154.88 11.8791 155.228 11.7111C155.576 11.543 155.828 11.3091 155.984 11.0091C156.152 10.6971 156.236 10.325 156.236 9.89305C156.236 9.07705 155.954 8.52505 155.39 8.23705C154.838 7.93705 153.998 7.78705 152.87 7.78705H152.42V6.25705H152.888C153.572 6.24505 154.142 6.17305 154.598 6.04105C155.066 5.90905 155.414 5.71105 155.642 5.44705C155.882 5.17105 156.002 4.81105 156.002 4.36705C156.002 3.76705 155.822 3.25705 155.462 2.83705C155.102 2.41705 154.55 2.20705 153.806 2.20705C153.302 2.20705 152.876 2.29705 152.528 2.47705C152.18 2.64505 151.904 2.87905 151.7 3.17905C151.496 3.47905 151.37 3.82105 151.322 4.20505H149.576Z" fill="#301B0A"/>
<path d="M170.797 2.29705H170.167L166.207 13.385H164.371L168.907 0.785048H172.021L176.557 13.385H174.721L170.797 2.29705ZM166.693 8.66905H174.037V10.181H166.693V8.66905Z" fill="#301B0A"/>
<path d="M177.986 0.425049H179.678V13.385H177.986V0.425049Z" fill="#301B0A"/>
<path d="M182.258 0.425049H183.95V13.385H182.258V0.425049Z" fill="#301B0A"/>
<path d="M187.537 10.541C187.621 10.901 187.765 11.183 187.969 11.387C188.173 11.591 188.413 11.741 188.689 11.837C188.977 11.921 189.277 11.963 189.589 11.963C190.129 11.963 190.549 11.855 190.849 11.639C191.149 11.423 191.299 11.1531 191.299 10.8291C191.299 10.5531 191.203 10.337 191.011 10.181C190.831 10.013 190.585 9.88105 190.273 9.78505C189.973 9.68905 189.649 9.59905 189.301 9.51505C188.989 9.43105 188.647 9.33505 188.275 9.22705C187.915 9.11905 187.573 8.97505 187.249 8.79505C186.937 8.60305 186.679 8.36305 186.475 8.07505C186.271 7.77505 186.169 7.39705 186.169 6.94105C186.169 6.40105 186.313 5.93305 186.601 5.53705C186.901 5.12905 187.309 4.81705 187.825 4.60105C188.353 4.37305 188.947 4.25905 189.607 4.25905C190.375 4.25905 191.047 4.42705 191.623 4.76305C192.211 5.08705 192.637 5.57905 192.901 6.23905L191.371 6.74305C191.287 6.51505 191.149 6.32905 190.957 6.18505C190.765 6.04105 190.543 5.94505 190.291 5.89705C190.051 5.83705 189.811 5.80705 189.571 5.80705C189.115 5.80705 188.737 5.89705 188.437 6.07705C188.137 6.25705 187.987 6.52105 187.987 6.86905C187.987 7.06105 188.035 7.22305 188.131 7.35505C188.227 7.47505 188.359 7.57705 188.527 7.66105C188.707 7.73305 188.917 7.79905 189.157 7.85905C189.397 7.91905 189.655 7.98505 189.931 8.05705C190.291 8.16505 190.657 8.28505 191.029 8.41705C191.401 8.53705 191.743 8.69305 192.055 8.88505C192.367 9.07705 192.619 9.32905 192.811 9.64105C193.003 9.95305 193.105 10.337 193.117 10.793C193.117 11.321 192.967 11.7891 192.667 12.1971C192.379 12.6051 191.965 12.9291 191.425 13.1691C190.897 13.3971 190.267 13.511 189.535 13.511C188.647 13.511 187.891 13.313 187.267 12.917C186.643 12.521 186.223 11.909 186.007 11.081L187.537 10.541Z" fill="#301B0A"/>
<path d="M195.178 0.425049H196.888V8.14705H197.626L200.992 4.38505H203.296L199.12 8.88505L203.314 13.385H200.992L197.626 9.60505H196.888V13.385H195.178V0.425049Z" fill="#301B0A"/>
<path d="M208.33 13.511C207.478 13.511 206.71 13.3251 206.026 12.9531C205.354 12.5691 204.826 12.035 204.442 11.351C204.058 10.655 203.866 9.83905 203.866 8.90305C203.866 7.95505 204.064 7.13305 204.46 6.43705C204.856 5.74105 205.396 5.20705 206.08 4.83505C206.764 4.45105 207.532 4.25905 208.384 4.25905C209.236 4.25905 210.004 4.45105 210.688 4.83505C211.384 5.20705 211.93 5.74105 212.326 6.43705C212.722 7.12105 212.92 7.93105 212.92 8.86705C212.92 9.81505 212.716 10.637 212.308 11.333C211.912 12.029 211.366 12.5691 210.67 12.9531C209.974 13.3251 209.194 13.511 208.33 13.511ZM208.312 11.963C208.792 11.963 209.242 11.855 209.662 11.639C210.082 11.411 210.424 11.0691 210.688 10.6131C210.964 10.1571 211.102 9.57505 211.102 8.86705C211.102 8.17105 210.97 7.60105 210.706 7.15705C210.454 6.70105 210.118 6.36505 209.698 6.14905C209.278 5.92105 208.828 5.80705 208.348 5.80705C207.88 5.80705 207.442 5.92105 207.034 6.14905C206.638 6.36505 206.314 6.70105 206.062 7.15705C205.81 7.61305 205.684 8.19505 205.684 8.90305C205.684 9.59905 205.804 10.1751 206.044 10.6311C206.296 11.0751 206.62 11.411 207.016 11.639C207.412 11.855 207.844 11.963 208.312 11.963Z" fill="#301B0A"/>
<path d="M221.738 4.38505H223.286V11.909C223.286 12.965 223.034 13.8711 222.53 14.6271C222.026 15.3831 221.3 15.9651 220.352 16.3731C219.416 16.7811 218.282 16.9851 216.95 16.9851L216.68 15.4911C218.288 15.4551 219.506 15.1311 220.334 14.5191C221.162 13.9191 221.576 13.049 221.576 11.909V11.819L221.774 11.837C221.486 12.293 221.072 12.689 220.532 13.025C220.004 13.349 219.344 13.511 218.552 13.511C217.748 13.511 217.034 13.319 216.41 12.935C215.798 12.551 215.318 12.0111 214.97 11.3151C214.634 10.6191 214.466 9.80905 214.466 8.88505C214.466 7.96105 214.634 7.15105 214.97 6.45505C215.318 5.75905 215.798 5.21905 216.41 4.83505C217.034 4.45105 217.748 4.25905 218.552 4.25905C219.044 4.25905 219.482 4.32505 219.866 4.45705C220.262 4.58905 220.604 4.76905 220.892 4.99705C221.18 5.21305 221.42 5.45905 221.612 5.73505L221.738 4.38505ZM216.284 8.88505C216.284 9.80905 216.524 10.5531 217.004 11.1171C217.496 11.6811 218.15 11.963 218.966 11.963C219.446 11.963 219.884 11.8431 220.28 11.6031C220.676 11.3511 220.988 10.997 221.216 10.541C221.456 10.073 221.576 9.52105 221.576 8.88505C221.576 8.23705 221.456 7.68505 221.216 7.22905C220.988 6.77305 220.67 6.42505 220.262 6.18505C219.866 5.93305 219.434 5.80705 218.966 5.80705C218.15 5.80705 217.496 6.08905 217.004 6.65305C216.524 7.21705 216.284 7.96105 216.284 8.88505Z" fill="#301B0A"/>
<path d="M232.102 10.055C232.174 10.391 232.318 10.7031 232.534 10.9911C232.762 11.2791 233.068 11.5131 233.452 11.6931C233.836 11.8731 234.31 11.963 234.874 11.963C235.714 11.963 236.332 11.771 236.728 11.387C237.136 10.991 237.34 10.529 237.34 10.001C237.34 9.56905 237.214 9.21505 236.962 8.93905C236.722 8.65105 236.386 8.41105 235.954 8.21905C235.534 8.01505 235.048 7.83505 234.496 7.67905C234.016 7.53505 233.542 7.38505 233.074 7.22905C232.618 7.06105 232.204 6.85705 231.832 6.61705C231.46 6.36505 231.166 6.04705 230.95 5.66305C230.734 5.26705 230.626 4.77505 230.626 4.18705C230.626 3.45505 230.8 2.82505 231.148 2.29705C231.496 1.76905 231.982 1.36705 232.606 1.09105C233.242 0.803049 233.974 0.659049 234.802 0.659049C235.498 0.659049 236.122 0.761049 236.674 0.965048C237.226 1.15705 237.688 1.43905 238.06 1.81105C238.444 2.17105 238.726 2.60905 238.906 3.12505L237.268 3.71905C237.196 3.45505 237.046 3.20905 236.818 2.98105C236.59 2.74105 236.302 2.54905 235.954 2.40505C235.606 2.26105 235.216 2.18905 234.784 2.18905C234.34 2.17705 233.938 2.24905 233.578 2.40505C233.23 2.54905 232.948 2.75905 232.732 3.03505C232.528 3.31105 232.426 3.64105 232.426 4.02505C232.426 4.44505 232.546 4.77505 232.786 5.01505C233.026 5.25505 233.344 5.45305 233.74 5.60905C234.148 5.76505 234.592 5.91505 235.072 6.05905C235.576 6.21505 236.068 6.38305 236.548 6.56305C237.028 6.74305 237.46 6.97105 237.844 7.24705C238.24 7.52305 238.558 7.87105 238.798 8.29105C239.038 8.69905 239.158 9.21505 239.158 9.83905C239.158 10.5111 239.002 11.123 238.69 11.675C238.378 12.227 237.904 12.671 237.268 13.007C236.644 13.343 235.858 13.511 234.91 13.511C234.13 13.511 233.428 13.3911 232.804 13.1511C232.18 12.9111 231.664 12.581 231.256 12.161C230.86 11.729 230.596 11.231 230.464 10.667L232.102 10.055Z" fill="#301B0A"/>
<path d="M246.577 2.29705H245.947L241.987 13.385H240.151L244.687 0.785048H247.801L252.337 13.385H250.501L246.577 2.29705ZM242.473 8.66905H249.817V10.181H242.473V8.66905Z" fill="#301B0A"/>
</svg>
