<svg id="Layer_1" data-name="Layer 1" xmlns="http://www.w3.org/2000/svg" viewBox="0 0 89.58 28.59"><defs><style>.cls-1{fill:none;}.cls-2{fill:#301b0a;}</style></defs><title>logo-footer</title><line class="cls-1" y2="28.42"/><path class="cls-2" d="M5.2,23.78h9v4.58H0V.73H5.2Z" transform="translate(0 -0.34)"/><path class="cls-2" d="M23.93,20.18c0,2.57,1.37,4.17,5.26,4.17s5.2-1.6,5.2-4.17V9.31c0-2.63-1.31-4.23-5.2-4.23s-5.26,1.6-5.26,4.23Zm15.73.28c0,4.58-2.69,8.47-10.47,8.47S18.72,25,18.72,20.46V9c0-4.64,2.69-8.52,10.47-8.52S39.66,4.39,39.66,9Z" transform="translate(0 -0.34)"/><path class="cls-2" d="M73.85,20.18c0,2.57,1.38,4.17,5.26,4.17s5.2-1.6,5.2-4.17V9.31c0-2.63-1.31-4.23-5.2-4.23s-5.26,1.6-5.26,4.23Zm15.73.28c0,4.58-2.69,8.47-10.47,8.47S68.64,25,68.64,20.46V9c0-4.64,2.69-8.52,10.47-8.52S89.58,4.39,89.58,9Z" transform="translate(0 -0.34)"/><path class="cls-2" d="M49.84,19.84c0,2.69,1.14,4.23,4.8,4.23a34.35,34.35,0,0,0,4.29-.29v-8.4h4.92V27.56a36.86,36.86,0,0,1-9.27,1.2c-6.75,0-9.95-2.86-9.95-8.29V8.69C44.63,3,48,.34,55.1.34A32.71,32.71,0,0,1,63,1.25l-.63,4.57a34.37,34.37,0,0,0-7.71-.74c-3.66,0-4.86,1.49-4.86,4.29Z" transform="translate(0 -0.34)"/></svg>